<?xml version="1.0" encoding="UTF-8" standalone="no"?>
<svg
   version="1.1"
   x="0px"
   y="0px"
   viewBox="0 0 500 500"
   style="enable-background:new 0 0 500 500;"
   xml:space="preserve"
   id="svg1"
   sodipodi:docname="sanky.svg"
   inkscape:version="1.4 (e7c3feb1, 2024-10-09)"
   xmlns:inkscape="http://www.inkscape.org/namespaces/inkscape"
   xmlns:sodipodi="http://sodipodi.sourceforge.net/DTD/sodipodi-0.dtd"
   xmlns="http://www.w3.org/2000/svg"
   xmlns:svg="http://www.w3.org/2000/svg"><defs
   id="defs1" /><sodipodi:namedview
   id="namedview1"
   pagecolor="#ffffff"
   bordercolor="#000000"
   borderopacity="0.25"
   inkscape:showpageshadow="2"
   inkscape:pageopacity="0.0"
   inkscape:pagecheckerboard="0"
   inkscape:deskcolor="#d1d1d1"
   inkscape:zoom="2.018"
   inkscape:cx="250.24777"
   inkscape:cy="250"
   inkscape:window-width="1904"
   inkscape:window-height="1186"
   inkscape:window-x="0"
   inkscape:window-y="25"
   inkscape:window-maximized="0"
   inkscape:current-layer="svg1"
   showguides="false" />
	<style
   id="style1">
		.st0{fill:#71DBD6;}
		.st1{fill:#F9D499;}
		.st2{fill:#12BC00;}
		.st3{fill:#D3D1CD;}
		.st4{fill:#2B2D30;}
		.st5{fill:#B3B3B3;}
		.st6{fill:#FEFEFE;}
		.st7{fill:#2E3032;}
		.st8{fill:#2D2F32;}
		.st9{fill:#2B2E31;}


		#Retina1,#Retina2 {
		  -webkit-animation-name: blink;
		  -webkit-animation-duration: 6s;
		  -webkit-animation-iteration-count: infinite; 
		  -webkit-transform-origin: 50%;
		  
		  animation-name: blink;
		  animation-duration: 6s;
		  animation-iteration-count: infinite; 
		  transform-origin: 50%;
		}

		@-webkit-keyframes blink { 
		  0% { -webkit-transform: scaleX(1) scaleY(1); } 
		  1% { -webkit-transform: scaleX(1.3) scaleY(0.1); } 
		  2% { -webkit-transform: scaleX(1) scaleY(1); } 
		  60% { -webkit-transform: scaleX(1) scaleY(1); } 
		  61% { -webkit-transform: scaleX(1.3) scaleY(0.1);} 
		  62% { -webkit-transform: scaleX(1) scaleY(1); } 
		  100% { -webkit-transform: scaleX(1) scaleY(1); }
		}


		@keyframes blink { 
		  0% { transform: scaleX(1) scaleY(1); } 
		  1% { transform: scaleX(1.3) scaleY(0.1); } 
		  2% { transform: scaleX(1) scaleY(1); } 
		  60% { transform: scaleX(1) scaleY(1); } 
		  61% { transform: scaleX(1.3) scaleY(0.1);} 
		  62% { transform: scaleX(1) scaleY(1); } 
		  100% { transform: scaleX(1) scaleY(1); }
		}
	</style>
	<g
   id="Sanky">
		<path
   id="XMLID_29_"
   class="st1"
   d="M225.3,277.5c2.3,6.2,15.8,6.2,21.3,6c6.8-0.2,14.8-0.2,20.5-4.2c0,0,0,0,0,0   c0.1-0.5,0.3-0.8,0.6-0.9c-0.1-1.8-0.3-3.6-0.7-5.5c-0.1,0.1-0.3,0.2-0.4,0.3c-5.7,3.5-13.6,2.4-20,3.1c-3,0.3-7.2,0.6-10.1-0.4   c-2.8-0.9-4.2-3.4-6.1-5.5c-0.1-0.1-0.3-0.3-0.4-0.4c-0.7-0.3-1.2-0.6-1.5-1c-0.3-0.4-0.9-0.5-1.9-1c-0.6,3.1-1.1,6.2-1.3,9.2   C225.3,277.2,225.4,277.4,225.3,277.5z" />
		<path
   id="Shirt"
   class="st2"
   d="M388.6,445.2c-17.3,0.1-34.6,0.3-51.9,0.4c0.5-1.5,1.4-3,1.5-4.5c0.4-9.3,0.6-18.6,0.9-28   c6.1-1.2,12.2-2.5,19.5-3.9c-6.4-12.6-12.4-24.4-18.3-36.2c-0.1-5.1-0.4-10.3-0.1-15.4c0.3-5.4-1-9.4-6.5-11.4   c-4.6,1.4-7.5-0.3-9.4-4.6c-1.8-4-4.1-7.9-6.1-11.8c-0.5,0.1-0.5,0.1-1,0.2l-1.3,16.1c-6.1,0.3-12.2,1-18.3,1   c-34.7,0.1-69.5,0.1-104.2,0c-5.3,0-10.6-0.5-15.9-0.8c-0.2-5.5-0.5-10.9-0.7-16.4c-3.2,3.9-5.5,7.8-7.4,12   c-1.9,4.1-4.6,5.8-8.9,4.3c-5.9,1.5-7,5.8-6.9,11c0.1,5-0.1,10-0.1,14.9c-5.8,12.1-11.7,24.2-17.8,37c7.2,1.4,13.2,2.6,19.1,3.8   c0.1,6.8,0,13.6,0.3,20.4c0.2,4.1,0.9,8.1,1.4,12.2c-18.1,0-36.2,0-54.3,0c-1.1,0-2.3-0.3-3.4-0.4c-7-4.6-8.9-11.3-7.7-19.1   c0.5-3.4,1.5-6.9,3-10c8.6-18.1,17.4-36.1,26.1-54.2c5-10.4,9.9-20.9,14.9-31.3c1.2-1.5,2.5-3,3.4-4.6c6.2-11.2,12-22.6,18.8-33.4   c2-3.2,6.5-6.8,10.1-7.9c19-5.8,38.6-8.6,58.5-8.5c-4.5,9.3,47.3,9.1,41.3,0.1c20.1-0.3,39.7,2.8,59,8.2c4.5,1.3,8.4,3.7,10.8,8.2   c6.7,12.6,13.6,25.2,20.5,37.6c0.6,1.1,2.2,1.6,3.3,2.4c0.5,2.1,0.7,4.3,1.6,6.1c10.3,21,20.6,42,31,63.4   c1.3,1.8,8.3,12.1,5.4,25.6C396.8,437.4,390.8,443.2,388.6,445.2z"
   style="fill:#008080" />
		<g
   id="Laptop">
			<path
   id="XMLID_3_"
   class="st3"
   d="M158.2,445.6c-0.5-4.1-1.2-8.1-1.4-12.2c-0.3-6.8-0.2-13.6-0.3-20.4    c-0.4-13.6-0.9-27.2-1.3-40.8c0-5,0.2-10,0.1-14.9c-0.1-5.2,1.1-9.6,6.9-11c5.7,0.1,11.4,0.1,17.1,0.2c5.3,0.3,10.6,0.8,15.9,0.8    c34.7,0.1,69.5,0.1,104.2,0c6.1,0,21.8-0.2,23.5-0.3c4.2-0.1,8.4-0.4,12.6-0.6c5.4,1.9,6.8,6,6.5,11.4c-0.3,5.1,0,10.3,0.1,15.4    c-0.4,13.4-0.8,26.7-1.2,40.1c-0.3,9.3-0.5,18.6-0.9,28c-0.1,1.5-1,3-1.5,4.5C278.4,445.6,218.3,445.6,158.2,445.6z"
   style="fill-opacity:1;fill:#666666" />
			<g
   id="XMLID_2_">
				
				
				
			</g>
			<path
   id="XMLID_6_"
   class="st5"
   d="M158.2,453.1c-0.5-0.3-1.2-0.6-1.4-0.9c-0.3-0.5-0.2-1-0.3-1.5c-0.4-1-0.9-2-1.3-3.1    c0-0.4,0.2-0.7,0.1-1.1c-0.1-0.4,1.1-0.7,6.9-0.8c5.7,0,11.4,0,17.1,0c5.3,0,10.6,0.1,15.9,0.1c34.7,0,69.5,0,104.2,0    c6.1,0,21.8,0,23.5,0c4.2,0,8.4,0,12.6,0c5.4,0.1,6.8,0.5,6.5,0.9c-0.3,0.4,0,0.8,0.1,1.2c-0.4,1-0.8,2-1.2,3    c-0.3,0.7-0.5,1.4-0.9,2.1c-0.1,0.1-1,0.2-1.5,0.3C278.4,453.1,218.3,453.1,158.2,453.1z" />
		</g>
		<g
   id="Face">
			<path
   id="XMLID_118_"
   class="st1"
   d="M309.3,184.9c1.2-0.1,2.3-0.2,3.7-0.3c0.2,1,0.6,2.1,0.8,3.3c0.9,4-0.1,7.7-1.3,11.5    c-1.5,4.9-3.8,9.4-6.6,13.6c-0.1,0.1-0.2,0.2-0.3,0.4c-1.3,1.6-1.9,1.7-3.4,0.4c-0.7-0.6-1.5-0.7-2.4-0.6c-0.5,0.1-1,0.3-1.5,0.5    c-1.4,0.7-1.1,2-0.9,3.1c0.9,4.1,1.7,8.3,2.7,12.3c0.4,1.7,0.2,3.1-0.8,4.4c-2,2.5-4,5-6.1,7.4c-4.9,5.5-9.8,11-14.8,16.5    c-4.4,4.8-9,9.5-13.4,14.2c-1.2,1.3-2.8,1.8-4.5,1.9c-2.6,0-5.2-0.1-7.8-0.2c-2.3,0-4.6-0.1-6.8-0.1c-2.2,0-4.5,0-6.7,0.1    c-2.4,0.1-4.3-0.8-5.9-2.4c-3.4-3.3-6.7-6.5-10-9.9c-8.6-8.7-17.3-17.2-26.4-25.3c-0.4-0.3-0.7-0.7-1.1-1    c-1.1-0.7-1.4-1.7-1.3-2.9c0.1-2.8,0.2-5.5,0.4-8.3c0.2-2.4,0.6-4.7,0.7-7.1c0.1-1.3,0-2.6-0.2-3.8c0-0.3-0.5-0.6-0.7-0.7    c-1.6-0.2-3.1-0.1-4.3,1.3c-0.2,0.2-0.8,0.2-1.1,0.2c-1.2-0.2-2.1-1-2.8-1.9c-1.9-2.4-3.1-5.1-4.1-7.9c-1.9-5.4-3.8-10.8-5.6-16.3    c-0.6-1.7,0.1-3,1.7-3.7c0.2-0.1,0.4-0.1,0.6-0.1c0.6-0.1,1.2-0.2,1.8-0.3c0.3,0,0.8,0.1,1,0.3c0.6,0.8,1.3,1.1,2.3,1.1    c0.6,0,1.2,0,1.8,0c0.2,1.5,0.3,3,0.6,4.4c0.8,5.3,2.2,10.5,4.7,15.2c2.4,4.6,6.3,7.5,11.1,9.2c3.4,1.2,6.9,1.9,10.6,2.2    c4.4,0.3,8.8,0.1,13-1.2c7.3-2.2,11.9-7.2,13.9-14.5c0.7-2.7,1.2-5.5,1.9-8.3c0.4-1.4,1-2.8,1.7-4c1.8-3,6.6-3.4,8.7,0    c1.2,1.9,1.8,4.1,2.4,6.3c0.8,2.9,1.3,5.9,2.4,8.7c2.7,6.9,7.9,10.9,15.1,12.4c3.9,0.8,7.8,1,11.8,0.6c5.4-0.5,10.6-1.9,15.2-4.9    c3-2,4.9-4.9,6.4-8c1.9-3.9,3-8.1,3.7-12.4C308.8,188.7,309,186.8,309.3,184.9z M262.1,211.8c-1.4,0.5-2.8,1.1-4.2,1.6    c-1.8,0.6-3.6,0.6-5.4-0.2c-1.4-0.7-3-1.1-4.5-1.6c-0.8-0.3-1.6-0.3-2.3,0.2c-0.8,0.5-0.9,0.8,0,1.2c1.7,0.8,3.3,1.6,5,2.2    C255.4,216.7,259.7,214.9,262.1,211.8c0.1,0,0.1,0,0.1-0.1C262.2,211.7,262.1,211.7,262.1,211.8z M237.9,224.9    c0,0-0.1,0.1-0.1,0.1c0.3,0.2,0.5,0.4,0.8,0.6c6.1,4.5,12.9,7.1,20.5,7.8c1,0.1,2.1,0,3.2-0.1c0.7-0.1,0.9-0.6,0.3-1.1    c-0.2-0.2-0.5-0.4-0.8-0.5c-0.6-0.2-1.3-0.3-1.9-0.3c-2.1-0.2-4.1-0.3-6.2-0.7c-5.3-1-10.3-3-15.1-5.4    C238.3,225.1,238.1,225,237.9,224.9z M256.8,241.9c-0.4,0-0.7-0.1-1,0c-2.4,0.6-4.9,1.1-7.2,1.8c-1.1,0.3-2.1,1-3,1.6    c-0.5,0.3-0.7,1-0.4,1.6c0.3,0.6,1,0.9,1.7,0.7c0.4-0.1,0.8-0.4,1.2-0.6c0.8-0.5,1.5-1.2,2.3-1.7    C252.5,244.3,254.6,243.1,256.8,241.9z M237.7,224.8C237.7,224.8,237.7,224.8,237.7,224.8C237.7,224.8,237.7,224.8,237.7,224.8    C237.6,224.8,237.6,224.8,237.7,224.8C237.6,224.8,237.6,224.8,237.7,224.8z" />
			<path
   id="XMLID_114_"
   class="st1"
   d="M300.5,167.9c-2-0.4-3.9-0.9-5.8-1.2c-2.1-0.3-4.2-0.6-6.3-0.7c-2.7-0.2-5.4-0.2-8.1-0.1    c-3.3,0.1-6.6,0.4-9.8,0.7c-6.1,0.7-12.1,2.1-17.8,4.2c-1.4,0.5-2.8,1.1-4.2,1.5c-1.2,0.4-2.4,0.1-3.6-0.4    c-5.4-2.4-11.1-3.9-17-4.9c-3.4-0.5-6.8-0.9-10.2-1.1c-3.4-0.2-6.8-0.3-10.2-0.1c-4.5,0.2-8.9,0.9-13.2,2.1    c-0.5,0.2-0.7,0.1-1-0.4c-1.3-2.7-1.6-5.6-2-8.5c-0.7-5.3-1-10.5-0.9-15.8c0-1.2,0.1-2.5,0.2-3.7c0-0.7,0.4-1.2,1-1.6    c2.3-1.6,4.9-2.6,7.5-3.5c2.3-0.8,4.6-1.6,7.1-1.3c1.9,0.2,3.8,0.5,5.7,0.8c3.7,0.7,7.4,1.4,11.1,2c3.1,0.6,6.1,1.1,9.2,1.6    c2.3,0.4,4.5,0.7,6.8,1c2.2,0.3,4.5,0.6,6.7,0.7c2.6,0.2,5.2,0.2,7.8,0.1c2.2,0,4.5-0.2,6.7-0.4c2.5-0.3,5-0.6,7.4-1    c4.7-0.9,9.3-1.9,14-3.1c2.8-0.7,5.6-1.7,8.4-2.5c2-0.5,4-0.8,6-0.2c1.4,0.4,2.4,1.3,2.9,2.7c1.2,3.6,2.1,7.2,2.6,10.9    c0.5,4.2,0.7,8.3,0.3,12.5c-0.2,2.6-0.6,5.3-0.9,7.9C300.8,166.6,300.6,167.3,300.5,167.9z M293.7,164c-0.9-0.3-1.9-0.6-2.8-0.9    c-7.3-2.2-14.5-5-22-6.4c-1.4-0.3-2.8-0.4-4.2-0.5c-1.4-0.1-2.6,0.8-2.8,2.1c-0.3,1.3-0.3,2.6-0.4,3.9c0,0.6,0.3,0.9,1,1    c2.1,0.2,4.2,0.6,6.3,0.8c1.9,0.2,3.9,0.6,5.9,0.6c6,0.1,11.9,0,17.9,0C293,164.7,293.4,164.6,293.7,164z M236.7,167.9    c-0.4-1.7-0.7-3.4-1.1-5.1c-0.2-0.8-0.6-1.3-1.3-1.7c-1.4-0.8-2.9-1.2-4.4-1c-2.2,0.2-4.3,0.5-6.5,0.8c-3.6,0.4-7.2,0.9-10.8,1.3    c-3.5,0.4-7,0.6-10.5,1c-1.4,0.2-2.9,0.6-4.3,0.9c-0.2,0.1-0.5,0.5-0.5,0.8c0.1,0.4,0.3,0.8,0.9,0.7c2-0.2,4-0.5,6-0.6    c3.1-0.1,6.2-0.2,9.3-0.2c1.9,0,3.9,0.1,5.8,0.3c2.5,0.3,4.9,0.6,7.4,1C230,166.8,233.3,167.4,236.7,167.9z" />
			<path
   id="XMLID_111_"
   class="st6"
   d="M278.9,212.9c-3.7-0.2-7.4-0.7-10.8-2.3c-5.6-2.6-8.8-7.1-10-13c-0.6-3.2-1.1-6.4-1.5-9.6    c-0.3-2.8-0.4-5.6,0.2-8.3c0.4-1.9,1.4-3.3,3.1-4.3c2.7-1.6,5.6-2.5,8.6-3.2c5.5-1.2,11.1-1.6,16.7-1.3c3.8,0.2,7.5,0.4,11.2,1.5    c2.1,0.6,4,1.5,5.5,3c2.3,2.2,3.3,5,3.3,8.1c0,2.3-0.2,4.7-0.4,7c-0.3,3.3-1,6.6-2.4,9.6c-3,6.7-8.3,10.6-15.5,11.9    C284.3,212.4,281.6,212.6,278.9,212.9z M277.1,191c0,0-0.1-0.1-0.1-0.1c0.3-1.1,0.6-2.2,1-3.2c0.3-1.1,0.7-2.1,1-3.2    c-3.5-1.1-7.2,0.6-8.7,4c-1.5,3.5,0,7.4,3.3,9.1c3.3,1.7,7.4,0.6,9.4-2.6c1.9-2.9,1.1-6.9-1-8.6    C280.4,187.9,278.7,189.5,277.1,191z" />
			<path
   id="XMLID_108_"
   class="st6"
   d="M238.4,184.3c-0.1,3.6-0.6,7.1-1.2,10.6c-0.4,2.2-0.8,4.5-1.7,6.6    c-2.4,5.6-6.8,8.9-12.6,10.4c-3.8,0.9-7.7,1-11.5,0.5c-3-0.4-6-0.8-8.8-2.1c-5.6-2.4-9-6.8-11-12.4c-1-2.9-1.5-5.9-1.7-9    c-0.1-2-0.3-3.9-0.3-5.9c0.1-5.1,2.8-8.4,7.5-10.3c2.3-0.9,4.7-1.4,7.2-1.5c3.4-0.2,6.8-0.5,10.2-0.4c5.9,0.1,11.8,0.8,17.4,3    c0.9,0.4,1.8,0.8,2.7,1.3c2.3,1.2,3.3,3.1,3.7,5.6C238.3,181.9,238.3,183.1,238.4,184.3z M218.4,184.5c-3.2-1.2-7.1,0.5-8.6,3.7    c-1.6,3.4-0.3,7.4,2.9,9.2c3.2,1.8,7.4,0.9,9.5-2.2c1.9-2.8,1.6-7-0.8-8.9c-1.6,1.5-3.2,3.1-4.9,4.6c-0.1,0-0.1-0.1-0.2-0.1    C217.1,188.7,217.8,186.6,218.4,184.5z" />
			<path
   id="XMLID_107_"
   class="st7"
   d="M237.9,224.9c0.2,0.1,0.4,0.2,0.6,0.3c4.8,2.4,9.8,4.4,15.1,5.4c2,0.4,4.1,0.5,6.2,0.7    c0.6,0.1,1.3,0.2,1.9,0.3c0.3,0.1,0.6,0.3,0.8,0.5c0.5,0.5,0.4,1-0.3,1.1c-1.1,0.1-2.1,0.2-3.2,0.1c-7.6-0.7-14.4-3.3-20.5-7.8    c-0.3-0.2-0.5-0.4-0.8-0.6C237.8,224.9,237.9,224.9,237.9,224.9z" />
			<path
   id="XMLID_106_"
   class="st8"
   d="M262.1,211.9c-2.4,3-6.7,4.8-11.3,3.3c-1.7-0.5-3.4-1.4-5-2.2c-0.9-0.4-0.8-0.8,0-1.2    c0.8-0.5,1.5-0.5,2.3-0.2c1.5,0.5,3,1,4.5,1.6c1.8,0.8,3.6,0.8,5.4,0.2C259.3,212.9,260.7,212.3,262.1,211.9    C262.1,211.8,262.1,211.8,262.1,211.9z" />
			<path
   id="XMLID_105_"
   class="st7"
   d="M256.8,241.9c-2.2,1.2-4.4,2.3-6.5,3.5c-0.8,0.5-1.5,1.1-2.3,1.7c-0.4,0.3-0.8,0.5-1.2,0.6    c-0.7,0.2-1.4-0.2-1.7-0.7c-0.3-0.7-0.2-1.3,0.4-1.6c1-0.6,2-1.3,3-1.6c2.4-0.7,4.8-1.3,7.2-1.8    C256.1,241.9,256.4,241.9,256.8,241.9z" />
		</g>
		<path
   id="Glasses"
   class="st9"
   d="M314.3,175c-0.1-0.6-0.6-1.2-1.2-1.4c-5.8-2.6-14.9-8.4-34.3-7.6c-14.8,0.6-24.6,4.2-28.9,6.1   c-1.6,0.7-3.3,0.7-4.9,0c-4.3-1.9-14.1-5.5-28.9-6.1c-19.4-0.8-28.4,5-34.3,7.6c-0.6,0.3-1.1,0.8-1.2,1.4c-0.4,1.7-0.7,5.4,2.3,9.2   c0.4,0.5,1,0.8,1.6,0.8h2.1c0,0,1.1,19.2,10.6,25.7c9.5,6.5,24.9,6.2,32.1,2.6c5-2.6,8.5-6.6,10.3-12.7c1.8-6.1,1.5-14.9,8-14.9   c5.7,0,6.2,8.8,8,14.9c1.8,6.1,5.3,10.1,10.3,12.7c7.1,3.6,22.6,3.9,32.1-2.6c9.5-6.5,10.5-25.7,10.5-25.7h2.1   c0.6,0,1.2-0.3,1.6-0.8C315,180.4,314.7,176.7,314.3,175z M237.1,196.7c-1.7,10.3-10.3,18.4-28.9,14.8c-16.4-3.1-17-19.9-17.3-22.9   c-0.4-4.6-2.6-15.2,13-17c16-1.9,28.9,1.4,32.7,5.1C240.3,180.3,237.8,192.1,237.1,196.7z M304.1,188.6   c-0.3,3.1-0.9,19.8-17.3,22.9c-18.6,3.6-27.2-4.5-28.9-14.8c-0.8-4.6-3.2-16.4,0.5-20.1c3.8-3.7,16.6-7,32.7-5.1   C306.7,173.4,304.5,184,304.1,188.6z" />
		<path
   id="Eyebrow2"
   class="st9"
   d="M198.6,165.9c0,0,12.5-1.7,24.6,0c12.1,1.7,13.7,2.4,13.7,2.4s-0.7-5.6-1.6-6.4   c-1-0.8-3.3-1.9-5.8-1.5c-2.6,0.4-15.8,2.2-20.9,2.4c-5.2,0.3-8.7,1-9.9,1.5C197.4,164.8,198.6,165.9,198.6,165.9z" />
		<path
   id="Eybrow1"
   class="st9"
   d="M261.7,163.4c0,0,11.7,1.6,13,1.6c1.4,0,15-0.3,17.8,0l0.7-0.8c0,0-7.3-2.2-12.1-3.9   c-4.8-1.7-13.5-3.7-15.8-3.9c-2.3-0.1-3.4,1-3.7,2.2S260.8,162.6,261.7,163.4z" />
		<path
   id="Hair"
   class="st9"
   d="M194,167.1l-6.9,2.3c0,0-5.1-22.4-6.6-29.4c-1.5-6.9,0-14.5,1.9-17.3c1.9-2.7,21.6-25.8,32.5-36.6   s18.1-16.3,19.2-16.4c1.1-0.1,3,4.2,3,4.2s1.5-4.8,1-7.7c-0.5-3-0.7-5.4-0.7-5.4s8.4,0.8,13.3,9.2c0,0,0.5-4.6-1.1-8.2   c0,0,6.4,1.1,10.6,9.9c0,0,1.4-3.7,0-5.6c0,0,4.3-0.1,10.3,7.6c0,0,2-1.6,3.8,0.4c1.8,2,19.2,22.7,29.6,42.5c0,0,6.1,10.2,7.1,12   c1,1.8-2.9,32.5-3.9,40.6c0,0-4.5-1.9-6.9-2.6c0,0,3.7-16-1.9-31.5c0,0-0.7-5.2-10.9-1.8c-10.2,3.4-25.6,6.9-39.7,6.3   c-14.1-0.7-37.1-6.4-41.4-6.3c-4.3,0.1-13.7,4.1-14.3,5.8C191.3,141.1,191.3,158.6,194,167.1z" />
		<path
   id="Retina2"
   class="st6"
   d="M222,186.3l-5.1,4.9l2.1-6.7c-0.7-0.2-1.3-0.3-2.1-0.3c-3.9,0-7.1,3.2-7.1,7.1   c0,3.9,3.2,7.1,7.1,7.1c3.9,0,7.1-3.2,7.1-7.1C224,189.2,223.3,187.5,222,186.3z" />
		<path
   id="Retina1"
   class="st6"
   d="M281.6,186.3l-5.1,4.9l2.1-6.7c-0.7-0.2-1.3-0.3-2.1-0.3c-3.9,0-7.1,3.2-7.1,7.1   c0,3.9,3.2,7.1,7.1,7.1c3.9,0,7.1-3.2,7.1-7.1C283.5,189.2,282.8,187.5,281.6,186.3z" />
	</g>
<path
   style="fill:#6d3800;stroke-width:0.332455;fill-opacity:1"
   d="m 241.95028,170.54935 c -4.90244,-1.75561 -5.07666,-1.8689 -5.08205,-3.30455 -0.01,-2.54936 -0.97186,-5.11609 -2.31387,-6.17171 -1.57911,-1.24214 -4.52496,-1.31149 -12.30461,-0.28968 -2.99802,0.39376 -9.01883,1.07589 -13.37958,1.51584 -9.61018,0.96954 -11.76853,1.45913 -11.54673,2.61919 0.10142,0.53044 0.79731,0.93704 1.88932,1.10391 l 1.72877,0.26417 -2.22993,0.37895 c -1.22647,0.20842 -2.71217,0.49906 -3.30157,0.64587 -0.97818,0.24364 -1.14021,-0.0501 -1.85804,-3.36859 -1.42645,-6.59428 -2.24229,-19.77274 -1.46475,-23.66041 0.23129,-1.15645 0.84689,-1.87278 2.35381,-2.73896 3.35347,-1.92756 9.27174,-3.817 11.95812,-3.8177 1.36643,-3.5e-4 8.6137,1.10992 16.10506,2.46726 18.06407,3.27298 22.55648,3.75104 32.06748,3.41244 9.01353,-0.32089 17.29799,-1.63681 26.33593,-4.18326 11.25721,-3.17172 11.89954,-3.30289 13.80584,-2.81925 2.35135,0.59656 3.39237,2.14336 4.57518,6.79803 1.67246,6.58158 2.19851,13.79116 1.49539,20.49453 -0.33822,3.22451 -0.63388,6.26517 -0.65702,6.75701 -0.0303,0.64437 -0.32397,0.82381 -1.05086,0.64213 -6.34008,-1.58466 -20.28462,-1.99064 -29.00679,-0.8445 -5.53876,0.72782 -12.37753,2.38208 -18.55183,4.48758 -2.43591,0.83068 -4.44285,1.49216 -4.45986,1.46997 -0.017,-0.0222 -2.31535,-0.85841 -5.10741,-1.85827 z m 51.7428,-6.28583 c 0.18872,-0.56711 -17.45913,-6.24399 -23.03668,-7.41033 -3.90036,-0.81562 -6.94691,-0.96315 -7.82206,-0.3788 -1.03301,0.68975 -1.68469,2.53449 -1.68469,4.76889 0,2.50704 -0.58823,2.20163 6.19425,3.21601 4.10801,0.61439 26.13403,0.45074 26.34918,-0.19577 z"
   id="path1" /><path
   style="fill:#6d3800;fill-opacity:1;stroke-width:0.332455"
   d="m 235.91135,272.49847 c -0.66253,-0.26472 -7.57532,-6.77922 -15.36174,-14.47665 -7.78643,-7.69743 -16.80581,-16.44055 -20.04307,-19.42914 l -5.88593,-5.43381 0.42365,-6.44564 c 0.23301,-3.5451 0.42876,-8.34108 0.43499,-10.65773 l 0.0113,-4.21209 -1.64557,-0.1579 c -0.91466,-0.0878 -2.17252,0.18737 -2.83192,0.61943 -0.65249,0.42752 -1.50558,0.77732 -1.89576,0.77732 -0.90485,0 -3.49427,-2.93777 -4.73765,-5.37498 -1.29327,-2.53502 -7.47185,-20.53524 -7.47185,-21.76793 0,-2.1454 3.16779,-3.06051 5.55536,-1.60483 0.89648,0.54658 1.99388,0.99462 2.43865,0.99564 0.63254,0.001 0.9973,1.0494 1.67462,4.8112 3.23918,17.99001 10.63704,24.85168 27.74465,25.73377 9.41826,0.48561 15.85349,-1.57412 20.60085,-6.59375 3.08638,-3.26341 4.51042,-6.3247 6.11743,-13.15082 1.62713,-6.91157 2.3615,-8.58158 4.18933,-9.52679 2.07863,-1.07489 3.22123,-0.97409 4.89176,0.43157 1.82854,1.53862 2.76117,3.71528 4.36589,10.18964 0.7093,2.86174 1.97254,6.48584 2.80721,8.05356 4.08007,7.66348 12.44129,11.29276 24.47468,10.62352 11.86108,-0.65967 19.37368,-4.52392 23.33071,-12.00062 2.27156,-4.29203 4.11808,-11.06016 4.11808,-15.09414 v -3.3514 l 1.57953,-0.31591 c 0.86874,-0.17375 1.80044,-0.095 2.07043,0.17498 0.26999,0.26999 0.59038,2.3866 0.71199,4.70357 0.18808,3.58318 0.0202,4.86211 -1.12362,8.55891 -1.50812,4.87431 -5.75903,13.41136 -7.48574,15.03352 -1.0604,0.9962 -1.20479,1.01323 -2.26934,0.26759 -1.48758,-1.04194 -3.51366,-1.01181 -4.85233,0.0722 l -1.07252,0.86848 1.51316,7.13847 c 2.08193,9.82157 2.10095,9.64605 -1.54268,14.23118 -6.08713,7.66002 -31.28223,35.0558 -33.30749,36.21676 -1.29853,0.74437 -25.69062,0.82664 -27.52709,0.0928 z M 248.8633,246.805 c 0.67479,-0.53079 2.87904,-1.86561 4.89835,-2.96627 2.67335,-1.45717 3.34328,-2.0031 2.46426,-2.00817 -1.83645,-0.0106 -7.48086,1.48996 -9.57081,2.5444 -1.72823,0.87194 -2.39111,2.20156 -1.52791,3.06475 0.63961,0.63961 2.5228,0.31968 3.73611,-0.63471 z m 14.26851,-14.1759 c 0,-1.01078 -0.62456,-1.21532 -5.31321,-1.73998 -5.72765,-0.64094 -10.50933,-1.97949 -15.79542,-4.42167 -2.37638,-1.09789 -4.41156,-1.9053 -4.52262,-1.79424 -0.29791,0.29791 2.69405,2.44992 5.80965,4.17867 6.76501,3.75369 19.8216,6.24177 19.8216,3.77722 z m -5.89757,-17.14234 c 1.96822,-0.58969 5.36353,-3.08433 4.87696,-3.58325 -0.15252,-0.1564 -1.43712,0.15634 -2.85467,0.69497 -3.34349,1.27042 -4.0904,1.24116 -8.40539,-0.32937 -2.96968,-1.08088 -3.82524,-1.21481 -4.83151,-0.75632 -0.67254,0.30643 -1.2228,0.75446 -1.2228,0.99563 0,0.44196 4.85015,2.75955 6.68979,3.19664 1.81932,0.43226 3.8313,0.35584 5.74762,-0.2183 z"
   id="path2" /><path
   style="fill:#6d3800;fill-opacity:1;stroke-width:0.332455"
   d="m 240.21442,282.43013 c -8.87037,-0.78805 -13.42749,-2.42618 -14.1587,-5.08955 -0.59606,-2.17111 0.3221,-8.75782 1.2208,-8.75782 0.37136,0 2.06817,1.40237 3.7707,3.11639 4.0826,4.11016 4.2719,4.23654 7.1681,4.78579 3.95323,0.74972 22.50374,-0.61676 25.90202,-1.908 1.46957,-0.5584 2.71839,-0.96481 2.77515,-0.90314 0.13977,0.15187 0.35948,3.9242 0.27291,4.6858 -0.0894,0.78663 -3.15135,2.31028 -6.08285,3.0269 -2.44523,0.59774 -12.56227,1.60198 -15.04687,1.49359 -0.81764,-0.0357 -3.43721,-0.23815 -5.82126,-0.44996 z"
   id="path3" /></svg>
