<?xml version="1.0" encoding="UTF-8" standalone="no"?>
<!-- Generator: Adobe Illustrator 19.0.0, SVG Export Plug-In  -->

<svg
   version="1.1"
   x="0px"
   y="0px"
   width="150px"
   height="150px"
   viewBox="0 0 150 150"
   style="enable-background:new 0 0 150 150;"
   xml:space="preserve"
   id="svg5"
   sodipodi:docname="js.svg"
   inkscape:version="1.4 (e7c3feb1, 2024-10-09)"
   xmlns:inkscape="http://www.inkscape.org/namespaces/inkscape"
   xmlns:sodipodi="http://sodipodi.sourceforge.net/DTD/sodipodi-0.dtd"
   xmlns="http://www.w3.org/2000/svg"
   xmlns:svg="http://www.w3.org/2000/svg"><sodipodi:namedview
   id="namedview5"
   pagecolor="#ffffff"
   bordercolor="#000000"
   borderopacity="0.25"
   inkscape:showpageshadow="2"
   inkscape:pageopacity="0.0"
   inkscape:pagecheckerboard="0"
   inkscape:deskcolor="#d1d1d1"
   inkscape:zoom="6.7266667"
   inkscape:cx="77.081268"
   inkscape:cy="75"
   inkscape:window-width="2032"
   inkscape:window-height="1186"
   inkscape:window-x="484"
   inkscape:window-y="64"
   inkscape:window-maximized="0"
   inkscape:current-layer="g2" />
<style
   type="text/css"
   id="style1">
	.st0{fill:#FFFFFF;}
	.st1{fill:#D8D8D8;}
	.st2{clip-path:url(#XMLID_31_);}
	.st3{filter:url(#Adobe_OpacityMaskFilter);}
	.st4{clip-path:url(#XMLID_32_);fill:#FFFFFF;}
	.st5{clip-path:url(#XMLID_32_);mask:url(#mask-2_1_);}
	.st6{filter:url(#Adobe_OpacityMaskFilter_1_);}
	.st7{mask:url(#mask-4_1_);}
	.st8{fill:#F7DF1E;}
	.st9{clip-path:url(#XMLID_34_);}
	.st10{filter:url(#Adobe_OpacityMaskFilter_2_);}
	.st11{clip-path:url(#XMLID_35_);fill:#FFFFFF;}
	.st12{clip-path:url(#XMLID_35_);mask:url(#mask-2_6_);}
	.st13{filter:url(#Adobe_OpacityMaskFilter_3_);}
	.st14{mask:url(#mask-4_2_);}
</style>
<defs
   id="defs1">
<clipPath
   id="6584088893"><path
     d="M 1.851562,1.851562 H 110.12109 V 110.12109 H 1.851562 Z m 0,0"
     clip-rule="nonzero"
     id="path1" /></clipPath></defs>
<g
   clip-path="url(#6584088893)"
   id="g2"
   transform="matrix(1.3333334,0,0,1.3333334,0.5312505,0.4425231)"><path
     fill="#000000"
     d="m 110.05859,55.914062 c -0.53906,-0.578124 -1.17187,-1.078124 -1.59375,-1.757812 -0.33984,-0.542969 -0.66406,-1.097656 -1.08593,-1.582031 -0.53516,-0.644531 -1.42969,-0.992188 -2.25391,-0.828125 -0.44531,0.08594 -0.80078,0.394531 -1.04297,0.765625 -0.30859,-0.164063 -0.66015,-0.199219 -1.0039,-0.1875 -0.12891,-0.273438 -0.36719,-0.464844 -0.66797,-0.496094 -0.11328,-0.300781 -0.36328,-0.507813 -0.6836,-0.542969 -0.125,-0.21875 -0.27734,-0.480468 -0.55468,-0.5 -0.60938,-0.03125 -1.222661,-0.0078 -1.832036,0.01563 -0.925782,-7.914062 -4.097656,-15.535156 -9.035156,-21.785156 0.429687,-0.429687 0.851562,-0.863281 1.269531,-1.300781 0.203125,-0.1875 0.152343,-0.484375 0.125,-0.726563 0.222656,-0.246093 0.238281,-0.570312 0.128906,-0.871093 0.167969,-0.246094 0.195313,-0.539063 0.101563,-0.816407 0.242187,-0.226562 0.453124,-0.484375 0.5625,-0.800781 0.375,0.05859 0.773437,0.05859 1.113281,-0.121094 0.683593,-0.351562 1.09375,-1.105468 1.152343,-1.859375 0.03125,-0.742187 -0.152343,-1.46875 -0.324218,-2.1875 -0.199219,-0.789062 -0.144532,-1.609375 -0.132813,-2.414062 0.03906,-0.230469 -0.253906,-0.207031 -0.402343,-0.207031 -0.773438,0.03125 -1.5625,0.04297 -2.316407,-0.152344 -0.601562,-0.152344 -1.214843,-0.292969 -1.839843,-0.304688 -0.816407,-0.03516 -1.675782,0.375 -2.082032,1.101563 -0.203125,0.355469 -0.222656,0.785156 -0.140625,1.179687 -0.335937,0.09375 -0.609375,0.320313 -0.847656,0.574219 -0.277344,-0.09766 -0.574219,-0.07031 -0.800781,0.125 -0.300782,-0.113281 -0.625,-0.105469 -0.882813,0.09766 -0.269531,-0.06641 -0.59375,-0.140625 -0.808593,0.08594 -0.417969,0.414062 -0.824219,0.835937 -1.238282,1.25 -6.234375,-4.914063 -13.835937,-8.070313 -21.71875,-8.996094 -0.02734,-0.609375 0.05078,-1.222656 0.0039,-1.832031 C 61.199219,10.554688 60.9375,10.398438 60.707031,10.285156 60.699219,9.949219 60.46875,9.707031 60.167969,9.59375 60.15625,9.289062 59.957031,9.066406 59.691406,8.941406 59.699219,8.59375 59.667969,8.238281 59.503906,7.925781 59.84375,7.699219 60.140625,7.382812 60.242188,6.976562 60.433594,6.222656 60.167969,5.394531 59.644531,4.832031 59.085938,4.269531 58.382812,3.882812 57.722656,3.460938 57.109375,3.042969 56.640625,2.464844 56.105469,1.957031 56.027344,1.875 55.894531,1.9375 55.828125,2.007812 55.257812,2.566406 54.738281,3.195312 54.042969,3.605469 53.527344,3.914062 53.015625,4.234375 52.5625,4.625 51.902344,5.167969 51.542969,6.09375 51.734375,6.933594 51.824219,7.351562 52.128906,7.679688 52.46875,7.917969 52.332031,8.222656 52.296875,8.558594 52.300781,8.886719 52.03125,9.007812 51.839844,9.238281 51.808594,9.535156 51.5,9.652344 51.285156,9.914062 51.28125,10.253906 c -0.207031,0.132813 -0.4375,0.300782 -0.429688,0.574219 -0.03906,0.613281 -0.0039,1.222656 -0.01562,1.835937 -7.910157,0.917969 -15.53125,4.078126 -21.785157,9 C 28.62891,21.25 28.22266,20.820312 27.796879,20.410156 c -0.210937,-0.21875 -0.53125,-0.140625 -0.792969,-0.07813 -0.257812,-0.199219 -0.585937,-0.210937 -0.882812,-0.101562 -0.230469,-0.191407 -0.523438,-0.214844 -0.800782,-0.125 -0.242187,-0.25 -0.519531,-0.46875 -0.851562,-0.574219 0.21875,-0.800781 -0.261719,-1.644531 -0.992188,-1.992188 -0.949218,-0.527343 -2.070312,-0.214843 -3.058593,0.01563 -0.886719,0.25 -1.808594,0.136718 -2.714844,0.175781 -0.03125,0.816406 0.06641,1.648437 -0.113281,2.453125 -0.16016,0.679688 -0.339848,1.363282 -0.359379,2.066407 -0.03906,0.820312 0.367187,1.679688 1.085937,2.09375 0.355469,0.207031 0.78125,0.222656 1.175782,0.15625 0.113281,0.3125 0.320312,0.570312 0.5625,0.792969 -0.07813,0.28125 -0.07813,0.582031 0.109374,0.820312 -0.113281,0.296875 -0.105468,0.632813 0.128907,0.875 -0.03125,0.238281 -0.08594,0.527344 0.113281,0.71875 0.421875,0.4375 0.84375,0.878907 1.277344,1.304688 -4.933594,6.253906 -8.109375,13.875 -9.035156,21.789062 -0.613282,-0.02344 -1.226563,-0.05078 -1.839844,-0.01563 -0.28125,0.02734 -0.421875,0.289063 -0.546875,0.503906 -0.328125,0.02734 -0.566407,0.25 -0.691407,0.542969 -0.304687,0.02344 -0.53125,0.226563 -0.65625,0.492188 -0.347656,-0.01172 -0.703124,0.02344 -1.015624,0.191406 -0.1875,-0.292969 -0.4375,-0.5625 -0.769532,-0.6875 -0.710937,-0.277344 -1.53125,-0.06641 -2.125,0.371094 -0.679687,0.558593 -1.089844,1.355469 -1.558594,2.082031 -0.4375,0.664062 -1.097656,1.136719 -1.59375,1.75 0.558594,0.601562 1.214844,1.121094 1.660157,1.824219 0.390625,0.632812 0.769531,1.285156 1.300781,1.816406 0.554688,0.519531 1.371094,0.773437 2.117188,0.597656 0.414062,-0.09375 0.734374,-0.394531 0.972656,-0.726562 0.304687,0.136719 0.636718,0.171875 0.964844,0.179687 0.128906,0.261719 0.351562,0.457032 0.652343,0.476563 0.109375,0.3125 0.367188,0.523437 0.703125,0.535156 0.140625,0.164063 0.265625,0.386719 0.5,0.414063 0.636719,0.02734 1.277344,0.03906 1.917969,0.03125 0.921875,7.90625 4.074219,15.53125 9.003906,21.78125 -0.414062,0.421874 -0.84375,0.828124 -1.257812,1.25 -0.214844,0.214843 -0.144531,0.53125 -0.07422,0.792968 -0.203125,0.257813 -0.21875,0.585938 -0.101562,0.882813 -0.1875,0.234375 -0.222657,0.523437 -0.121094,0.804687 -0.253906,0.238282 -0.476563,0.515625 -0.582032,0.855469 -0.355468,-0.07422 -0.734374,-0.07422 -1.066406,0.08203 -0.664062,0.296875 -1.074218,0.996094 -1.191406,1.691406 -0.152344,1.214844 0.453125,2.351563 0.449219,3.554688 0.02734,0.40625 -0.01563,0.816406 -0.01172,1.222656 -0.0039,0.117188 0.06641,0.257813 0.203125,0.222656 0.8125,-0.0078 1.636719,-0.0625 2.433594,0.136719 0.679687,0.167969 1.375,0.335938 2.078125,0.328125 0.726562,-0.02734 1.457031,-0.378906 1.859375,-0.992187 0.253906,-0.371094 0.292969,-0.84375 0.214843,-1.277344 0.3125,-0.113281 0.574219,-0.320313 0.796876,-0.5625 0.28125,0.09375 0.574218,0.07031 0.820312,-0.101563 0.300781,0.117188 0.632812,0.08984 0.878906,-0.136718 0.238282,0.03906 0.527344,0.08594 0.714844,-0.109375 0.4375,-0.425781 0.875,-0.847657 1.304688,-1.28125 6.265624,4.949219 13.910156,8.128906 21.84375,9.042969 0.0078,0.605468 -0.02344,1.214838 0.01172,1.820308 -0.0078,0.28125 0.230469,0.45313 0.433594,0.60156 -0.0039,0.33985 0.230469,0.58203 0.527344,0.71485 0.03906,0.29297 0.222656,0.51953 0.488281,0.64453 0,0.32812 0.03906,0.66015 0.171875,0.96484 -0.292969,0.21094 -0.570312,0.47266 -0.683594,0.82813 -0.257812,0.75 -0.01172,1.61328 0.503906,2.19922 0.496094,0.52734 1.125,0.90625 1.742188,1.27734 0.632812,0.38281 1.148438,0.92969 1.652344,1.46484 0.105468,0.13282 0.261718,0.17578 0.417968,0.20703 0.589844,-0.60937 1.164063,-1.26171 1.90625,-1.69921 0.527344,-0.3125 1.050782,-0.64844 1.507813,-1.06641 0.613281,-0.55078 0.929687,-1.44922 0.726563,-2.25781 -0.09766,-0.41016 -0.394532,-0.73438 -0.742188,-0.95703 0.164062,-0.3125 0.203125,-0.66797 0.195312,-1.01563 0.257813,-0.13281 0.46875,-0.35156 0.472657,-0.66016 0.304687,-0.10156 0.527343,-0.34765 0.542969,-0.67968 0.226562,-0.12891 0.5,-0.28125 0.519531,-0.57422 0.03516,-0.60547 -0.03516,-1.210936 -0.0078,-1.820311 7.90625,-0.925781 15.527344,-4.097656 21.773438,-9.035156 0.441406,0.441406 0.882812,0.882812 1.339844,1.304687 0.1875,0.175782 0.457031,0.113282 0.683593,0.08984 0.246094,0.226562 0.574219,0.242188 0.878907,0.132812 0.242187,0.171876 0.53125,0.191407 0.808593,0.105469 0.230469,0.234375 0.488281,0.449219 0.808594,0.558594 -0.06641,0.363281 -0.0625,0.753906 0.109375,1.089844 0.355469,0.722656 1.15625,1.148437 1.941406,1.179687 0.714844,0.0078 1.414063,-0.15625 2.101563,-0.328125 0.785156,-0.195312 1.601562,-0.148437 2.402343,-0.132812 0.128907,0.01953 0.25,-0.09375 0.230469,-0.222657 -0.01563,-0.8125 -0.0625,-1.640624 0.136719,-2.433593 0.175781,-0.710938 0.351562,-1.4375 0.320312,-2.171875 -0.06641,-0.746094 -0.472656,-1.5 -1.15625,-1.84375 -0.347656,-0.179688 -0.75,-0.183594 -1.125,-0.109375 C 92.375,87.207031 92.15625,86.929688 91.90625,86.691406 c 0.08594,-0.28125 0.06641,-0.578125 -0.132812,-0.804687 0.125,-0.296875 0.109374,-0.625 -0.09766,-0.878907 0.0625,-0.246093 0.148438,-0.546874 -0.04687,-0.757812 -0.414062,-0.441406 -0.859375,-0.855469 -1.28125,-1.289062 4.925782,-6.25 8.082032,-13.875 9,-21.777344 0.628906,0.0039 1.261722,-0.0078 1.890622,-0.03125 0.25,-0.01172 0.38672,-0.242188 0.52735,-0.414063 0.33593,-0.01953 0.58984,-0.238281 0.71093,-0.542969 0.29688,-0.01953 0.51563,-0.214843 0.64063,-0.472656 0.33203,-0.0078 0.66797,-0.04687 0.97656,-0.179687 0.23438,0.328125 0.54297,0.625 0.94531,0.722656 0.8086,0.199219 1.69922,-0.109375 2.25782,-0.71875 0.40234,-0.445313 0.73437,-0.945313 1.03515,-1.460937 0.38672,-0.664063 0.9375,-1.210938 1.4961,-1.726563 0.125,-0.121094 0.29296,-0.246094 0.23046,-0.445313 z M 29.292969,36.746094 c 0.152343,0.132812 0.285156,0.296875 0.476562,0.375 0.195313,0.05469 0.398438,-0.0078 0.59375,-0.04297 0.25,0.132813 0.53125,0.125 0.792969,0.02344 0.199219,0.121094 0.429688,0.15625 0.660156,0.144532 0.472656,0.496094 0.859375,1.070312 1.167969,1.679687 0.324219,0.609375 0.546875,1.269531 0.949219,1.835938 0.230468,0.339843 0.597656,0.605469 1.019531,0.621093 0.261719,0.01953 0.519531,-0.05078 0.777344,-0.07031 0.179687,0.07031 0.355469,0.160156 0.550781,0.175781 0.05078,0.03906 0.09766,0.07813 0.148438,0.113281 -0.105469,0.171876 -0.257813,0.339844 -0.25,0.550782 -0.03906,0.503906 0.53125,0.972656 1.015624,0.78125 0.07813,0.0039 0.210938,-0.105469 0.25,0.01563 -0.05859,0.4375 -0.183593,0.925781 0.05078,1.335937 0.3125,0.546875 0.925781,0.792969 1.460937,1.058594 0.953125,0.429688 1.90625,0.917969 2.640625,1.6875 -0.01953,0.242188 0.03906,0.480469 0.171875,0.683594 -0.05469,0.238281 -0.15625,0.535156 0.03906,0.738281 0.289062,0.328125 0.617187,0.621094 0.921875,0.933594 -0.304688,0.636719 -0.582031,1.28125 -0.804688,1.953125 -0.417969,-0.01953 -0.839843,-0.05078 -1.261719,-0.01172 -0.277343,0.01953 -0.410156,0.285156 -0.535156,0.496094 -0.253906,0.04297 -0.464844,0.183593 -0.625,0.382812 -0.785156,-0.0078 -1.570312,-0.152343 -2.316406,-0.414062 -0.652344,-0.210938 -1.28125,-0.507813 -1.964844,-0.605469 -0.417968,-0.07031 -0.863281,0.07813 -1.160156,0.386719 -0.183594,0.191406 -0.320312,0.421875 -0.476562,0.636719 -0.128907,-0.214844 -0.222657,-0.492188 -0.484376,-0.578126 -0.292968,-0.109374 -0.679687,-0.08984 -0.90625,0.148438 -0.175781,0.167969 -0.183593,0.425781 -0.25,0.644531 -0.21875,-0.125 -0.421874,-0.273437 -0.675781,-0.3125 -0.210937,-0.335937 -0.449219,-0.695312 -0.835937,-0.839843 -0.628906,-0.253907 -1.292969,0.04297 -1.894532,0.238281 C 27.613281,51.875 26.648438,52.160156 25.648438,52.210938 25.5,52.027344 25.308594,51.878906 25.074219,51.828125 c -0.105469,-0.257813 -0.289063,-0.46875 -0.566407,-0.535156 -0.125,-0.148438 -0.238281,-0.339844 -0.4375,-0.398438 -0.195312,-0.04687 -0.398437,-0.03516 -0.59375,-0.04297 0.792969,-5.074218 2.8125,-9.945312 5.816407,-14.105467 z m 6.980469,33.804687 c -0.269532,-0.01953 -0.488282,0.230469 -0.757813,0.140625 -0.320313,-0.05859 -0.667969,-0.09375 -0.96875,0.05469 -0.53125,0.242187 -0.808594,0.789062 -1.050781,1.285156 -0.441406,0.976562 -0.910156,1.964844 -1.667969,2.742188 -0.230469,-0.01563 -0.460937,0.02344 -0.65625,0.144531 C 30.910156,74.8125 30.625,74.804688 30.375,74.9375 30.191406,74.921875 30,74.871094 29.828125,74.953125 29.636719,75.050781 29.5,75.214844 29.34375,75.355469 26.332031,71.207031 24.296875,66.347656 23.488281,61.28125 c 0.191407,-0.01563 0.390625,-0.0039 0.574219,-0.06641 0.199219,-0.08984 0.300781,-0.296875 0.417969,-0.46875 0.277343,-0.07031 0.46875,-0.285156 0.570312,-0.542969 0.234375,-0.04297 0.421875,-0.183594 0.570313,-0.363281 0.847656,0.01563 1.675781,0.21875 2.464844,0.519531 0.65625,0.21875 1.316406,0.542969 2.023437,0.488281 0.53125,-0.05469 0.914063,-0.484375 1.152344,-0.925781 0.1875,-0.02734 0.371093,-0.08203 0.492187,-0.238281 0.07031,-0.01172 0.136719,-0.02344 0.207032,-0.03125 0.05078,0.203125 0.07031,0.4375 0.226562,0.59375 0.234375,0.242187 0.625,0.269531 0.925781,0.152344 0.246094,-0.09766 0.34375,-0.359376 0.472657,-0.566407 0.253906,0.332031 0.472656,0.734375 0.878906,0.910157 0.527344,0.242187 1.121094,0.05078 1.644531,-0.121094 1.070313,-0.378906 2.167969,-0.832032 3.324219,-0.761719 0.195312,0.148437 0.382812,0.3125 0.640625,0.339844 0.113281,0.207031 0.242187,0.46875 0.503906,0.496093 0.449219,0.03125 0.898437,0 1.347656,0.01172 0.234375,0.65625 0.492188,1.304688 0.804688,1.929688 -0.304688,0.316406 -0.644531,0.597656 -0.914063,0.945312 -0.152344,0.207031 -0.06641,0.46875 0,0.695313 -0.15625,0.203125 -0.171875,0.453125 -0.214844,0.699218 -0.664062,0.742188 -1.570312,1.214844 -2.464843,1.625 -0.589844,0.292969 -1.277344,0.539063 -1.632813,1.128907 -0.246094,0.414062 -0.125,0.898437 -0.0625,1.34375 -0.0625,0.136719 -0.234375,-0.0039 -0.339844,0.0078 -0.40625,-0.117187 -0.816406,0.234375 -0.910156,0.613281 -0.07031,0.28125 0.08984,0.53125 0.238282,0.753907 -0.03906,0.02344 -0.117188,0.07813 -0.15625,0.101562 z m 16.074218,9.703125 c -0.1875,0.09766 -0.222656,0.292969 -0.238281,0.480469 -0.4375,0.25 -0.878906,0.617187 -0.941406,1.148437 -0.0625,0.703126 0.253906,1.359376 0.476562,2.007813 0.300781,0.800781 0.507813,1.640625 0.542969,2.5 -0.191406,0.140625 -0.328125,0.332031 -0.375,0.566406 -0.273438,0.101563 -0.476562,0.304688 -0.542969,0.589844 -0.164062,0.09375 -0.355469,0.175781 -0.445312,0.351563 -0.09766,0.195312 -0.07031,0.417968 -0.08594,0.628906 -5.042969,-0.804688 -9.875,-2.820313 -14.015625,-5.808594 0.136719,-0.15625 0.304688,-0.292969 0.378906,-0.488281 0.04297,-0.195313 -0.01172,-0.386719 -0.04687,-0.578125 0.125,-0.25 0.132812,-0.527344 0.03516,-0.789063 0.109375,-0.207031 0.144531,-0.433593 0.136718,-0.664062 0.636719,-0.625 1.417969,-1.066407 2.222657,-1.4375 0.578125,-0.289063 1.238281,-0.507813 1.65625,-1.027344 0.292969,-0.351563 0.289062,-0.835937 0.207031,-1.261719 -0.08203,-0.261718 0.152344,-0.476562 0.152344,-0.734375 0.02734,-0.03906 0.07813,-0.113281 0.105468,-0.152343 0.175782,0.101562 0.34375,0.253906 0.5625,0.25 0.34375,0.02344 0.648438,-0.234376 0.78125,-0.535157 0.101563,-0.25 -0.01953,-0.507812 -0.04687,-0.761719 0.53125,0.136719 1.167968,0.222657 1.617187,-0.167968 0.539063,-0.496094 0.769531,-1.21875 1.089844,-1.855469 0.363281,-0.769531 0.820312,-1.503906 1.433593,-2.097656 0.246094,0.01953 0.488282,-0.04297 0.695313,-0.183594 0.238281,0.06641 0.539063,0.15625 0.742187,-0.04297 0.320313,-0.289062 0.609376,-0.609375 0.925782,-0.910156 0.625,0.308594 1.273437,0.582031 1.941406,0.800781 0.0039,0.445313 -0.01953,0.894531 0.0078,1.34375 0.01172,0.269531 0.289063,0.390625 0.488282,0.519531 0.04297,0.242188 0.171875,0.453126 0.371094,0.601563 0.0078,0.9375 -0.238282,1.855469 -0.5625,2.726563 -0.21875,0.648437 -0.542969,1.3125 -0.433594,2.011718 0.09766,0.539063 0.582031,0.855469 1.007812,1.136719 C 51.992188,78.542969 51.75,78.625 51.640625,78.84375 c -0.15625,0.316406 -0.125,0.757812 0.148437,1.003906 0.152344,0.140625 0.371094,0.148438 0.5625,0.1875 -0.0039,0.07031 -0.0039,0.144532 -0.0039,0.21875 z m -0.589844,-48.03125 c -0.242187,0.226563 -0.257812,0.609375 -0.148437,0.90625 0.101563,0.246094 0.363281,0.351563 0.578125,0.480469 -0.34375,0.25 -0.753906,0.476563 -0.925781,0.890625 -0.230469,0.523438 -0.04297,1.101562 0.121093,1.613281 0.382813,1.078125 0.84375,2.1875 0.777344,3.355469 C 52,39.652344 51.84375,39.847656 51.808594,40.097656 c -0.199219,0.117188 -0.464844,0.230469 -0.488282,0.492188 -0.02734,0.453125 0,0.910156 -0.0078,1.363281 -0.667969,0.21875 -1.308594,0.492187 -1.9375,0.792969 -0.320312,-0.300782 -0.597656,-0.644532 -0.949219,-0.910156 -0.207031,-0.152344 -0.46875,-0.05469 -0.6875,0.0039 -0.203125,-0.148438 -0.445312,-0.199219 -0.695312,-0.1875 -0.53125,-0.519532 -0.964844,-1.136719 -1.296875,-1.800782 -0.304688,-0.566406 -0.523438,-1.179687 -0.867188,-1.726562 -0.214844,-0.335938 -0.523437,-0.648438 -0.929687,-0.71875 -0.351563,-0.09375 -0.707031,0.02734 -1.054688,0.07031 -0.01563,-0.253906 0.125,-0.511718 0.01172,-0.757812 -0.136719,-0.292969 -0.429688,-0.535156 -0.765625,-0.527344 -0.21875,0.0078 -0.390625,0.152344 -0.5625,0.261719 -0.03906,-0.05078 -0.07813,-0.09766 -0.113281,-0.148437 0.01172,-0.269532 -0.238282,-0.488282 -0.148438,-0.757813 0.05859,-0.367187 0.08984,-0.773437 -0.113281,-1.105469 -0.296875,-0.496094 -0.851563,-0.738281 -1.351563,-0.984375 -0.9375,-0.421875 -1.871093,-0.890625 -2.621093,-1.609375 0.02734,-0.226562 -0.01953,-0.449218 -0.121094,-0.652344 0.08203,-0.261718 0.09766,-0.539062 -0.03125,-0.785156 0.0078,-0.1875 0.05859,-0.386718 -0.01953,-0.5625 -0.105469,-0.179687 -0.261719,-0.320312 -0.398438,-0.476562 4.152344,-3.015625 9.007813,-5.054688 14.074219,-5.863282 0.01563,0.207032 -0.0039,0.425782 0.08203,0.617188 0.09375,0.179688 0.285156,0.265625 0.449219,0.363281 0.07031,0.28125 0.277344,0.488281 0.546875,0.585938 0.03906,0.238281 0.179688,0.429687 0.375,0.566406 -0.03516,0.902344 -0.265625,1.78125 -0.585938,2.621094 -0.207031,0.605469 -0.492187,1.222656 -0.4375,1.875 0.06641,0.53125 0.488282,0.910156 0.929688,1.15625 0.03906,0.25 0.1875,0.457031 0.304688,0.675781 -0.21875,0.0625 -0.476563,0.07422 -0.640626,0.253906 z m 3.96875,65.449219 c 0.05469,0.02734 0.113282,0.04687 0.175782,0.05469 -0.0625,-0.0078 -0.121094,-0.02734 -0.175782,-0.05469 z M 59.65625,31.785156 c 0.160156,-0.121094 0.210938,-0.308594 0.234375,-0.496094 0.410156,-0.21875 0.796875,-0.542968 0.910156,-1.011718 C 60.914062,29.6875 60.691406,29.105469 60.5,28.558594 60.148438,27.632812 59.824219,26.671875 59.824219,25.667969 59.996094,25.515625 60.128906,25.328125 60.179688,25.101562 60.433594,25 60.644531,24.8125 60.71875,24.535156 c 0.144531,-0.125 0.339844,-0.234375 0.394531,-0.4375 0.03125,-0.199218 0.02734,-0.402344 0.04297,-0.601562 5.101562,0.796875 10,2.839844 14.171875,5.878906 -0.1875,0.214844 -0.476563,0.421875 -0.433594,0.746094 0.04297,0.363281 -0.179687,0.722656 0,1.078125 -0.125,0.195312 -0.160156,0.421875 -0.140625,0.648437 -0.6875,0.660156 -1.53125,1.121094 -2.390625,1.503906 -0.542969,0.261719 -1.144531,0.5 -1.515625,0.996094 -0.253906,0.347656 -0.273437,0.796875 -0.175781,1.199219 0.08203,0.265625 -0.164063,0.484375 -0.140625,0.75 -0.02734,0.03906 -0.08203,0.121094 -0.109375,0.160156 -0.203125,-0.128906 -0.417969,-0.300781 -0.675781,-0.257812 -0.421875,0.05859 -0.8125,0.503906 -0.683594,0.941406 0,0.105469 0.08984,0.238281 0,0.332031 -0.410156,-0.06641 -0.84375,-0.183594 -1.242188,0 -0.550781,0.25 -0.824218,0.828125 -1.078124,1.339844 -0.46875,1.007812 -0.941407,2.066406 -1.792969,2.8125 -0.242188,0.04297 -0.496094,0.0625 -0.699219,0.21875 -0.226562,-0.07031 -0.492188,-0.160156 -0.699219,-0.0039 -0.339843,0.273437 -0.621093,0.609375 -0.9375,0.910156 -0.628906,-0.304688 -1.269531,-0.578125 -1.933593,-0.796875 -0.01172,-0.449219 0.02734,-0.898437 -0.01953,-1.339844 -0.04687,-0.25 -0.296875,-0.351562 -0.492187,-0.460937 -0.02344,-0.25 -0.160157,-0.457032 -0.335938,-0.621094 -0.04297,-0.953125 0.210938,-1.882812 0.542969,-2.761719 0.222656,-0.660156 0.546875,-1.335937 0.429688,-2.046875 -0.109376,-0.527344 -0.589844,-0.828125 -0.996094,-1.113281 0.207031,-0.125 0.46875,-0.230469 0.570312,-0.472656 0.117188,-0.300781 0.08594,-0.695313 -0.15625,-0.929688 -0.160156,-0.15625 -0.394531,-0.171875 -0.597656,-0.226562 0.01172,-0.06641 0.01953,-0.132813 0.03125,-0.195313 z m 1.5,56.757813 C 61.140625,88.332031 61.148438,88.125 61.105469,87.921875 61.042969,87.730469 60.859375,87.625 60.714844,87.5 c -0.07031,-0.277344 -0.273438,-0.464844 -0.535156,-0.5625 -0.05078,-0.226562 -0.183594,-0.414062 -0.355469,-0.570312 0.0039,-0.960938 0.296875,-1.886719 0.632812,-2.777344 0.203125,-0.585938 0.472657,-1.207032 0.339844,-1.839844 -0.113281,-0.480469 -0.527344,-0.792969 -0.929687,-1.023438 -0.0078,-0.117187 -0.01563,-0.230468 -0.02344,-0.34375 -0.05078,-0.01953 -0.152344,-0.06641 -0.199219,-0.08984 -0.0039,-0.08594 -0.0078,-0.171875 -0.0078,-0.257813 0.203125,-0.04297 0.441406,-0.05078 0.59375,-0.214844 0.25,-0.261718 0.273437,-0.6875 0.109375,-0.996093 -0.113282,-0.203125 -0.347656,-0.28125 -0.535156,-0.398438 0.398437,-0.277343 0.867187,-0.5625 0.988281,-1.070312 0.144531,-0.65625 -0.144531,-1.296875 -0.351563,-1.902344 -0.359375,-0.941406 -0.652344,-1.929687 -0.613281,-2.949219 0.183594,-0.167968 0.324219,-0.375 0.339844,-0.628906 0.199219,-0.101562 0.460937,-0.207031 0.496093,-0.460938 0.03906,-0.441406 0.0078,-0.886718 0.01563,-1.332031 0.667968,-0.21875 1.3125,-0.496093 1.945312,-0.800781 0.324219,0.3125 0.617188,0.652344 0.960938,0.941406 0.203124,0.167969 0.480468,0.0625 0.710937,0.01563 0.195313,0.136719 0.429687,0.199219 0.675781,0.167969 0.847656,0.800781 1.347656,1.875 1.824219,2.917969 0.269531,0.5625 0.632813,1.21875 1.3125,1.316406 0.339844,0.09375 0.683594,-0.105469 1.015625,-0.04687 -0.02734,0.230469 -0.148438,0.46875 -0.05078,0.699219 0.128906,0.296875 0.421875,0.558593 0.761719,0.542969 0.222656,0.0078 0.402343,-0.140626 0.585937,-0.25 0.03906,0.05078 0.07813,0.105468 0.121094,0.160156 -0.02344,0.195312 0.05469,0.363281 0.175781,0.511718 -0.109375,0.445313 -0.179688,0.953126 0.08594,1.363282 0.363281,0.558594 1.027343,0.796875 1.597656,1.078125 0.820312,0.382812 1.652344,0.796875 2.296875,1.445312 0.105469,0.222657 0.06641,0.5 0.207031,0.714844 -0.101562,0.265625 -0.101562,0.542969 0.02344,0.796875 -0.03125,0.1875 -0.09375,0.378906 -0.04688,0.566406 0.07422,0.203125 0.25,0.339844 0.386719,0.496094 -4.167969,3.003906 -9.035156,5.03125 -14.113281,5.824219 z m 21.488281,-13.1875 c -0.144531,-0.128907 -0.277343,-0.269531 -0.4375,-0.375 -0.179687,-0.121094 -0.398437,-0.05859 -0.597656,-0.04297 -0.253906,-0.136719 -0.535156,-0.125 -0.796875,-0.01953 -0.195312,-0.128907 -0.429688,-0.15625 -0.65625,-0.144531 -0.621094,-0.664063 -1.082031,-1.457032 -1.449219,-2.285157 -0.28125,-0.574219 -0.511719,-1.230469 -1.046875,-1.625 C 77.246094,70.5625 76.714844,70.621094 76.25,70.738281 76.09375,70.621094 75.917969,70.535156 75.71875,70.5625 c -0.03906,-0.02734 -0.121094,-0.08594 -0.160156,-0.117188 0.113281,-0.179687 0.265625,-0.363281 0.25,-0.589843 0.01953,-0.3125 -0.207032,-0.582031 -0.464844,-0.726563 -0.253906,-0.144531 -0.539062,-0.02734 -0.800781,0.02734 0.05078,-0.433594 0.191406,-0.890625 0,-1.308594 -0.273438,-0.601562 -0.917969,-0.871094 -1.472657,-1.144531 -0.964843,-0.441406 -1.964843,-0.921875 -2.683593,-1.726563 -0.03906,-0.242187 -0.06641,-0.492187 -0.203125,-0.703124 0.04687,-0.234376 0.140625,-0.503907 -0.02344,-0.714844 -0.269531,-0.335938 -0.605468,-0.609375 -0.894531,-0.925782 0.304687,-0.625 0.574219,-1.265624 0.792969,-1.925781 0.445312,-0.01172 0.890625,0.01563 1.335937,-0.01172 0.273438,-0.01953 0.402344,-0.289062 0.523438,-0.496093 0.25,-0.03125 0.457031,-0.179688 0.625,-0.363281 0.808593,0.0039 1.605469,0.167968 2.367187,0.4375 0.742188,0.234374 1.480469,0.640624 2.285156,0.570312 0.570313,-0.07031 0.910157,-0.574219 1.203126,-1.015625 0.140624,0.21875 0.253906,0.507813 0.527343,0.589844 0.289063,0.0625 0.648438,0.07031 0.871094,-0.160157 0.164063,-0.15625 0.171875,-0.394531 0.214844,-0.601562 0.07031,0.0039 0.140625,0.01172 0.214843,0.01953 0.117188,0.160157 0.300782,0.21875 0.492188,0.242188 0.242188,0.40625 0.574219,0.824219 1.070312,0.914062 0.636719,0.101563 1.25,-0.175781 1.839844,-0.375 0.878906,-0.339843 1.796875,-0.601562 2.746094,-0.621093 0.136719,0.1875 0.328125,0.328124 0.566406,0.359374 0.08984,0.273438 0.296875,0.476563 0.574219,0.554688 0.113281,0.167969 0.210937,0.367188 0.402344,0.460938 0.1875,0.07031 0.390625,0.05078 0.585937,0.07031 -0.8125,5.066406 -2.839844,9.925781 -5.859375,14.070312 z m 5.265625,-24.457031 c -0.199218,0.05469 -0.308594,0.25 -0.433594,0.394531 -0.277343,0.06641 -0.460937,0.285156 -0.566406,0.539062 -0.234375,0.04687 -0.421875,0.195313 -0.570312,0.378907 -0.9375,-0.05078 -1.847656,-0.296876 -2.71875,-0.636719 -0.570313,-0.195313 -1.15625,-0.453125 -1.765625,-0.386719 -0.535157,0.07031 -0.894531,0.511719 -1.148438,0.945312 -0.1875,0.01563 -0.382812,0.05469 -0.480469,0.238282 -0.07422,0 -0.148437,0.0039 -0.21875,0.0039 -0.03906,-0.191406 -0.04687,-0.40625 -0.183593,-0.558594 -0.210938,-0.257812 -0.589844,-0.289062 -0.894531,-0.203125 -0.28125,0.08203 -0.402344,0.371094 -0.53125,0.601563 -0.277344,-0.453125 -0.628907,-0.945313 -1.195313,-1.023438 -0.730469,-0.08203 -1.414063,0.273438 -2.09375,0.496094 -0.839844,0.3125 -1.726563,0.519531 -2.625,0.519531 -0.160156,-0.199219 -0.371094,-0.34375 -0.628906,-0.375 -0.109375,-0.199219 -0.222657,-0.449219 -0.472657,-0.492187 -0.429687,-0.06641 -0.871093,0 -1.308593,-0.0078 -0.257813,-0.652343 -0.492188,-1.316406 -0.820313,-1.9375 0.300782,-0.3125 0.625,-0.601562 0.914063,-0.925781 0.207031,-0.199219 0.09766,-0.5 0.05469,-0.742188 0.144532,-0.214843 0.144532,-0.480468 0.210938,-0.714843 0.746094,-0.824219 1.78125,-1.289063 2.773437,-1.75 0.507813,-0.253907 1.09375,-0.519531 1.332031,-1.074219 0.195313,-0.421875 0.05078,-0.878906 -0.0039,-1.3125 0.347656,0.125 0.785156,0.167969 1.046875,-0.148438 0.335938,-0.304687 0.261719,-0.820312 -0.01953,-1.132812 0.03516,-0.02734 0.113281,-0.07813 0.152344,-0.101562 0.1875,-0.02344 0.359375,-0.105469 0.535156,-0.175782 0.394531,0.03125 0.816406,0.152344 1.191406,-0.02734 0.578125,-0.257812 0.84375,-0.875 1.109375,-1.410156 0.425781,-0.9375 0.886719,-1.890625 1.628907,-2.632812 0.230468,0.01172 0.457031,-0.02734 0.664062,-0.136719 0.257812,0.09766 0.535156,0.09375 0.789062,-0.03125 0.1875,0.03516 0.382813,0.08984 0.574219,0.05078 0.199219,-0.07422 0.332031,-0.25 0.488281,-0.386718 3.007813,4.164062 5.019532,9.035156 5.820313,14.109374 -0.203125,0.0078 -0.410156,-0.0039 -0.605469,0.04688 z m 0,0"
     fill-opacity="1"
     fill-rule="nonzero"
     id="path2" /><path
     style="fill:#ffd42a;stroke-width:0.0997365"
     d="m 74.236492,146.27362 c -0.520359,-0.50399 -1.458247,-1.24553 -2.084196,-1.64786 -0.625948,-0.40234 -1.407789,-1.02411 -1.73742,-1.38172 -1.028511,-1.1158 -1.164962,-2.59796 -0.322228,-3.50011 0.679806,-0.72774 0.428679,-1.71028 -0.74268,-2.90575 -0.163048,-0.1664 -0.29645,-0.36279 -0.29645,-0.4364 0,-0.0736 -0.143206,-0.28629 -0.318235,-0.4726 -0.273795,-0.29144 -0.320505,-0.52706 -0.334489,-1.68725 -0.01475,-1.2232 -0.04388,-1.35392 -0.313579,-1.40678 -0.163529,-0.032 -1.033201,-0.16836 -1.932607,-0.30293 -8.966908,-1.34158 -18.53188,-5.36533 -25.67259,-10.79982 -0.628845,-0.47859 -1.199572,-0.87016 -1.268282,-0.87016 -0.06871,0 -0.515972,0.39517 -0.993918,0.87815 -0.924964,0.93472 -1.257572,1.04801 -3.659528,1.24644 -0.206409,0.0171 -0.566645,0.18153 -0.800525,0.3655 -0.233878,0.18397 -0.48311,0.33449 -0.553847,0.33449 -0.07074,0 -0.128614,0.29115 -0.128614,0.64699 0,0.83013 -0.469353,1.54071 -1.332358,2.01714 -0.78357,0.43257 -1.909332,0.46128 -3.500023,0.0893 -0.571874,-0.13374 -1.725473,-0.28286 -2.563555,-0.33139 l -1.523786,-0.0882 v -1.29486 c 0,-0.73191 -0.136239,-1.96285 -0.313371,-2.83135 -0.368579,-1.80718 -0.318841,-2.54654 0.234867,-3.49137 0.471554,-0.80465 1.453638,-1.34654 2.177872,-1.20169 0.258256,0.0516 0.427886,0.0225 0.427886,-0.0736 0,-0.0875 0.150417,-0.37019 0.33426,-0.6281 0.183841,-0.25792 0.348313,-0.63618 0.365493,-0.84059 0.01718,-0.20441 0.06764,-0.6727 0.112144,-1.04064 0.0445,-0.36794 0.08212,-0.8694 0.08361,-1.11437 0.0021,-0.34803 0.216785,-0.66113 0.982032,-1.43229 l 0.979334,-0.98689 -0.889401,-1.1693 C 22.860043,102.30048 18.810135,92.377378 17.542086,82.69326 L 17.43989,81.912785 h -1.375299 c -1.186499,0 -1.412237,-0.04082 -1.644373,-0.297325 -0.147991,-0.163528 -0.354198,-0.297324 -0.458237,-0.297324 -0.104039,0 -0.320717,-0.167244 -0.481506,-0.371655 -0.160789,-0.20441 -0.35597,-0.371655 -0.433736,-0.371655 -0.07777,0 -0.254548,-0.125038 -0.392852,-0.277861 -0.138443,-0.152978 -0.554396,-0.319383 -0.925483,-0.370246 -0.599946,-0.08223 -0.735965,-0.04261 -1.237634,0.360546 -0.453771,0.364659 -0.7068596,0.454039 -1.2986444,0.458624 C 7.7847175,80.75679 7.0450815,80.208267 5.6539025,78.121902 5.217743,77.46779 4.4863385,76.535744 4.0285595,76.050691 3.5707804,75.565638 3.1962339,75.128516 3.1962339,75.079309 c 0,-0.04921 0.3735187,-0.45512 0.8300415,-0.902029 0.4565229,-0.446909 1.2663533,-1.470765 1.7996232,-2.275235 0.692908,-1.045294 1.15931,-1.582994 1.6344697,-1.884332 1.1879554,-0.753379 2.4193683,-0.721473 3.1744267,0.08225 0.309102,0.329025 0.425331,0.35838 1.076785,0.271961 0.69572,-0.09229 0.853767,-0.188228 1.821894,-1.10594 0.166404,-0.157739 0.372161,-0.286797 0.457238,-0.286797 0.08508,0 0.311804,-0.167245 0.503837,-0.371655 0.320763,-0.341437 0.454768,-0.371655 1.648129,-0.371655 h 1.298978 l 0.09614,-0.631814 c 0.85034,-5.588395 1.804826,-9.245179 3.599022,-13.788404 1.941806,-4.916996 4.596731,-9.619982 7.95374,-14.089403 l 0.477318,-0.635488 -0.949529,-0.958046 c -0.61987,-0.625429 -0.966681,-1.101573 -0.998929,-1.371449 -0.2696,-2.256238 -0.39967,-2.814308 -0.754675,-3.237983 -0.370734,-0.442443 -0.450681,-0.474022 -1.277264,-0.504514 -0.582585,-0.02149 -1.639552,-1.087921 -1.857937,-1.874569 -0.227914,-0.820971 -0.207095,-1.272216 0.133048,-2.883819 0.173505,-0.822069 0.294995,-1.970029 0.294995,-2.787413 v -1.389724 l 1.375124,0.0035 c 0.844042,0.0022 2.018554,-0.12524 3.041149,-0.329875 1.460135,-0.292192 1.754087,-0.310376 2.378593,-0.147151 1.315842,0.34392 2.124856,1.240089 2.124856,2.353767 0,0.355848 0.06177,0.646995 0.137255,0.646995 0.07549,0 0.328671,0.161065 0.562624,0.357924 0.233951,0.196856 0.590298,0.363264 0.791881,0.369795 0.201584,0.0065 0.634107,0.04594 0.961164,0.08757 0.327056,0.04163 0.878812,0.09442 1.226123,0.117314 0.551222,0.03633 0.74978,0.158872 1.562353,0.964223 l 0.930879,0.922604 1.931204,-1.406671 c 7.580089,-5.52127 17.115752,-9.312624 26.534773,-10.550155 l 0.668979,-0.08789 0.01229,-1.334942 c 0.01063,-1.154784 0.05577,-1.381227 0.33449,-1.677907 0.177209,-0.18863 0.322198,-0.394881 0.322198,-0.458334 0,-0.06345 0.291592,-0.46053 0.647981,-0.882391 0.850773,-1.007068 1.025311,-1.952114 0.458818,-2.484306 -0.4627,-0.434684 -0.728239,-1.2959212 -0.603905,-1.9586781 0.184342,-0.982628 0.870736,-1.8057016 2.268498,-2.7202211 0.724249,-0.4738561 1.764609,-1.296869 2.311915,-1.8289175 l 0.995099,-0.9673608 0.967344,0.9049029 c 0.532039,0.4976965 1.455651,1.2180912 2.052472,1.600877 1.947906,1.2493382 2.646079,2.1510732 2.646079,3.4175782 0,0.7386137 -0.240422,1.3273774 -0.718834,1.7603344 -0.242496,0.219455 -0.275346,0.347971 -0.163882,0.641141 0.07667,0.201667 0.139406,0.531657 0.139406,0.733311 0,0.201654 0.0978,0.404172 0.217334,0.450042 0.119534,0.04587 0.262339,0.225198 0.317345,0.398508 0.05501,0.173311 0.258247,0.439578 0.451646,0.591705 0.193399,0.152127 0.351633,0.335596 0.351633,0.407709 0,0.07211 0.167245,0.29836 0.371655,0.50277 0.338135,0.338134 0.371656,0.485628 0.371656,1.635304 v 1.263648 l 0.483151,0.07896 c 0.265734,0.04343 1.352825,0.220957 2.415758,0.394504 8.435923,1.377353 17.177771,5.073761 24.337641,10.290949 l 1.79904,1.310903 0.98081,-0.973299 c 0.78541,-0.779391 1.06955,-0.971073 1.42621,-0.962123 0.24497,0.0061 0.77988,-0.03233 1.18871,-0.0855 0.40882,-0.05317 0.8771,-0.111305 1.04063,-0.129189 0.16353,-0.01788 0.54736,-0.19823 0.85297,-0.400769 0.45343,-0.300516 0.55598,-0.458215 0.55748,-0.857328 0.003,-0.767197 0.51523,-1.606369 1.24009,-2.031167 0.88807,-0.520446 1.73432,-0.602934 3.07295,-0.299534 0.61323,0.138987 1.88429,0.295112 2.82458,0.346943 l 1.70961,0.09424 0.0949,1.48662 c 0.0522,0.817641 0.20273,1.942332 0.33449,2.499314 0.49011,2.071913 0.22682,3.636832 -0.73981,4.397181 -0.47399,0.37284 -1.28071,0.614096 -1.69296,0.506292 -0.16551,-0.04328 -0.30092,-0.0091 -0.30092,0.0759 0,0.08503 -0.16392,0.3494 -0.36426,0.587494 -0.20035,0.238095 -0.36596,0.560993 -0.36803,0.717552 -0.007,0.538326 -0.14211,1.623651 -0.28233,2.26998 -0.1059,0.488151 -0.34575,0.854844 -0.9752,1.490932 -0.45912,0.463958 -0.83476,0.904354 -0.83476,0.978658 0,0.0743 0.28835,0.507202 0.64076,0.961992 2.02327,2.610976 3.87761,5.618487 5.66107,9.181555 2.65574,5.305713 4.43625,10.877514 5.35873,16.769224 l 0.32587,2.081269 1.36579,0.04275 c 1.26424,0.03957 1.38362,0.06996 1.60564,0.40882 0.13193,0.201341 0.30696,0.366073 0.38897,0.366073 0.12961,0 0.70524,0.435092 1.45198,1.097478 0.12265,0.108791 0.53578,0.238893 0.91808,0.289114 0.62457,0.08205 0.74168,0.04779 1.15425,-0.337607 0.88804,-0.829554 2.29703,-0.719083 3.45344,0.270765 0.33972,0.290786 0.97234,1.078481 1.40582,1.750435 0.43348,0.671954 1.18475,1.643676 1.66948,2.159383 l 0.88132,0.93765 -0.93313,0.989169 c -0.51322,0.544042 -1.24884,1.481121 -1.6347,2.082397 -0.38587,0.601275 -0.87861,1.283323 -1.09498,1.515663 -1.04882,1.1262 -2.70273,1.367918 -3.65269,0.533841 -0.47522,-0.417253 -0.57844,-0.447155 -1.21432,-0.351797 -0.38223,0.05732 -0.8031,0.196768 -0.93526,0.309889 -0.13217,0.11312 -0.46003,0.405224 -0.72858,0.649121 -0.26855,0.243896 -0.58299,0.443448 -0.69876,0.443448 -0.11576,0 -0.2758,0.117072 -0.35564,0.260159 -0.11788,0.211256 -0.41885,0.274131 -1.60112,0.33449 l -1.45595,0.07433 -0.18852,1.412289 c -1.19094,8.921596 -4.88574,18.016583 -10.50041,25.847503 l -1.31825,1.83858 0.88896,0.91166 0.88896,0.91167 0.18595,1.63528 c 0.15211,1.33778 0.25015,1.71174 0.53888,2.05551 0.19412,0.23113 0.35294,0.48327 0.35294,0.56032 0,0.077 0.16369,0.099 0.36376,0.0488 0.80523,-0.2021 1.83043,0.45888 2.36952,1.5277 0.30322,0.6012 0.30933,2.05098 0.0137,3.24078 -0.12192,0.49059 -0.26419,1.60155 -0.31615,2.4688 l -0.0945,1.57681 -1.50264,0.0973 c -0.82645,0.0535 -1.77023,0.16317 -2.09729,0.24369 -1.43046,0.35215 -2.46002,0.42627 -3.21187,0.23124 -1.1869,-0.30787 -2.06563,-1.34814 -2.06563,-2.44534 0,-0.34614 -0.11756,-0.51172 -0.55748,-0.78525 -0.30662,-0.19063 -0.69128,-0.36 -0.85481,-0.37637 -2.54783,-0.25499 -2.62626,-0.28231 -3.58184,-1.24797 -0.47779,-0.48283 -0.93002,-0.87787 -1.00494,-0.87787 -0.0749,0 -0.71255,0.42536 -1.41694,0.94525 -7.52138,5.55129 -16.471124,9.32451 -25.377818,10.69931 l -2.216081,0.34207 -0.07433,1.38493 c -0.06588,1.22739 -0.11238,1.41014 -0.408821,1.60658 -0.183969,0.12191 -0.33449,0.30899 -0.33449,0.41572 0,0.10674 -0.167244,0.32563 -0.371655,0.48642 -0.20441,0.16079 -0.371655,0.35597 -0.371655,0.43373 0,0.0778 -0.133796,0.26248 -0.297324,0.41047 -0.163528,0.14799 -0.302026,0.44267 -0.307773,0.65485 -0.0057,0.21218 -0.06368,0.51958 -0.128734,0.68311 -0.09018,0.22666 6.29e-4,0.42991 0.382103,0.85523 0.427793,0.47697 0.50039,0.66639 0.50039,1.30557 0,0.83897 -0.298669,1.6744 -0.787571,2.20297 -0.180067,0.19468 -0.929475,0.75941 -1.665352,1.25495 -0.735878,0.49555 -1.748436,1.29375 -2.250128,1.77378 l -0.912171,0.87278 z m 9.906223,-28.09834 c 5.404936,-1.05077 12.026075,-3.88931 16.173235,-6.9336 l 0.7165,-0.52596 -0.29172,-0.31574 c -0.22321,-0.24158 -0.29424,-0.53844 -0.30247,-1.26397 -0.0182,-1.60755 -0.12173,-1.89339 -0.888291,-2.45288 -0.379341,-0.27686 -1.425589,-0.87229 -2.324994,-1.32316 -2.11279,-1.05914 -2.373174,-1.33461 -2.396147,-2.53493 -0.0097,-0.50447 -0.09025,-1.09756 -0.179093,-1.318 -0.158695,-0.39373 -0.169766,-0.39668 -0.628823,-0.16767 -0.436586,0.2178 -0.493185,0.21385 -0.861541,-0.0601 -0.289338,-0.21516 -0.406006,-0.44883 -0.438404,-0.87806 l -0.04415,-0.584877 -0.87266,0.0051 c -1.141976,0.0067 -1.400031,-0.239456 -2.477783,-2.363218 -0.459293,-0.905059 -1.090347,-1.988596 -1.402342,-2.407857 -0.582415,-0.782651 -0.971389,-0.968025 -1.987744,-0.947298 -0.326147,0.0066 -0.613791,-0.165874 -1.138916,-0.683104 l -0.702565,-0.691999 -1.351173,0.560051 -1.351172,0.560053 v 0.93434 c 0,0.788701 -0.05214,0.977024 -0.334489,1.208179 -0.183969,0.15061 -0.459421,0.496858 -0.612115,0.769441 -0.382402,0.682642 -0.238109,1.834436 0.510271,4.073189 0.321748,0.96249 0.584995,1.95256 0.584995,2.20015 0,0.60492 -0.318617,1.18061 -0.883599,1.59649 l -0.466592,0.34347 0.468144,0.43731 c 0.383529,0.35827 0.450339,0.51115 0.369635,0.84583 -0.111839,0.4638 -0.458135,0.78018 -0.85396,0.78018 -0.147901,0 -0.26891,0.0303 -0.26891,0.0673 0,0.29252 0.470877,1.00118 0.999364,1.504 0.818926,0.77916 0.824969,1.1617 0.056,3.54448 -0.909371,2.81784 -0.920976,3.61813 -0.06293,4.34014 0.517432,0.43541 1.088837,1.32765 1.088837,1.70022 0,0.31411 0.06163,0.39844 0.260158,0.35598 0.143087,-0.0306 0.996036,-0.1987 1.895441,-0.37355 z m -15.832507,-0.0447 c 0,-0.21175 0.252859,-0.61962 0.631813,-1.01913 1.216335,-1.28234 1.276943,-1.41564 1.130504,-2.48642 -0.07158,-0.52343 -0.369687,-1.6454 -0.662452,-2.49328 -0.292764,-0.84788 -0.536958,-1.84978 -0.542653,-2.22643 -0.0092,-0.60935 0.05373,-0.74564 0.571024,-1.23645 0.91696,-0.87001 1.245983,-1.63222 0.704579,-1.63222 -0.385957,0 -0.792419,-0.45171 -0.789905,-0.87785 0.0027,-0.45272 0.102226,-0.61944 0.554068,-0.92791 l 0.333352,-0.22758 -0.587016,-0.47173 c -1.012098,-0.81335 -1.036474,-1.36171 -0.17157,-3.85982 0.259089,-0.748338 0.531212,-1.839563 0.604715,-2.424948 0.12219,-0.973129 0.105944,-1.103864 -0.189595,-1.525605 -0.17778,-0.253697 -0.440308,-0.548974 -0.583395,-0.656169 -0.202554,-0.151745 -0.260159,-0.415754 -0.260159,-1.192323 V 93.875313 L 67.7005,93.303469 66.347482,92.731624 65.638955,93.429499 c -0.556416,0.548049 -0.800532,0.689963 -1.137072,0.661024 -1.336317,-0.114912 -1.961811,0.492326 -3.421821,3.321947 -1.17611,2.2794 -1.474217,2.547761 -2.702717,2.433036 l -0.790148,-0.07379 0.0939,0.427524 c 0.195121,0.88838 -0.611387,1.52822 -1.407419,1.11658 -0.415347,-0.21479 -0.427559,-0.20967 -0.586293,0.24568 -0.08916,0.25576 -0.162112,0.85129 -0.162112,1.32338 0,1.12337 -0.304577,1.42952 -2.538789,2.55195 -0.933944,0.46919 -1.985602,1.10472 -2.337016,1.41229 l -0.638939,0.5592 -0.07856,1.41229 c -0.05516,0.99175 -0.148683,1.49003 -0.314065,1.67336 -0.129531,0.14359 -0.208047,0.28153 -0.17448,0.30653 4.183568,3.11609 9.977316,5.77531 15.374685,7.0567 2.601087,0.61753 2.463868,0.58975 3.008943,0.6092 0.414303,0.0148 0.483152,-0.0331 0.483152,-0.3358 z M 40.148445,100.66314 c 0.225537,-0.17741 0.611519,-0.28319 1.064083,-0.29161 1.395204,-0.026 1.792559,-0.16233 2.341403,-0.803527 0.284462,-0.33233 0.890325,-1.35431 1.346364,-2.271065 1.050956,-2.112701 1.453641,-2.521622 2.495507,-2.534165 0.827009,-0.01 1.737003,-0.180989 1.737003,-0.326469 0,-0.04902 -0.07984,-0.309931 -0.177429,-0.5798 -0.160121,-0.442806 -0.143091,-0.52722 0.174576,-0.86536 0.239378,-0.254808 0.510191,-0.374693 0.846407,-0.374693 h 0.494404 v -0.806234 c 0,-1.130544 0.379475,-1.524055 2.524069,-2.617434 2.627656,-1.33966 3.373421,-2.118368 3.282957,-3.427972 -0.01856,-0.268684 0.170016,-0.601992 0.624779,-1.104294 l 0.651364,-0.719453 -0.526421,-1.311464 -0.52642,-1.311464 h -0.999796 c -0.842244,0 -1.033732,-0.04845 -1.21514,-0.307445 -0.118439,-0.169095 -0.463809,-0.440615 -0.767489,-0.603377 -0.736329,-0.394649 -1.685888,-0.280182 -3.980249,0.479811 -0.962493,0.318821 -2.027602,0.579673 -2.366909,0.579673 -0.537021,0 -0.699874,-0.08657 -1.257369,-0.668405 l -0.640445,-0.668405 -0.244286,0.372828 c -0.457559,0.698322 -1.405485,0.608982 -1.69786,-0.160022 -0.07583,-0.199439 -0.223145,-0.362366 -0.327373,-0.36206 -0.278499,8.16e-4 -1.15581,0.564599 -1.15581,0.742754 0,0.27035 -0.949423,0.742181 -1.494577,0.742754 -0.29055,3.07e-4 -1.227121,-0.235199 -2.081269,-0.523346 -2.089101,-0.704758 -3.488493,-0.92479 -3.842731,-0.604209 -0.143511,0.129877 -0.303886,0.236139 -0.356389,0.236139 -0.0525,0 -0.421269,0.33449 -0.819483,0.74331 -0.507064,0.52057 -0.84136,0.743311 -1.115582,0.743311 -0.45263,0 -0.460255,-0.13612 0.149144,2.66232 1.136124,5.21724 3.238629,10.144235 6.333822,14.842635 0.498245,0.756318 0.966049,1.375128 1.039565,1.375128 0.07352,0 0.292927,-0.12528 0.48758,-0.27839 z m 71.689375,-1.218525 c 2.88908,-4.327729 5.14847,-9.639644 6.28725,-14.781583 0.5369,-2.424273 0.54181,-2.601585 0.072,-2.601585 -0.20785,0 -0.48482,-0.157584 -0.65321,-0.371656 -0.16079,-0.20441 -0.36254,-0.371655 -0.44834,-0.371655 -0.0858,0 -0.25512,-0.141501 -0.37625,-0.314445 -0.12114,-0.172946 -0.43601,-0.445658 -0.69971,-0.606025 -0.4349,-0.264476 -0.57067,-0.275745 -1.46063,-0.12123 -0.53965,0.09369 -1.66787,0.399852 -2.50718,0.680356 -2.06332,0.689583 -2.59642,0.678699 -3.30626,-0.06749 -0.92849,-0.976051 -1.53755,-1.167074 -1.6969,-0.532206 -0.10504,0.418521 -0.70663,0.722788 -1.15052,0.581901 -0.15491,-0.04917 -0.38944,-0.253902 -0.52119,-0.45497 l -0.23953,-0.365576 -0.64598,0.674176 c -0.56455,0.589204 -0.72428,0.674176 -1.26726,0.674176 -0.34171,0 -1.42993,-0.261832 -2.41826,-0.581848 -0.988335,-0.320017 -2.172551,-0.627632 -2.631592,-0.683587 -0.737423,-0.08989 -0.904488,-0.05763 -1.434552,0.276981 -0.329963,0.208297 -0.62887,0.465738 -0.66424,0.572091 -0.04157,0.125013 -0.443842,0.219646 -1.137945,0.267701 l -1.073637,0.07433 -0.532096,1.3121 -0.532094,1.312101 0.635029,0.647047 c 0.526991,0.536965 0.640899,0.756345 0.669535,1.289485 0.07464,1.389509 0.503831,1.803101 3.455392,3.329774 2.128702,1.101055 2.4852,1.507094 2.366762,2.695676 l -0.07717,0.774487 0.432888,-0.08658 c 0.88298,-0.176596 1.46041,0.634174 1.02761,1.442871 -0.12993,0.242765 -0.0787,0.314769 0.35153,0.494551 0.29837,0.124665 0.76928,0.181292 1.15554,0.138951 1.05705,-0.115874 1.53272,0.316087 2.53752,2.304344 0.46472,0.919584 1.08655,2.001092 1.38184,2.403353 0.57814,0.787589 0.75198,0.851779 2.57336,0.950279 0.49199,0.0266 0.87999,0.13624 1.03665,0.2929 0.13771,0.1377 0.31906,0.22842 0.40302,0.20159 0.084,-0.0268 0.57382,-0.67969 1.08858,-1.450782 z M 43.613346,69.521148 c 0.314951,-0.377633 0.891511,-0.296874 1.344791,0.188364 l 0.404484,0.433 0.417058,-0.522684 c 0.229382,-0.287475 0.636117,-0.614212 0.903854,-0.726079 0.54215,-0.226525 1.069927,-0.127865 3.160115,0.590734 0.595376,0.204689 1.585166,0.442075 2.199536,0.527526 1.050609,0.146126 1.145326,0.135507 1.592774,-0.17857 0.261655,-0.183664 0.563444,-0.451006 0.670638,-0.594093 0.152887,-0.204078 0.41741,-0.260159 1.227105,-0.260159 0.651333,0 1.032206,-0.06032 1.032206,-0.163463 0,-0.0899 0.234939,-0.705602 0.522087,-1.368218 l 0.522088,-1.204759 -0.67075,-0.68099 c -0.42718,-0.4337 -0.671344,-0.814094 -0.672386,-1.047538 -0.0052,-1.166844 -0.169242,-1.498483 -1.068659,-2.160597 -0.482538,-0.355224 -1.581908,-0.996907 -2.443045,-1.425962 -1.96559,-0.979343 -2.284479,-1.329874 -2.284479,-2.511168 v -0.876849 l -0.436131,0.08723 c -0.340798,0.06816 -0.519527,0.0038 -0.817642,-0.294283 -0.38902,-0.38902 -0.50053,-0.898566 -0.232848,-1.064004 0.575257,-0.355528 -0.346465,-0.827708 -1.513323,-0.775244 -1.017627,0.04575 -1.387556,-0.302447 -2.426221,-2.283715 -1.641831,-3.131817 -1.813705,-3.281505 -3.824487,-3.330801 -0.700113,-0.01716 -1.082487,-0.09924 -1.275333,-0.273769 -0.151483,-0.13709 -0.313064,-0.249255 -0.359069,-0.249255 -0.125282,0 -2.051419,3.003092 -2.925989,4.561987 -2.244878,4.001434 -4.02176,9.108978 -4.838943,13.909271 -0.09392,0.551686 -0.08975,0.557483 0.400632,0.557483 0.383663,0 0.6699,0.159422 1.26786,0.706145 0.424778,0.388379 0.87256,0.791249 0.995071,0.895265 0.299619,0.254387 1.808198,0.01444 3.498811,-0.556499 2.54288,-0.858763 3.056563,-0.853727 3.799216,0.03724 0.219504,0.263342 0.608467,0.591201 0.864362,0.728577 0.454055,0.243758 0.468844,0.241593 0.613925,-0.08985 0.08176,-0.186795 0.240476,-0.449715 0.352692,-0.584264 z m 64.271344,0.61017 c 0.17801,-0.102205 0.49175,-0.378894 0.69718,-0.614862 0.45605,-0.523826 1.18369,-0.846669 1.66477,-0.73863 0.19686,0.04421 1.06035,0.305175 1.91887,0.579927 0.85852,0.274753 1.98507,0.573599 2.50343,0.664102 l 0.94248,0.164551 1.08918,-0.900934 c 0.71163,-0.58864 1.22231,-0.900933 1.47327,-0.900933 0.49558,0 0.49648,-0.228595 0.01,-2.479322 -1.19987,-5.549649 -3.3361,-10.58975 -6.51033,-15.360123 -0.40804,-0.613231 -0.76488,-1.142429 -0.79296,-1.175997 -0.0281,-0.03357 -0.18842,0.06327 -0.3563,0.2152 -0.22743,0.205821 -0.55922,0.281285 -1.3017,0.296061 -2.05097,0.04082 -2.29095,0.246276 -3.89007,3.33041 -1.05946,2.043316 -1.36136,2.323657 -2.45824,2.282683 -1.14071,-0.04261 -2.05186,0.323068 -1.56095,0.626469 0.0818,0.05053 0.14866,0.320531 0.14866,0.599994 0,0.650984 -0.51338,1.035082 -1.18601,0.887348 l -0.454786,-0.09989 0.08578,0.792894 c 0.132976,1.229139 -0.131222,1.524502 -2.420025,2.705463 -2.829621,1.46001 -3.436859,2.085504 -3.321947,3.421821 0.02895,0.336672 -0.113148,0.580832 -0.662842,1.138916 l -0.699691,0.710375 0.560051,1.351173 0.560053,1.351171 h 0.926927 c 0.676823,0 0.98139,0.06562 1.128776,0.243213 0.111017,0.133766 0.459182,0.405658 0.7737,0.604205 0.545339,0.344257 0.621263,0.353371 1.637465,0.196564 0.586087,-0.09044 1.736909,-0.39578 2.557379,-0.678538 0.90883,-0.313209 1.77616,-0.514106 2.21954,-0.514106 0.6705,0 0.77652,0.05234 1.34701,0.664955 l 0.61924,0.664956 0.1989,-0.371643 c 0.38148,-0.712805 1.52572,-0.611767 1.71732,0.151641 0.10452,0.416432 0.3468,0.471752 0.83601,0.190884 z m -40.116039,-13.193756 1.282787,-0.520317 10e-4,-0.980428 c 8.55e-4,-0.806734 0.05641,-1.030539 0.313583,-1.263277 0.93182,-0.843285 0.947553,-2.169298 0.05628,-4.743411 -0.324234,-0.936432 -0.566385,-1.9172 -0.566626,-2.294956 -3.77e-4,-0.595463 0.06623,-0.72001 0.684257,-1.27955 l 0.684675,-0.619876 -0.436906,-0.323018 c -0.291627,-0.21561 -0.436904,-0.453584 -0.436904,-0.715683 0,-0.431591 0.375577,-0.936392 0.696685,-0.936392 0.551267,0 0.260297,-0.935825 -0.469443,-1.509839 -0.918509,-0.722499 -0.950828,-1.513436 -0.148901,-3.64396 0.528548,-1.404225 0.868593,-3.415824 0.625864,-3.702429 -0.101138,-0.119421 -0.535102,-0.600588 -0.964363,-1.069262 -0.548645,-0.599017 -0.780476,-0.974464 -0.780476,-1.263973 0,-0.349115 -0.05094,-0.400981 -0.33449,-0.34053 -0.183969,0.03922 -0.735877,0.14543 -1.226462,0.236017 -5.296104,0.977942 -10.930675,3.289508 -15.813263,6.487341 l -1.690367,1.107101 0.30964,0.329597 c 0.234036,0.249121 0.328872,0.593496 0.388401,1.410385 0.04332,0.594433 0.119875,1.2446 0.170126,1.44482 0.121544,0.484267 1.113273,1.183481 3.143067,2.216001 1.996411,1.015539 2.262936,1.300846 2.283231,2.444151 0.02707,1.525033 0.184574,1.724162 1.128925,1.427298 0.240404,-0.07557 0.427745,-8.69e-4 0.712883,0.284269 0.317099,0.317099 0.370103,0.475692 0.294204,0.880271 l -0.09258,0.493488 0.866315,-0.06201 c 1.194498,-0.08549 1.492971,0.185269 2.567806,2.329429 1.427574,2.847832 2.13661,3.546862 3.50168,3.452265 0.35401,-0.02453 0.582985,0.108831 1.110284,0.646668 0.365363,0.372666 0.707488,0.660149 0.760277,0.63885 0.05279,-0.0213 0.673232,-0.272869 1.378764,-0.559043 z m 16.932904,-0.08073 c 0.534363,-0.480439 0.862494,-0.666405 1.136808,-0.644279 1.285469,0.103683 2.092594,-0.671263 3.428751,-3.292048 1.11423,-2.185491 1.517839,-2.5687 2.632198,-2.499156 l 0.791876,0.04942 -2.03e-4,-0.546693 c -1.55e-4,-0.417633 0.09499,-0.621572 0.403042,-0.863884 0.231707,-0.182263 0.516285,-0.281712 0.668979,-0.233783 0.146154,0.04587 0.392884,0.122921 0.548288,0.171216 0.226271,0.07032 0.306159,-0.01112 0.401071,-0.408821 0.06519,-0.273146 0.09952,-0.809092 0.07631,-1.190992 -0.0372,-0.611993 0.01662,-0.756411 0.453736,-1.217376 0.27924,-0.294477 1.230672,-0.895163 2.177407,-1.374703 0.924804,-0.46843 1.955287,-1.094691 2.289964,-1.391691 0.606288,-0.538039 0.608748,-0.544552 0.676958,-1.796145 0.0535,-0.982511 0.13291,-1.326614 0.36436,-1.579631 0.16542,-0.180833 0.24756,-0.401707 0.18628,-0.500863 -0.19732,-0.319264 -3.507066,-2.397763 -5.349478,-3.359432 -4.123341,-2.152227 -8.191945,-3.522434 -13.117631,-4.417703 -0.453899,-0.0825 -0.483151,-0.0618 -0.483151,0.341827 0,0.422085 -0.09566,0.563536 -1.238022,1.830651 -0.558477,0.619465 -0.567271,0.647398 -0.473681,1.504451 0.05245,0.480297 0.358691,1.672361 0.68054,2.649031 0.321847,0.976669 0.585176,1.975153 0.585176,2.218852 0,0.556447 -0.357677,1.262575 -0.744362,1.469523 -0.162417,0.08692 -0.431348,0.424714 -0.597628,0.75065 -0.261568,0.512716 -0.271654,0.602235 -0.07482,0.664007 0.125132,0.03927 0.328861,0.103135 0.452736,0.141921 0.602527,0.188662 0.547679,1.37934 -0.07899,1.714721 -0.302655,0.161976 -0.289505,0.190829 0.364541,0.799905 0.867666,0.808007 0.877213,1.160698 0.09667,3.571305 -0.95934,2.962799 -0.937542,4.04284 0.0987,4.889989 0.281496,0.230131 0.334489,0.419455 0.334489,1.194986 v 0.921534 l 1.226462,0.536665 c 0.674554,0.295166 1.250081,0.5446 1.27895,0.554297 0.02887,0.0097 0.390523,-0.286289 0.803676,-0.657749 z"
     id="path3"
     transform="matrix(0.74999996,0,0,0.74999996,-0.39843786,-0.33189231)" /></g>
</svg>
