<?xml version="1.0" encoding="UTF-8" standalone="no"?>
<!-- Generator: Adobe Illustrator 19.0.0, SVG Export Plug-In  -->

<svg
   version="1.1"
   x="0px"
   y="0px"
   width="150px"
   height="150px"
   viewBox="0 0 150 150"
   style="enable-background:new 0 0 150 150;"
   xml:space="preserve"
   id="svg5"
   sodipodi:docname="js.svg"
   inkscape:version="1.4 (e7c3feb1, 2024-10-09)"
   xmlns:inkscape="http://www.inkscape.org/namespaces/inkscape"
   xmlns:sodipodi="http://sodipodi.sourceforge.net/DTD/sodipodi-0.dtd"
   xmlns:xlink="http://www.w3.org/1999/xlink"
   xmlns="http://www.w3.org/2000/svg"
   xmlns:svg="http://www.w3.org/2000/svg"><sodipodi:namedview
   id="namedview5"
   pagecolor="#ffffff"
   bordercolor="#000000"
   borderopacity="0.25"
   inkscape:showpageshadow="2"
   inkscape:pageopacity="0.0"
   inkscape:pagecheckerboard="0"
   inkscape:deskcolor="#d1d1d1"
   inkscape:zoom="6.7266667"
   inkscape:cx="75.074331"
   inkscape:cy="75"
   inkscape:window-width="2032"
   inkscape:window-height="1186"
   inkscape:window-x="484"
   inkscape:window-y="92"
   inkscape:window-maximized="0"
   inkscape:current-layer="svg5" />
<style
   type="text/css"
   id="style1">
	.st0{fill:#FFFFFF;}
	.st1{fill:#D8D8D8;}
	.st2{clip-path:url(#XMLID_31_);}
	.st3{filter:url(#Adobe_OpacityMaskFilter);}
	.st4{clip-path:url(#XMLID_32_);fill:#FFFFFF;}
	.st5{clip-path:url(#XMLID_32_);mask:url(#mask-2_1_);}
	.st6{filter:url(#Adobe_OpacityMaskFilter_1_);}
	.st7{mask:url(#mask-4_1_);}
	.st8{fill:#F7DF1E;}
	.st9{clip-path:url(#XMLID_34_);}
	.st10{filter:url(#Adobe_OpacityMaskFilter_2_);}
	.st11{clip-path:url(#XMLID_35_);fill:#FFFFFF;}
	.st12{clip-path:url(#XMLID_35_);mask:url(#mask-2_6_);}
	.st13{filter:url(#Adobe_OpacityMaskFilter_3_);}
	.st14{mask:url(#mask-4_2_);}
</style>
<defs
   id="defs1">
<clipPath
   id="6584088893"><path
     d="M 1.851562,1.851562 H 110.12109 V 110.12109 H 1.851562 Z m 0,0"
     clip-rule="nonzero"
     id="path1" /></clipPath></defs>
<g
   id="Page-1_1_">
	<g
   id="_x31_024_1_">
		<g
   id="js-circle_1_">
			<g
   id="Page-1_2_">
				<g
   id="Artboard-1_1_">
				</g>
				<g
   id="Group-_x2B_-Group-2-Mask_1_">
					<g
   id="mask-2_2_">
						<circle
   id="path-1_5_"
   class="st0"
   cx="75.1"
   cy="75.1"
   r="74.9" />
					</g>
					<g
   id="Mask_1_">
						<circle
   id="path-1_4_"
   class="st1"
   cx="75.1"
   cy="75.1"
   r="74.9" />
					</g>
					<g
   id="Group-Clipped_1_">
						<g
   id="path-1_3_">
						</g>
						<g
   id="XMLID_25_">
							<defs
   id="defs2">
								<polygon
   id="XMLID_27_"
   points="0.4,0.4 0.6,0.4 0.4,0.6         " />
							</defs>
							<defs
   id="defs3">
								<polygon
   id="XMLID_26_"
   points="0.1,0.1 0,0.1 0.1,0         " />
							</defs>
							<clipPath
   id="XMLID_31_">
								<use
   xlink:href="#XMLID_27_"
   style="overflow:visible;"
   id="use3" />
							</clipPath>
							<clipPath
   id="XMLID_32_"
   class="st2"
   clip-path="url(#XMLID_31_)">
								<use
   xlink:href="#XMLID_26_"
   style="overflow:visible;"
   id="use4" />
							</clipPath>
							<defs
   id="defs4">
								<filter
   id="Adobe_OpacityMaskFilter"
   filterUnits="userSpaceOnUse">
									<feColorMatrix
   type="matrix"
   values="1 0 0 0 0  0 1 0 0 0  0 0 1 0 0  0 0 0 1 0"
   id="feColorMatrix4" />
								</filter>
							</defs>
							<mask
   maskUnits="userSpaceOnUse"
   id="mask-2_1_">
								<g
   id="XMLID_29_"
   class="st3">
									<circle
   id="path-1_2_"
   class="st4"
   cx="75.1"
   cy="75.1"
   r="74.9"
   clip-path="url(#XMLID_32_)" />
								</g>
							</mask>
							<g
   id="Group_1_"
   class="st5"
   mask="url(#mask-2_1_)"
   clip-path="url(#XMLID_32_)">
								<g
   id="XMLID_30_"
   transform="translate(257.000000, 330.000000)">
								</g>
							</g>
						</g>
					</g>
					<g
   id="Group-2-Clipped_1_">
						<g
   id="path-1_1_">
						</g>
						<defs
   id="defs5">
							<filter
   id="Adobe_OpacityMaskFilter_1_"
   filterUnits="userSpaceOnUse"
   x="0.3"
   y="0.3"
   width="149.7"
   height="149.7">
								<feColorMatrix
   type="matrix"
   values="1 0 0 0 0  0 1 0 0 0  0 0 1 0 0  0 0 0 1 0"
   id="feColorMatrix5" />
							</filter>
						</defs>
						<mask
   maskUnits="userSpaceOnUse"
   x="0.3"
   y="0.3"
   width="149.7"
   height="149.7"
   id="mask-4_1_">
							<g
   id="XMLID_21_"
   class="st6">
								<circle
   id="path-3_1_"
   class="st0"
   cx="75.1"
   cy="75.1"
   r="74.9" />
							</g>
						</mask>
						<g
   id="Group-2_1_"
   class="st7"
   mask="url(#mask-4_1_)">
							<path
   id="XMLID_24_"
   class="st8"
   d="M142.9,113.3" />
							<path
   id="XMLID_23_"
   class="st8"
   d="M136,127.7c1-0.7,2-1.5,2.8-2.5" />
							<path
   id="XMLID_22_"
   class="st8"
   d="M148.3,95.8c0.1-0.9,0.7-1.7,1.7-1.8V0.3H0.3V150h84.8c0.1-0.1,0.2-0.1,0.4-0.2         c3.5-1,7.2-1.5,10.7-2.2c1.8-0.3,3.5-0.9,5.3-1.2c1.7-0.4,3.4-0.5,5.2-0.7c2.7-0.2,5.5-0.3,8-1.4c1.4-0.6,2.7-1.6,4-2.4         c1.4-0.9,2.8-1.8,4.1-2.7c1.2-0.8,2.5-1.6,3.6-2.6c1.1-1,2.1-2.1,3-3.2" />
							
							
						</g>
					</g>
				</g>
			</g>
		</g>
	</g>
</g><g
   clip-path="url(#6584088893)"
   id="g2"
   transform="matrix(1.3333334,0,0,1.3333334,0.5312505,0.4425231)"><path
     fill="#000000"
     d="m 110.05859,55.914062 c -0.53906,-0.578124 -1.17187,-1.078124 -1.59375,-1.757812 -0.33984,-0.542969 -0.66406,-1.097656 -1.08593,-1.582031 -0.53516,-0.644531 -1.42969,-0.992188 -2.25391,-0.828125 -0.44531,0.08594 -0.80078,0.394531 -1.04297,0.765625 -0.30859,-0.164063 -0.66015,-0.199219 -1.0039,-0.1875 -0.12891,-0.273438 -0.36719,-0.464844 -0.66797,-0.496094 -0.11328,-0.300781 -0.36328,-0.507813 -0.6836,-0.542969 -0.125,-0.21875 -0.27734,-0.480468 -0.55468,-0.5 -0.60938,-0.03125 -1.222661,-0.0078 -1.832036,0.01563 -0.925782,-7.914062 -4.097656,-15.535156 -9.035156,-21.785156 0.429687,-0.429687 0.851562,-0.863281 1.269531,-1.300781 0.203125,-0.1875 0.152343,-0.484375 0.125,-0.726563 0.222656,-0.246093 0.238281,-0.570312 0.128906,-0.871093 0.167969,-0.246094 0.195313,-0.539063 0.101563,-0.816407 0.242187,-0.226562 0.453124,-0.484375 0.5625,-0.800781 0.375,0.05859 0.773437,0.05859 1.113281,-0.121094 0.683593,-0.351562 1.09375,-1.105468 1.152343,-1.859375 0.03125,-0.742187 -0.152343,-1.46875 -0.324218,-2.1875 -0.199219,-0.789062 -0.144532,-1.609375 -0.132813,-2.414062 0.03906,-0.230469 -0.253906,-0.207031 -0.402343,-0.207031 -0.773438,0.03125 -1.5625,0.04297 -2.316407,-0.152344 -0.601562,-0.152344 -1.214843,-0.292969 -1.839843,-0.304688 -0.816407,-0.03516 -1.675782,0.375 -2.082032,1.101563 -0.203125,0.355469 -0.222656,0.785156 -0.140625,1.179687 -0.335937,0.09375 -0.609375,0.320313 -0.847656,0.574219 -0.277344,-0.09766 -0.574219,-0.07031 -0.800781,0.125 -0.300782,-0.113281 -0.625,-0.105469 -0.882813,0.09766 -0.269531,-0.06641 -0.59375,-0.140625 -0.808593,0.08594 -0.417969,0.414062 -0.824219,0.835937 -1.238282,1.25 -6.234375,-4.914063 -13.835937,-8.070313 -21.71875,-8.996094 -0.02734,-0.609375 0.05078,-1.222656 0.0039,-1.832031 C 61.199219,10.554688 60.9375,10.398438 60.707031,10.285156 60.699219,9.949219 60.46875,9.707031 60.167969,9.59375 60.15625,9.289062 59.957031,9.066406 59.691406,8.941406 59.699219,8.59375 59.667969,8.238281 59.503906,7.925781 59.84375,7.699219 60.140625,7.382812 60.242188,6.976562 60.433594,6.222656 60.167969,5.394531 59.644531,4.832031 59.085938,4.269531 58.382812,3.882812 57.722656,3.460938 57.109375,3.042969 56.640625,2.464844 56.105469,1.957031 56.027344,1.875 55.894531,1.9375 55.828125,2.007812 55.257812,2.566406 54.738281,3.195312 54.042969,3.605469 53.527344,3.914062 53.015625,4.234375 52.5625,4.625 51.902344,5.167969 51.542969,6.09375 51.734375,6.933594 51.824219,7.351562 52.128906,7.679688 52.46875,7.917969 52.332031,8.222656 52.296875,8.558594 52.300781,8.886719 52.03125,9.007812 51.839844,9.238281 51.808594,9.535156 51.5,9.652344 51.285156,9.914062 51.28125,10.253906 c -0.207031,0.132813 -0.4375,0.300782 -0.429688,0.574219 -0.03906,0.613281 -0.0039,1.222656 -0.01562,1.835937 -7.910157,0.917969 -15.53125,4.078126 -21.785157,9 C 28.62891,21.25 28.22266,20.820312 27.796879,20.410156 c -0.210937,-0.21875 -0.53125,-0.140625 -0.792969,-0.07813 -0.257812,-0.199219 -0.585937,-0.210937 -0.882812,-0.101562 -0.230469,-0.191407 -0.523438,-0.214844 -0.800782,-0.125 -0.242187,-0.25 -0.519531,-0.46875 -0.851562,-0.574219 0.21875,-0.800781 -0.261719,-1.644531 -0.992188,-1.992188 -0.949218,-0.527343 -2.070312,-0.214843 -3.058593,0.01563 -0.886719,0.25 -1.808594,0.136718 -2.714844,0.175781 -0.03125,0.816406 0.06641,1.648437 -0.113281,2.453125 -0.16016,0.679688 -0.339848,1.363282 -0.359379,2.066407 -0.03906,0.820312 0.367187,1.679688 1.085937,2.09375 0.355469,0.207031 0.78125,0.222656 1.175782,0.15625 0.113281,0.3125 0.320312,0.570312 0.5625,0.792969 -0.07813,0.28125 -0.07813,0.582031 0.109374,0.820312 -0.113281,0.296875 -0.105468,0.632813 0.128907,0.875 -0.03125,0.238281 -0.08594,0.527344 0.113281,0.71875 0.421875,0.4375 0.84375,0.878907 1.277344,1.304688 -4.933594,6.253906 -8.109375,13.875 -9.035156,21.789062 -0.613282,-0.02344 -1.226563,-0.05078 -1.839844,-0.01563 -0.28125,0.02734 -0.421875,0.289063 -0.546875,0.503906 -0.328125,0.02734 -0.566407,0.25 -0.691407,0.542969 -0.304687,0.02344 -0.53125,0.226563 -0.65625,0.492188 -0.347656,-0.01172 -0.703124,0.02344 -1.015624,0.191406 -0.1875,-0.292969 -0.4375,-0.5625 -0.769532,-0.6875 -0.710937,-0.277344 -1.53125,-0.06641 -2.125,0.371094 -0.679687,0.558593 -1.089844,1.355469 -1.558594,2.082031 -0.4375,0.664062 -1.097656,1.136719 -1.59375,1.75 0.558594,0.601562 1.214844,1.121094 1.660157,1.824219 0.390625,0.632812 0.769531,1.285156 1.300781,1.816406 0.554688,0.519531 1.371094,0.773437 2.117188,0.597656 0.414062,-0.09375 0.734374,-0.394531 0.972656,-0.726562 0.304687,0.136719 0.636718,0.171875 0.964844,0.179687 0.128906,0.261719 0.351562,0.457032 0.652343,0.476563 0.109375,0.3125 0.367188,0.523437 0.703125,0.535156 0.140625,0.164063 0.265625,0.386719 0.5,0.414063 0.636719,0.02734 1.277344,0.03906 1.917969,0.03125 0.921875,7.90625 4.074219,15.53125 9.003906,21.78125 -0.414062,0.421874 -0.84375,0.828124 -1.257812,1.25 -0.214844,0.214843 -0.144531,0.53125 -0.07422,0.792968 -0.203125,0.257813 -0.21875,0.585938 -0.101562,0.882813 -0.1875,0.234375 -0.222657,0.523437 -0.121094,0.804687 -0.253906,0.238282 -0.476563,0.515625 -0.582032,0.855469 -0.355468,-0.07422 -0.734374,-0.07422 -1.066406,0.08203 -0.664062,0.296875 -1.074218,0.996094 -1.191406,1.691406 -0.152344,1.214844 0.453125,2.351563 0.449219,3.554688 0.02734,0.40625 -0.01563,0.816406 -0.01172,1.222656 -0.0039,0.117188 0.06641,0.257813 0.203125,0.222656 0.8125,-0.0078 1.636719,-0.0625 2.433594,0.136719 0.679687,0.167969 1.375,0.335938 2.078125,0.328125 0.726562,-0.02734 1.457031,-0.378906 1.859375,-0.992187 0.253906,-0.371094 0.292969,-0.84375 0.214843,-1.277344 0.3125,-0.113281 0.574219,-0.320313 0.796876,-0.5625 0.28125,0.09375 0.574218,0.07031 0.820312,-0.101563 0.300781,0.117188 0.632812,0.08984 0.878906,-0.136718 0.238282,0.03906 0.527344,0.08594 0.714844,-0.109375 0.4375,-0.425781 0.875,-0.847657 1.304688,-1.28125 6.265624,4.949219 13.910156,8.128906 21.84375,9.042969 0.0078,0.605468 -0.02344,1.214838 0.01172,1.820308 -0.0078,0.28125 0.230469,0.45313 0.433594,0.60156 -0.0039,0.33985 0.230469,0.58203 0.527344,0.71485 0.03906,0.29297 0.222656,0.51953 0.488281,0.64453 0,0.32812 0.03906,0.66015 0.171875,0.96484 -0.292969,0.21094 -0.570312,0.47266 -0.683594,0.82813 -0.257812,0.75 -0.01172,1.61328 0.503906,2.19922 0.496094,0.52734 1.125,0.90625 1.742188,1.27734 0.632812,0.38281 1.148438,0.92969 1.652344,1.46484 0.105468,0.13282 0.261718,0.17578 0.417968,0.20703 0.589844,-0.60937 1.164063,-1.26171 1.90625,-1.69921 0.527344,-0.3125 1.050782,-0.64844 1.507813,-1.06641 0.613281,-0.55078 0.929687,-1.44922 0.726563,-2.25781 -0.09766,-0.41016 -0.394532,-0.73438 -0.742188,-0.95703 0.164062,-0.3125 0.203125,-0.66797 0.195312,-1.01563 0.257813,-0.13281 0.46875,-0.35156 0.472657,-0.66016 0.304687,-0.10156 0.527343,-0.34765 0.542969,-0.67968 0.226562,-0.12891 0.5,-0.28125 0.519531,-0.57422 0.03516,-0.60547 -0.03516,-1.210936 -0.0078,-1.820311 7.90625,-0.925781 15.527344,-4.097656 21.773438,-9.035156 0.441406,0.441406 0.882812,0.882812 1.339844,1.304687 0.1875,0.175782 0.457031,0.113282 0.683593,0.08984 0.246094,0.226562 0.574219,0.242188 0.878907,0.132812 0.242187,0.171876 0.53125,0.191407 0.808593,0.105469 0.230469,0.234375 0.488281,0.449219 0.808594,0.558594 -0.06641,0.363281 -0.0625,0.753906 0.109375,1.089844 0.355469,0.722656 1.15625,1.148437 1.941406,1.179687 0.714844,0.0078 1.414063,-0.15625 2.101563,-0.328125 0.785156,-0.195312 1.601562,-0.148437 2.402343,-0.132812 0.128907,0.01953 0.25,-0.09375 0.230469,-0.222657 -0.01563,-0.8125 -0.0625,-1.640624 0.136719,-2.433593 0.175781,-0.710938 0.351562,-1.4375 0.320312,-2.171875 -0.06641,-0.746094 -0.472656,-1.5 -1.15625,-1.84375 -0.347656,-0.179688 -0.75,-0.183594 -1.125,-0.109375 C 92.375,87.207031 92.15625,86.929688 91.90625,86.691406 c 0.08594,-0.28125 0.06641,-0.578125 -0.132812,-0.804687 0.125,-0.296875 0.109374,-0.625 -0.09766,-0.878907 0.0625,-0.246093 0.148438,-0.546874 -0.04687,-0.757812 -0.414062,-0.441406 -0.859375,-0.855469 -1.28125,-1.289062 4.925782,-6.25 8.082032,-13.875 9,-21.777344 0.628906,0.0039 1.261722,-0.0078 1.890622,-0.03125 0.25,-0.01172 0.38672,-0.242188 0.52735,-0.414063 0.33593,-0.01953 0.58984,-0.238281 0.71093,-0.542969 0.29688,-0.01953 0.51563,-0.214843 0.64063,-0.472656 0.33203,-0.0078 0.66797,-0.04687 0.97656,-0.179687 0.23438,0.328125 0.54297,0.625 0.94531,0.722656 0.8086,0.199219 1.69922,-0.109375 2.25782,-0.71875 0.40234,-0.445313 0.73437,-0.945313 1.03515,-1.460937 0.38672,-0.664063 0.9375,-1.210938 1.4961,-1.726563 0.125,-0.121094 0.29296,-0.246094 0.23046,-0.445313 z M 29.292969,36.746094 c 0.152343,0.132812 0.285156,0.296875 0.476562,0.375 0.195313,0.05469 0.398438,-0.0078 0.59375,-0.04297 0.25,0.132813 0.53125,0.125 0.792969,0.02344 0.199219,0.121094 0.429688,0.15625 0.660156,0.144532 0.472656,0.496094 0.859375,1.070312 1.167969,1.679687 0.324219,0.609375 0.546875,1.269531 0.949219,1.835938 0.230468,0.339843 0.597656,0.605469 1.019531,0.621093 0.261719,0.01953 0.519531,-0.05078 0.777344,-0.07031 0.179687,0.07031 0.355469,0.160156 0.550781,0.175781 0.05078,0.03906 0.09766,0.07813 0.148438,0.113281 -0.105469,0.171876 -0.257813,0.339844 -0.25,0.550782 -0.03906,0.503906 0.53125,0.972656 1.015624,0.78125 0.07813,0.0039 0.210938,-0.105469 0.25,0.01563 -0.05859,0.4375 -0.183593,0.925781 0.05078,1.335937 0.3125,0.546875 0.925781,0.792969 1.460937,1.058594 0.953125,0.429688 1.90625,0.917969 2.640625,1.6875 -0.01953,0.242188 0.03906,0.480469 0.171875,0.683594 -0.05469,0.238281 -0.15625,0.535156 0.03906,0.738281 0.289062,0.328125 0.617187,0.621094 0.921875,0.933594 -0.304688,0.636719 -0.582031,1.28125 -0.804688,1.953125 -0.417969,-0.01953 -0.839843,-0.05078 -1.261719,-0.01172 -0.277343,0.01953 -0.410156,0.285156 -0.535156,0.496094 -0.253906,0.04297 -0.464844,0.183593 -0.625,0.382812 -0.785156,-0.0078 -1.570312,-0.152343 -2.316406,-0.414062 -0.652344,-0.210938 -1.28125,-0.507813 -1.964844,-0.605469 -0.417968,-0.07031 -0.863281,0.07813 -1.160156,0.386719 -0.183594,0.191406 -0.320312,0.421875 -0.476562,0.636719 -0.128907,-0.214844 -0.222657,-0.492188 -0.484376,-0.578126 -0.292968,-0.109374 -0.679687,-0.08984 -0.90625,0.148438 -0.175781,0.167969 -0.183593,0.425781 -0.25,0.644531 -0.21875,-0.125 -0.421874,-0.273437 -0.675781,-0.3125 -0.210937,-0.335937 -0.449219,-0.695312 -0.835937,-0.839843 -0.628906,-0.253907 -1.292969,0.04297 -1.894532,0.238281 C 27.613281,51.875 26.648438,52.160156 25.648438,52.210938 25.5,52.027344 25.308594,51.878906 25.074219,51.828125 c -0.105469,-0.257813 -0.289063,-0.46875 -0.566407,-0.535156 -0.125,-0.148438 -0.238281,-0.339844 -0.4375,-0.398438 -0.195312,-0.04687 -0.398437,-0.03516 -0.59375,-0.04297 0.792969,-5.074218 2.8125,-9.945312 5.816407,-14.105467 z m 6.980469,33.804687 c -0.269532,-0.01953 -0.488282,0.230469 -0.757813,0.140625 -0.320313,-0.05859 -0.667969,-0.09375 -0.96875,0.05469 -0.53125,0.242187 -0.808594,0.789062 -1.050781,1.285156 -0.441406,0.976562 -0.910156,1.964844 -1.667969,2.742188 -0.230469,-0.01563 -0.460937,0.02344 -0.65625,0.144531 C 30.910156,74.8125 30.625,74.804688 30.375,74.9375 30.191406,74.921875 30,74.871094 29.828125,74.953125 29.636719,75.050781 29.5,75.214844 29.34375,75.355469 26.332031,71.207031 24.296875,66.347656 23.488281,61.28125 c 0.191407,-0.01563 0.390625,-0.0039 0.574219,-0.06641 0.199219,-0.08984 0.300781,-0.296875 0.417969,-0.46875 0.277343,-0.07031 0.46875,-0.285156 0.570312,-0.542969 0.234375,-0.04297 0.421875,-0.183594 0.570313,-0.363281 0.847656,0.01563 1.675781,0.21875 2.464844,0.519531 0.65625,0.21875 1.316406,0.542969 2.023437,0.488281 0.53125,-0.05469 0.914063,-0.484375 1.152344,-0.925781 0.1875,-0.02734 0.371093,-0.08203 0.492187,-0.238281 0.07031,-0.01172 0.136719,-0.02344 0.207032,-0.03125 0.05078,0.203125 0.07031,0.4375 0.226562,0.59375 0.234375,0.242187 0.625,0.269531 0.925781,0.152344 0.246094,-0.09766 0.34375,-0.359376 0.472657,-0.566407 0.253906,0.332031 0.472656,0.734375 0.878906,0.910157 0.527344,0.242187 1.121094,0.05078 1.644531,-0.121094 1.070313,-0.378906 2.167969,-0.832032 3.324219,-0.761719 0.195312,0.148437 0.382812,0.3125 0.640625,0.339844 0.113281,0.207031 0.242187,0.46875 0.503906,0.496093 0.449219,0.03125 0.898437,0 1.347656,0.01172 0.234375,0.65625 0.492188,1.304688 0.804688,1.929688 -0.304688,0.316406 -0.644531,0.597656 -0.914063,0.945312 -0.152344,0.207031 -0.06641,0.46875 0,0.695313 -0.15625,0.203125 -0.171875,0.453125 -0.214844,0.699218 -0.664062,0.742188 -1.570312,1.214844 -2.464843,1.625 -0.589844,0.292969 -1.277344,0.539063 -1.632813,1.128907 -0.246094,0.414062 -0.125,0.898437 -0.0625,1.34375 -0.0625,0.136719 -0.234375,-0.0039 -0.339844,0.0078 -0.40625,-0.117187 -0.816406,0.234375 -0.910156,0.613281 -0.07031,0.28125 0.08984,0.53125 0.238282,0.753907 -0.03906,0.02344 -0.117188,0.07813 -0.15625,0.101562 z m 16.074218,9.703125 c -0.1875,0.09766 -0.222656,0.292969 -0.238281,0.480469 -0.4375,0.25 -0.878906,0.617187 -0.941406,1.148437 -0.0625,0.703126 0.253906,1.359376 0.476562,2.007813 0.300781,0.800781 0.507813,1.640625 0.542969,2.5 -0.191406,0.140625 -0.328125,0.332031 -0.375,0.566406 -0.273438,0.101563 -0.476562,0.304688 -0.542969,0.589844 -0.164062,0.09375 -0.355469,0.175781 -0.445312,0.351563 -0.09766,0.195312 -0.07031,0.417968 -0.08594,0.628906 -5.042969,-0.804688 -9.875,-2.820313 -14.015625,-5.808594 0.136719,-0.15625 0.304688,-0.292969 0.378906,-0.488281 0.04297,-0.195313 -0.01172,-0.386719 -0.04687,-0.578125 0.125,-0.25 0.132812,-0.527344 0.03516,-0.789063 0.109375,-0.207031 0.144531,-0.433593 0.136718,-0.664062 0.636719,-0.625 1.417969,-1.066407 2.222657,-1.4375 0.578125,-0.289063 1.238281,-0.507813 1.65625,-1.027344 0.292969,-0.351563 0.289062,-0.835937 0.207031,-1.261719 -0.08203,-0.261718 0.152344,-0.476562 0.152344,-0.734375 0.02734,-0.03906 0.07813,-0.113281 0.105468,-0.152343 0.175782,0.101562 0.34375,0.253906 0.5625,0.25 0.34375,0.02344 0.648438,-0.234376 0.78125,-0.535157 0.101563,-0.25 -0.01953,-0.507812 -0.04687,-0.761719 0.53125,0.136719 1.167968,0.222657 1.617187,-0.167968 0.539063,-0.496094 0.769531,-1.21875 1.089844,-1.855469 0.363281,-0.769531 0.820312,-1.503906 1.433593,-2.097656 0.246094,0.01953 0.488282,-0.04297 0.695313,-0.183594 0.238281,0.06641 0.539063,0.15625 0.742187,-0.04297 0.320313,-0.289062 0.609376,-0.609375 0.925782,-0.910156 0.625,0.308594 1.273437,0.582031 1.941406,0.800781 0.0039,0.445313 -0.01953,0.894531 0.0078,1.34375 0.01172,0.269531 0.289063,0.390625 0.488282,0.519531 0.04297,0.242188 0.171875,0.453126 0.371094,0.601563 0.0078,0.9375 -0.238282,1.855469 -0.5625,2.726563 -0.21875,0.648437 -0.542969,1.3125 -0.433594,2.011718 0.09766,0.539063 0.582031,0.855469 1.007812,1.136719 C 51.992188,78.542969 51.75,78.625 51.640625,78.84375 c -0.15625,0.316406 -0.125,0.757812 0.148437,1.003906 0.152344,0.140625 0.371094,0.148438 0.5625,0.1875 -0.0039,0.07031 -0.0039,0.144532 -0.0039,0.21875 z m -0.589844,-48.03125 c -0.242187,0.226563 -0.257812,0.609375 -0.148437,0.90625 0.101563,0.246094 0.363281,0.351563 0.578125,0.480469 -0.34375,0.25 -0.753906,0.476563 -0.925781,0.890625 -0.230469,0.523438 -0.04297,1.101562 0.121093,1.613281 0.382813,1.078125 0.84375,2.1875 0.777344,3.355469 C 52,39.652344 51.84375,39.847656 51.808594,40.097656 c -0.199219,0.117188 -0.464844,0.230469 -0.488282,0.492188 -0.02734,0.453125 0,0.910156 -0.0078,1.363281 -0.667969,0.21875 -1.308594,0.492187 -1.9375,0.792969 -0.320312,-0.300782 -0.597656,-0.644532 -0.949219,-0.910156 -0.207031,-0.152344 -0.46875,-0.05469 -0.6875,0.0039 -0.203125,-0.148438 -0.445312,-0.199219 -0.695312,-0.1875 -0.53125,-0.519532 -0.964844,-1.136719 -1.296875,-1.800782 -0.304688,-0.566406 -0.523438,-1.179687 -0.867188,-1.726562 -0.214844,-0.335938 -0.523437,-0.648438 -0.929687,-0.71875 -0.351563,-0.09375 -0.707031,0.02734 -1.054688,0.07031 -0.01563,-0.253906 0.125,-0.511718 0.01172,-0.757812 -0.136719,-0.292969 -0.429688,-0.535156 -0.765625,-0.527344 -0.21875,0.0078 -0.390625,0.152344 -0.5625,0.261719 -0.03906,-0.05078 -0.07813,-0.09766 -0.113281,-0.148437 0.01172,-0.269532 -0.238282,-0.488282 -0.148438,-0.757813 0.05859,-0.367187 0.08984,-0.773437 -0.113281,-1.105469 -0.296875,-0.496094 -0.851563,-0.738281 -1.351563,-0.984375 -0.9375,-0.421875 -1.871093,-0.890625 -2.621093,-1.609375 0.02734,-0.226562 -0.01953,-0.449218 -0.121094,-0.652344 0.08203,-0.261718 0.09766,-0.539062 -0.03125,-0.785156 0.0078,-0.1875 0.05859,-0.386718 -0.01953,-0.5625 -0.105469,-0.179687 -0.261719,-0.320312 -0.398438,-0.476562 4.152344,-3.015625 9.007813,-5.054688 14.074219,-5.863282 0.01563,0.207032 -0.0039,0.425782 0.08203,0.617188 0.09375,0.179688 0.285156,0.265625 0.449219,0.363281 0.07031,0.28125 0.277344,0.488281 0.546875,0.585938 0.03906,0.238281 0.179688,0.429687 0.375,0.566406 -0.03516,0.902344 -0.265625,1.78125 -0.585938,2.621094 -0.207031,0.605469 -0.492187,1.222656 -0.4375,1.875 0.06641,0.53125 0.488282,0.910156 0.929688,1.15625 0.03906,0.25 0.1875,0.457031 0.304688,0.675781 -0.21875,0.0625 -0.476563,0.07422 -0.640626,0.253906 z m 3.96875,65.449219 c 0.05469,0.02734 0.113282,0.04687 0.175782,0.05469 -0.0625,-0.0078 -0.121094,-0.02734 -0.175782,-0.05469 z M 59.65625,31.785156 c 0.160156,-0.121094 0.210938,-0.308594 0.234375,-0.496094 0.410156,-0.21875 0.796875,-0.542968 0.910156,-1.011718 C 60.914062,29.6875 60.691406,29.105469 60.5,28.558594 60.148438,27.632812 59.824219,26.671875 59.824219,25.667969 59.996094,25.515625 60.128906,25.328125 60.179688,25.101562 60.433594,25 60.644531,24.8125 60.71875,24.535156 c 0.144531,-0.125 0.339844,-0.234375 0.394531,-0.4375 0.03125,-0.199218 0.02734,-0.402344 0.04297,-0.601562 5.101562,0.796875 10,2.839844 14.171875,5.878906 -0.1875,0.214844 -0.476563,0.421875 -0.433594,0.746094 0.04297,0.363281 -0.179687,0.722656 0,1.078125 -0.125,0.195312 -0.160156,0.421875 -0.140625,0.648437 -0.6875,0.660156 -1.53125,1.121094 -2.390625,1.503906 -0.542969,0.261719 -1.144531,0.5 -1.515625,0.996094 -0.253906,0.347656 -0.273437,0.796875 -0.175781,1.199219 0.08203,0.265625 -0.164063,0.484375 -0.140625,0.75 -0.02734,0.03906 -0.08203,0.121094 -0.109375,0.160156 -0.203125,-0.128906 -0.417969,-0.300781 -0.675781,-0.257812 -0.421875,0.05859 -0.8125,0.503906 -0.683594,0.941406 0,0.105469 0.08984,0.238281 0,0.332031 -0.410156,-0.06641 -0.84375,-0.183594 -1.242188,0 -0.550781,0.25 -0.824218,0.828125 -1.078124,1.339844 -0.46875,1.007812 -0.941407,2.066406 -1.792969,2.8125 -0.242188,0.04297 -0.496094,0.0625 -0.699219,0.21875 -0.226562,-0.07031 -0.492188,-0.160156 -0.699219,-0.0039 -0.339843,0.273437 -0.621093,0.609375 -0.9375,0.910156 -0.628906,-0.304688 -1.269531,-0.578125 -1.933593,-0.796875 -0.01172,-0.449219 0.02734,-0.898437 -0.01953,-1.339844 -0.04687,-0.25 -0.296875,-0.351562 -0.492187,-0.460937 -0.02344,-0.25 -0.160157,-0.457032 -0.335938,-0.621094 -0.04297,-0.953125 0.210938,-1.882812 0.542969,-2.761719 0.222656,-0.660156 0.546875,-1.335937 0.429688,-2.046875 -0.109376,-0.527344 -0.589844,-0.828125 -0.996094,-1.113281 0.207031,-0.125 0.46875,-0.230469 0.570312,-0.472656 0.117188,-0.300781 0.08594,-0.695313 -0.15625,-0.929688 -0.160156,-0.15625 -0.394531,-0.171875 -0.597656,-0.226562 0.01172,-0.06641 0.01953,-0.132813 0.03125,-0.195313 z m 1.5,56.757813 C 61.140625,88.332031 61.148438,88.125 61.105469,87.921875 61.042969,87.730469 60.859375,87.625 60.714844,87.5 c -0.07031,-0.277344 -0.273438,-0.464844 -0.535156,-0.5625 -0.05078,-0.226562 -0.183594,-0.414062 -0.355469,-0.570312 0.0039,-0.960938 0.296875,-1.886719 0.632812,-2.777344 0.203125,-0.585938 0.472657,-1.207032 0.339844,-1.839844 -0.113281,-0.480469 -0.527344,-0.792969 -0.929687,-1.023438 -0.0078,-0.117187 -0.01563,-0.230468 -0.02344,-0.34375 -0.05078,-0.01953 -0.152344,-0.06641 -0.199219,-0.08984 -0.0039,-0.08594 -0.0078,-0.171875 -0.0078,-0.257813 0.203125,-0.04297 0.441406,-0.05078 0.59375,-0.214844 0.25,-0.261718 0.273437,-0.6875 0.109375,-0.996093 -0.113282,-0.203125 -0.347656,-0.28125 -0.535156,-0.398438 0.398437,-0.277343 0.867187,-0.5625 0.988281,-1.070312 0.144531,-0.65625 -0.144531,-1.296875 -0.351563,-1.902344 -0.359375,-0.941406 -0.652344,-1.929687 -0.613281,-2.949219 0.183594,-0.167968 0.324219,-0.375 0.339844,-0.628906 0.199219,-0.101562 0.460937,-0.207031 0.496093,-0.460938 0.03906,-0.441406 0.0078,-0.886718 0.01563,-1.332031 0.667968,-0.21875 1.3125,-0.496093 1.945312,-0.800781 0.324219,0.3125 0.617188,0.652344 0.960938,0.941406 0.203124,0.167969 0.480468,0.0625 0.710937,0.01563 0.195313,0.136719 0.429687,0.199219 0.675781,0.167969 0.847656,0.800781 1.347656,1.875 1.824219,2.917969 0.269531,0.5625 0.632813,1.21875 1.3125,1.316406 0.339844,0.09375 0.683594,-0.105469 1.015625,-0.04687 -0.02734,0.230469 -0.148438,0.46875 -0.05078,0.699219 0.128906,0.296875 0.421875,0.558593 0.761719,0.542969 0.222656,0.0078 0.402343,-0.140626 0.585937,-0.25 0.03906,0.05078 0.07813,0.105468 0.121094,0.160156 -0.02344,0.195312 0.05469,0.363281 0.175781,0.511718 -0.109375,0.445313 -0.179688,0.953126 0.08594,1.363282 0.363281,0.558594 1.027343,0.796875 1.597656,1.078125 0.820312,0.382812 1.652344,0.796875 2.296875,1.445312 0.105469,0.222657 0.06641,0.5 0.207031,0.714844 -0.101562,0.265625 -0.101562,0.542969 0.02344,0.796875 -0.03125,0.1875 -0.09375,0.378906 -0.04688,0.566406 0.07422,0.203125 0.25,0.339844 0.386719,0.496094 -4.167969,3.003906 -9.035156,5.03125 -14.113281,5.824219 z m 21.488281,-13.1875 c -0.144531,-0.128907 -0.277343,-0.269531 -0.4375,-0.375 -0.179687,-0.121094 -0.398437,-0.05859 -0.597656,-0.04297 -0.253906,-0.136719 -0.535156,-0.125 -0.796875,-0.01953 -0.195312,-0.128907 -0.429688,-0.15625 -0.65625,-0.144531 -0.621094,-0.664063 -1.082031,-1.457032 -1.449219,-2.285157 -0.28125,-0.574219 -0.511719,-1.230469 -1.046875,-1.625 C 77.246094,70.5625 76.714844,70.621094 76.25,70.738281 76.09375,70.621094 75.917969,70.535156 75.71875,70.5625 c -0.03906,-0.02734 -0.121094,-0.08594 -0.160156,-0.117188 0.113281,-0.179687 0.265625,-0.363281 0.25,-0.589843 0.01953,-0.3125 -0.207032,-0.582031 -0.464844,-0.726563 -0.253906,-0.144531 -0.539062,-0.02734 -0.800781,0.02734 0.05078,-0.433594 0.191406,-0.890625 0,-1.308594 -0.273438,-0.601562 -0.917969,-0.871094 -1.472657,-1.144531 -0.964843,-0.441406 -1.964843,-0.921875 -2.683593,-1.726563 -0.03906,-0.242187 -0.06641,-0.492187 -0.203125,-0.703124 0.04687,-0.234376 0.140625,-0.503907 -0.02344,-0.714844 -0.269531,-0.335938 -0.605468,-0.609375 -0.894531,-0.925782 0.304687,-0.625 0.574219,-1.265624 0.792969,-1.925781 0.445312,-0.01172 0.890625,0.01563 1.335937,-0.01172 0.273438,-0.01953 0.402344,-0.289062 0.523438,-0.496093 0.25,-0.03125 0.457031,-0.179688 0.625,-0.363281 0.808593,0.0039 1.605469,0.167968 2.367187,0.4375 0.742188,0.234374 1.480469,0.640624 2.285156,0.570312 0.570313,-0.07031 0.910157,-0.574219 1.203126,-1.015625 0.140624,0.21875 0.253906,0.507813 0.527343,0.589844 0.289063,0.0625 0.648438,0.07031 0.871094,-0.160157 0.164063,-0.15625 0.171875,-0.394531 0.214844,-0.601562 0.07031,0.0039 0.140625,0.01172 0.214843,0.01953 0.117188,0.160157 0.300782,0.21875 0.492188,0.242188 0.242188,0.40625 0.574219,0.824219 1.070312,0.914062 0.636719,0.101563 1.25,-0.175781 1.839844,-0.375 0.878906,-0.339843 1.796875,-0.601562 2.746094,-0.621093 0.136719,0.1875 0.328125,0.328124 0.566406,0.359374 0.08984,0.273438 0.296875,0.476563 0.574219,0.554688 0.113281,0.167969 0.210937,0.367188 0.402344,0.460938 0.1875,0.07031 0.390625,0.05078 0.585937,0.07031 -0.8125,5.066406 -2.839844,9.925781 -5.859375,14.070312 z m 5.265625,-24.457031 c -0.199218,0.05469 -0.308594,0.25 -0.433594,0.394531 -0.277343,0.06641 -0.460937,0.285156 -0.566406,0.539062 -0.234375,0.04687 -0.421875,0.195313 -0.570312,0.378907 -0.9375,-0.05078 -1.847656,-0.296876 -2.71875,-0.636719 -0.570313,-0.195313 -1.15625,-0.453125 -1.765625,-0.386719 -0.535157,0.07031 -0.894531,0.511719 -1.148438,0.945312 -0.1875,0.01563 -0.382812,0.05469 -0.480469,0.238282 -0.07422,0 -0.148437,0.0039 -0.21875,0.0039 -0.03906,-0.191406 -0.04687,-0.40625 -0.183593,-0.558594 -0.210938,-0.257812 -0.589844,-0.289062 -0.894531,-0.203125 -0.28125,0.08203 -0.402344,0.371094 -0.53125,0.601563 -0.277344,-0.453125 -0.628907,-0.945313 -1.195313,-1.023438 -0.730469,-0.08203 -1.414063,0.273438 -2.09375,0.496094 -0.839844,0.3125 -1.726563,0.519531 -2.625,0.519531 -0.160156,-0.199219 -0.371094,-0.34375 -0.628906,-0.375 -0.109375,-0.199219 -0.222657,-0.449219 -0.472657,-0.492187 -0.429687,-0.06641 -0.871093,0 -1.308593,-0.0078 -0.257813,-0.652343 -0.492188,-1.316406 -0.820313,-1.9375 0.300782,-0.3125 0.625,-0.601562 0.914063,-0.925781 0.207031,-0.199219 0.09766,-0.5 0.05469,-0.742188 0.144532,-0.214843 0.144532,-0.480468 0.210938,-0.714843 0.746094,-0.824219 1.78125,-1.289063 2.773437,-1.75 0.507813,-0.253907 1.09375,-0.519531 1.332031,-1.074219 0.195313,-0.421875 0.05078,-0.878906 -0.0039,-1.3125 0.347656,0.125 0.785156,0.167969 1.046875,-0.148438 0.335938,-0.304687 0.261719,-0.820312 -0.01953,-1.132812 0.03516,-0.02734 0.113281,-0.07813 0.152344,-0.101562 0.1875,-0.02344 0.359375,-0.105469 0.535156,-0.175782 0.394531,0.03125 0.816406,0.152344 1.191406,-0.02734 0.578125,-0.257812 0.84375,-0.875 1.109375,-1.410156 0.425781,-0.9375 0.886719,-1.890625 1.628907,-2.632812 0.230468,0.01172 0.457031,-0.02734 0.664062,-0.136719 0.257812,0.09766 0.535156,0.09375 0.789062,-0.03125 0.1875,0.03516 0.382813,0.08984 0.574219,0.05078 0.199219,-0.07422 0.332031,-0.25 0.488281,-0.386718 3.007813,4.164062 5.019532,9.035156 5.820313,14.109374 -0.203125,0.0078 -0.410156,-0.0039 -0.605469,0.04688 z m 0,0"
     fill-opacity="1"
     fill-rule="nonzero"
     id="path2" /></g>
</svg>
