<?xml version="1.0" encoding="UTF-8" standalone="no"?>
<!-- Generator: Adobe Illustrator 19.0.0, SVG Export Plug-In  -->

<svg
   version="1.1"
   x="0px"
   y="0px"
   width="150.5px"
   height="151px"
   viewBox="0 0 150.5 151"
   style="enable-background:new 0 0 150.5 151;"
   xml:space="preserve"
   id="svg2"
   sodipodi:docname="css3.svg"
   inkscape:version="1.4 (e7c3feb1, 2024-10-09)"
   xmlns:inkscape="http://www.inkscape.org/namespaces/inkscape"
   xmlns:sodipodi="http://sodipodi.sourceforge.net/DTD/sodipodi-0.dtd"
   xmlns="http://www.w3.org/2000/svg"
   xmlns:svg="http://www.w3.org/2000/svg"><sodipodi:namedview
   id="namedview2"
   pagecolor="#ffffff"
   bordercolor="#000000"
   borderopacity="0.25"
   inkscape:showpageshadow="2"
   inkscape:pageopacity="0.0"
   inkscape:pagecheckerboard="0"
   inkscape:deskcolor="#d1d1d1"
   inkscape:zoom="106.91391"
   inkscape:cx="74.948154"
   inkscape:cy="150.7989"
   inkscape:window-width="2048"
   inkscape:window-height="1186"
   inkscape:window-x="988"
   inkscape:window-y="141"
   inkscape:window-maximized="0"
   inkscape:current-layer="svg2" />
<style
   type="text/css"
   id="style1">
	.st0{fill:#D8D8D8;}
	.st1{filter:url(#Adobe_OpacityMaskFilter);}
	.st2{fill:#FFFFFF;}
	.st3{mask:url(#mask-2_1_);}
	.st4{fill:#33A9DC;}
	.st5{display:none;fill-opacity:0.2;stroke:#979797;}
	.st6{filter:url(#Adobe_OpacityMaskFilter_1_);}
	.st7{mask:url(#mask-2_6_);}
</style>
<defs
   id="defs1">
<clipPath
   id="9f37597292"><path
     d="M 19,1 H 92.804688 V 112 H 19 Z m 0,0"
     clip-rule="nonzero"
     id="path1" /></clipPath></defs>
<g
   id="Page-1_1_">
	<g
   id="Artboard-1_1_">
	</g>
	<g
   id="Group_1_">
		<g
   id="Mask_1_">
			<circle
   id="path-1_3_"
   class="st0"
   cx="74.1"
   cy="74.1"
   r="74.1" />
		</g>
		<defs
   id="defs2">
			<filter
   id="Adobe_OpacityMaskFilter"
   filterUnits="userSpaceOnUse"
   x="0"
   y="0"
   width="150.5"
   height="151">
				<feColorMatrix
   type="matrix"
   values="1 0 0 0 0  0 1 0 0 0  0 0 1 0 0  0 0 0 1 0"
   id="feColorMatrix1" />
			</filter>
		</defs>
		<mask
   maskUnits="userSpaceOnUse"
   x="0"
   y="0"
   width="150.5"
   height="151"
   id="mask-2_1_">
			<g
   id="XMLID_17_"
   class="st1">
				<circle
   id="path-1_2_"
   class="st2"
   cx="74.1"
   cy="74.1"
   r="74.1" />
			</g>
		</mask>
		<g
   id="XMLID_15_"
   class="st3"
   mask="url(#mask-2_1_)">
			<path
   id="XMLID_22_"
   class="st4"
   d="M94.3,147.2c5.4-1.8,10.8-3.4,16.1-5.5c2.4-1,4.8-2,7.1-3.1c1.8-1.2,3.6-2.3,5.3-3.6     c4.9-3.5,8.5-8.1,11.8-13.2c3.6-5.5,6.5-11.4,8.9-17.5c1.6-4.1,3.2-8.3,4.6-12.5V0H0v148.2h91.6     C92.5,147.9,93.4,147.5,94.3,147.2z" />
			<path
   id="XMLID_18_"
   class="st5"
   d="M94.3,147.2c5.4-1.8,10.8-3.4,16.1-5.5c2.4-1,4.8-2,7.1-3.1c1.8-1.2,3.6-2.3,5.3-3.6     c4.9-3.5,8.5-8.1,11.8-13.2c3.6-5.5,6.5-11.4,8.9-17.5c2.2-5.5,4.3-11.1,5.8-16.8c0.1-0.4,0.2-0.8,0.3-1.1     c-0.2-0.7-0.3-1.6-0.1-2.5c0.2-0.7,0.3-1.3,0.3-2c0-0.3,0-0.6,0-0.9c0-0.3,0-0.6,0.1-0.9c-0.1-2.1-0.5-4.1-0.9-6.2     c-0.1-0.7-0.1-1.4,0-2.1l-34.5-35l-15,13.6l-4.3,22.8l-3.5,16.5L66,97.8l-17.4-8.1l1.4-7.5c0,0-6.1,1.7-9,1.7H38l-4.9,13.9     l53.2,52.6C88.9,149.1,91.6,148.2,94.3,147.2z" />
			
		</g>
	</g>
</g><g
   clip-path="url(#9f37597292)"
   id="g3"
   transform="matrix(1.333324,0.00499921,4.1844263e-4,1.3333443,0.01085574,-1.7589475)"><path
     fill="#ffffff"
     d="M 48.527344,1.375 V 30.839844 H 19.25 V 45.570312 H 48.527344 V 111.86719 H 63.164062 V 45.570312 H 92.441406 V 30.839844 H 63.164062 V 1.375 Z m 0,0"
     fill-opacity="1"
     fill-rule="nonzero"
     id="path3" /></g>
<path
   style="fill:#800080;stroke-width:0.100401"
   d="m 64.051536,147.454 c -3.811611,-0.50204 -9.237098,-1.78983 -13.375734,-3.17484 -8.919664,-2.98502 -16.663779,-7.30508 -24.112373,-13.45113 -2.313416,-1.90886 -7.637206,-7.28035 -9.603091,-9.68912 C 7.6115731,109.68398 2.02693,96.297631 0.44883221,81.560952 0.11422694,78.436322 0.00340096,72.863934 0.21221131,69.663528 1.2627664,53.561827 7.1366739,38.843135 17.445142,26.481683 19.277881,24.283944 23.769069,19.737324 25.88999,17.932604 34.882459,10.280796 45.610047,4.8046886 56.868186,2.1191783 58.943226,1.6241997 62.417133,0.96070958 63.760162,0.8028628 l 0.81516,-0.0958061 1.45e-4,10.9826953 c 8.1e-5,6.040482 0.04491,14.781952 0.09962,19.425486 l 0.09948,8.44279 -19.554528,-0.09657 -19.554529,-0.09657 v 9.850034 9.850035 l 3.928395,0.09854 c 2.160617,0.05419 10.948996,0.09867 19.529732,0.09884 l 15.601338,3.06e-4 v 44.147677 c 0,24.28122 -0.05051,44.13758 -0.11224,44.12525 -0.06173,-0.0123 -0.314271,-0.049 -0.561199,-0.0816 z"
   id="path2" /><path
   style="fill:#800080;stroke-width:0.100401"
   d="M 84.329534,103.38557 V 59.362804 l 19.529736,0.09829 19.52973,0.09829 v -9.851762 -9.851761 l -4.15288,-0.0986 c -2.28408,-0.05423 -11.07246,-0.09873 -19.529727,-0.09889 L 84.329534,39.658077 V 20.206913 0.75574827 l 0.411546,0.069889 c 4.471406,0.75933663 6.759674,1.26586343 10.135268,2.24352483 8.188832,2.3717016 16.171302,6.3283232 23.170572,11.4848099 6.01534,4.431616 12.32661,10.888049 16.61913,17.00139 6.48342,9.233598 10.87986,20.176859 12.57429,31.298949 0.67941,4.459593 0.76703,5.782696 0.75818,11.448464 -0.007,4.616206 -0.0562,5.780644 -0.3421,8.133501 -1.46863,12.085712 -5.54152,23.125874 -12.15679,32.952744 -11.30616,16.79506 -28.78583,28.1336 -48.777142,31.64026 -1.188501,0.20848 -2.213121,0.37905 -2.276933,0.37905 -0.06381,0 -0.116021,-19.81025 -0.116021,-44.02276 z"
   id="path4" /><path
   style="fill:#800080;stroke-width:0.100401"
   d="m 71.683845,0.15865901 c 1.316948,-0.0461078 3.471953,-0.0455892 4.7889,0.001153 1.727971,0.06133 1.061491,0.0846643 -2.39445,0.0838324 -3.454578,-8.3147e-4 -4.121739,-0.0245107 -2.39445,-0.0849854 z"
   id="path5" /><path
   style="fill:#800080;stroke-width:0.00627509"
   d="m 73.65116,0.34704128 c -3.465562,-0.0133935 -6.303548,-0.0268791 -6.306637,-0.0299681 -0.0031,-0.003089 0.02708,-0.008208 0.06703,-0.0113765 0.03996,-0.003168 0.247322,-0.0205668 0.460812,-0.0386638 2.103802,-0.17833441 4.033908,-0.2583967 6.229311,-0.2583967 1.767378,0 3.154008,0.04438161 4.854373,0.15537311 0.703678,0.0459327 1.749393,0.13118744 2.28221,0.18606361 l 0.21045,0.0216747 -0.748266,-1.7732e-4 C 80.2889,0.37147281 77.116722,0.36043474 73.65116,0.34704128 Z m 3.282172,-0.11289542 c 0.393405,-0.007881 0.500113,-0.0154036 0.445871,-0.0314322 -0.04927,-0.0145599 -0.728462,-0.0441928 -1.472333,-0.0642375 -0.586358,-0.0158003 -3.110272,-0.0159203 -3.689885,-1.7546e-4 -0.8201,0.0222775 -1.431685,0.0507419 -1.448645,0.0674228 -0.02585,0.0254226 0.213431,0.0303937 1.757304,0.0365085 1.780836,0.007053 3.840591,0.003275 4.407688,-0.008086 z"
   id="path6" /><path
   style="fill:#800080;stroke-width:0.00627509"
   d="m 73.012017,148.18832 c -1.179054,-0.0235 -1.935273,-0.0495 -2.843409,-0.0976 -1.629053,-0.0863 -3.294289,-0.23063 -4.933877,-0.42759 l -0.135623,-0.0163 0.556523,0.002 c 0.306087,0.001 4.024733,0.0151 8.263658,0.0306 4.238925,0.0155 7.915481,0.0292 8.170125,0.0303 l 0.46299,0.002 -0.32269,0.0356 c -2.103111,0.23209 -4.096781,0.36592 -6.374288,0.42791 -0.3382,0.009 -2.526337,0.0188 -2.843409,0.0125 z"
   id="path7" /></svg>
