<?xml version="1.0" encoding="UTF-8" standalone="no"?>
<svg
   width="150"
   zoomAndPan="magnify"
   viewBox="0 0 112.5 262.49999"
   height="350"
   preserveAspectRatio="xMidYMid"
   version="1.0"
   id="svg3"
   sodipodi:docname="cross.svg"
   inkscape:version="1.4 (e7c3feb1, 2024-10-09)"
   xmlns:inkscape="http://www.inkscape.org/namespaces/inkscape"
   xmlns:sodipodi="http://sodipodi.sourceforge.net/DTD/sodipodi-0.dtd"
   xmlns="http://www.w3.org/2000/svg"
   xmlns:svg="http://www.w3.org/2000/svg">
  <sodipodi:namedview
     id="namedview3"
     pagecolor="#ffffff"
     bordercolor="#000000"
     borderopacity="0.25"
     inkscape:showpageshadow="2"
     inkscape:pageopacity="0.0"
     inkscape:pagecheckerboard="0"
     inkscape:deskcolor="#d1d1d1"
     inkscape:zoom="6.7266667"
     inkscape:cx="75.074331"
     inkscape:cy="75"
     inkscape:window-width="1200"
     inkscape:window-height="1186"
     inkscape:window-x="480"
     inkscape:window-y="96"
     inkscape:window-maximized="0"
     inkscape:current-layer="svg3" />
  <defs
     id="defs1">
    <clipPath
       id="e9a644880c">
      <path
         d="M 22.519531,24 H 89.71875 V 35 H 22.519531 Z m 0,0"
         clip-rule="nonzero"
         id="path1" />
    </clipPath>
  </defs>
  <g
     clip-path="url(#e9a644880c)"
     id="g2"
     transform="matrix(1.3149921,0,0,1.2145712,-16.172499,13.909534)">
    <path
       fill="#333333"
       d="m 28.003906,34.941406 h 19.101563 30.183593 6.953126 c 2.785156,0 5.453124,-2.4375 5.324218,-5.304687 -0.128906,-2.875 -2.339844,-5.304688 -5.324218,-5.304688 H 65.136719 34.953125 28.003906 c -2.785156,0 -5.457031,2.4375 -5.328125,5.304688 0.132813,2.875 2.339844,5.304687 5.328125,5.304687 z"
       fill-opacity="1"
       fill-rule="nonzero"
       id="path2"
       style="fill:#800080"
       sodipodi:nodetypes="sccscsccscs" />
  </g>
  <path
     fill="#333333"
     d="m 50.62499,20.22127 c -0.0052,3.905838 -0.01033,7.811678 -0.01541,11.717518 -0.01033,9.296167 -0.02056,18.587808 -0.03083,27.883977 -0.01541,11.319237 -0.03083,22.638476 -0.04109,33.957707 -0.01541,9.717078 -0.02568,19.434148 -0.03596,29.151228 -0.0052,4.75219 -0.133554,9.51795 -0.01541,14.27012 v 0.19915 c -0.0052,3.21338 3.220703,6.2955 7.001306,6.14615 3.796012,-0.14935 6.99617,-2.70196 7.001306,-6.14615 0.0052,-3.90584 0.01033,-7.81168 0.01541,-11.72204 0.01033,-9.29166 0.02056,-18.58782 0.03083,-27.883985 0.01541,-11.319244 0.03083,-22.638481 0.04109,-33.95772 0.01541,-9.717075 0.02567,-19.43415 0.03596,-29.151226 0.0052,-4.752179 0.133554,-9.517936 0.01541,-14.270115 V 20.22127 c 0.0052,-3.217905 -3.220702,-6.300033 -7.001305,-6.150678 -3.796012,0.149356 -6.996168,2.701955 -7.001307,6.150678 z"
     fill-opacity="1"
     fill-rule="nonzero"
     id="path3"
     style="fill:#800080;stroke-width:1.23433"
     sodipodi:nodetypes="ccccccccccccccccc" />
</svg>
