<?xml version="1.0" encoding="UTF-8" standalone="no"?>
<svg
   width="150"
   zoomAndPan="magnify"
   viewBox="0 0 112.5 112.499997"
   height="150"
   preserveAspectRatio="xMidYMid meet"
   version="1.0"
   id="svg4"
   sodipodi:docname="Hinduism.svg"
   inkscape:version="1.4 (e7c3feb1, 2024-10-09)"
   xmlns:inkscape="http://www.inkscape.org/namespaces/inkscape"
   xmlns:sodipodi="http://sodipodi.sourceforge.net/DTD/sodipodi-0.dtd"
   xmlns="http://www.w3.org/2000/svg"
   xmlns:svg="http://www.w3.org/2000/svg">
  <sodipodi:namedview
     id="namedview4"
     pagecolor="#ffffff"
     bordercolor="#000000"
     borderopacity="0.25"
     inkscape:showpageshadow="2"
     inkscape:pageopacity="0.0"
     inkscape:pagecheckerboard="0"
     inkscape:deskcolor="#d1d1d1"
     inkscape:zoom="6.7266667"
     inkscape:cx="75"
     inkscape:cy="75"
     inkscape:window-width="1200"
     inkscape:window-height="1186"
     inkscape:window-x="0"
     inkscape:window-y="25"
     inkscape:window-maximized="0"
     inkscape:current-layer="svg4" />
  <defs
     id="defs1">
    <clipPath
       id="74b23d5c07">
      <path
         d="M 4 17 L 108.097656 17 L 108.097656 112 L 4 112 Z M 4 17 "
         clip-rule="nonzero"
         id="path1" />
    </clipPath>
  </defs>
  <path
     fill="#000000"
     d="M 64.691406 16.367188 C 64.859375 16.535156 65.082031 16.628906 65.316406 16.628906 C 65.554688 16.628906 65.777344 16.535156 65.945312 16.367188 L 73.308594 8.980469 C 73.472656 8.816406 73.566406 8.589844 73.566406 8.355469 C 73.566406 8.117188 73.472656 7.890625 73.308594 7.726562 L 65.945312 0.339844 C 65.613281 0.00390625 65.023438 0.00390625 64.691406 0.339844 L 57.328125 7.726562 C 56.984375 8.074219 56.984375 8.632812 57.328125 8.980469 Z M 65.320312 2.222656 L 71.429688 8.355469 L 65.320312 14.484375 L 59.207031 8.355469 Z M 65.320312 2.222656 "
     fill-opacity="1"
     fill-rule="nonzero"
     id="path2" />
  <path
     fill="#000000"
     d="M 64.03125 31.652344 C 65.273438 31.78125 66.46875 31.839844 67.621094 31.839844 C 80.742188 31.839844 88.101562 24.089844 88.433594 23.734375 C 88.726562 23.417969 88.75 22.9375 88.492188 22.59375 L 82.953125 15.207031 C 82.675781 14.832031 82.152344 14.738281 81.761719 15 C 75.539062 19.105469 69.660156 20.695312 64.28125 19.730469 C 58.902344 18.761719 53.8125 15.195312 49.152344 9.136719 C 48.917969 8.832031 48.515625 8.714844 48.152344 8.84375 C 47.792969 8.972656 47.554688 9.320312 47.566406 9.707031 C 47.574219 9.910156 48.34375 30.011719 64.03125 31.652344 Z M 63.96875 21.476562 C 69.605469 22.492188 75.675781 20.960938 82.035156 16.933594 L 86.605469 23.035156 C 84.554688 24.902344 76.652344 31.183594 64.214844 29.882812 C 53.316406 28.746094 50.394531 17.804688 49.617188 12.492188 C 54.046875 17.542969 58.867188 20.558594 63.96875 21.476562 Z M 63.96875 21.476562 "
     fill-opacity="1"
     fill-rule="nonzero"
     id="path3" />
  <g
     clip-path="url(#74b23d5c07)"
     id="g4">
    <path
       fill="#000000"
       d="M 87.550781 33.507812 C 77.453125 32.816406 71.691406 40.140625 66.601562 46.59375 C 63.621094 50.375 60.808594 53.941406 57.605469 55.117188 C 51.210938 57.457031 46.570312 55.285156 44.65625 54.0625 C 47.015625 52.363281 52.371094 47.796875 53.042969 40.933594 C 53.835938 32.84375 51.457031 22.382812 35.617188 18.511719 C 20.410156 14.796875 8.851562 28.65625 8.367188 29.25 C 8.144531 29.523438 8.101562 29.898438 8.261719 30.214844 L 14.714844 43.046875 C 14.839844 43.300781 15.082031 43.476562 15.359375 43.523438 C 15.636719 43.570312 15.925781 43.476562 16.125 43.277344 C 16.199219 43.207031 23.507812 36.082031 31.429688 36.082031 C 36.445312 36.082031 41.175781 38.414062 42.679688 41.632812 C 43.574219 43.546875 43.175781 45.605469 41.53125 47.589844 C 36.429688 53.746094 23.292969 51.535156 23.164062 51.515625 C 22.886719 51.46875 22.609375 51.550781 22.40625 51.742188 C 22.203125 51.929688 22.101562 52.207031 22.128906 52.484375 L 23.496094 65.300781 C 23.527344 65.609375 23.71875 65.875 23.996094 66.007812 C 24.277344 66.140625 24.605469 66.117188 24.863281 65.945312 C 24.933594 65.898438 31.890625 61.355469 38.503906 63.378906 C 45.234375 65.441406 50.707031 72.613281 50.707031 79.359375 C 50.707031 87.019531 46.050781 95.65625 32.976562 96.925781 C 19.628906 98.210938 9.226562 86.707031 6.53125 67.589844 C 6.46875 67.148438 6.09375 66.824219 5.65625 66.824219 C 5.648438 66.824219 5.640625 66.824219 5.632812 66.824219 C 5.179688 66.835938 4.8125 67.1875 4.773438 67.636719 C 3.597656 81.210938 7.585938 94.445312 15.4375 103.039062 C 20.792969 108.894531 27.425781 111.992188 34.625 111.992188 C 52.886719 111.992188 63.605469 95.492188 64.324219 83.578125 C 64.835938 75.09375 60.316406 66.90625 58.042969 63.363281 C 61.4375 63.894531 68.199219 64.4375 73.945312 61.78125 C 77.75 60.027344 79.640625 56.105469 81.46875 52.3125 C 83.445312 48.210938 85.15625 44.65625 88.890625 44.65625 C 88.964844 44.65625 89.035156 44.65625 89.109375 44.660156 C 91.367188 44.742188 93.363281 45.84375 95.042969 47.929688 C 98.589844 52.339844 100.050781 60.503906 98.675781 68.242188 C 96.738281 79.148438 92.121094 84.007812 84.183594 83.507812 C 76.644531 83.042969 72.089844 73.925781 72.042969 73.835938 C 71.867188 73.476562 71.476562 73.273438 71.082031 73.355469 C 70.691406 73.429688 70.398438 73.757812 70.363281 74.15625 C 69.738281 82.023438 71.507812 88.335938 75.480469 92.417969 C 78.992188 96.015625 84.15625 97.730469 90.429688 97.371094 C 103.410156 96.628906 108.035156 81.261719 108.035156 67.132812 C 108.035156 55.15625 103.722656 34.59375 87.550781 33.507812 Z M 90.332031 95.597656 C 84.496094 95.929688 79.933594 94.441406 76.75 91.175781 C 73.636719 87.980469 72.019531 83.195312 72.011719 77.222656 C 74.097656 80.265625 78.214844 84.917969 84.074219 85.277344 C 92.980469 85.832031 98.320312 80.359375 100.417969 68.554688 C 101.898438 60.210938 100.332031 51.679688 96.417969 46.816406 C 94.433594 44.34375 91.925781 42.984375 89.171875 42.882812 C 84.101562 42.695312 81.964844 47.195312 79.871094 51.539062 C 78.179688 55.050781 76.429688 58.679688 73.203125 60.167969 C 65.902344 63.542969 56.398438 61.25 56.304688 61.222656 C 55.941406 61.132812 55.558594 61.285156 55.351562 61.597656 C 55.148438 61.910156 55.160156 62.320312 55.386719 62.621094 C 55.464844 62.726562 63.179688 73.089844 62.554688 83.46875 C 61.878906 94.683594 51.796875 110.214844 34.621094 110.214844 C 27.933594 110.214844 21.75 107.316406 16.742188 101.835938 C 10.78125 95.316406 7.148438 85.972656 6.460938 75.863281 C 10.824219 91.125 20.792969 99.890625 33.148438 98.691406 C 47.417969 97.308594 52.480469 87.414062 52.480469 79.359375 C 52.480469 71.886719 46.445312 63.953125 39.023438 61.679688 C 33.296875 59.921875 27.5625 62.425781 25.109375 63.746094 L 24.011719 53.429688 C 27.527344 53.859375 38.035156 54.585938 42.894531 48.726562 C 44.980469 46.210938 45.472656 43.421875 44.285156 40.878906 C 42.503906 37.066406 37.097656 34.304688 31.429688 34.304688 C 24.378906 34.304688 18.046875 39.210938 15.769531 41.199219 L 10.109375 29.949219 C 12.179688 27.660156 22.535156 17.136719 35.195312 20.234375 C 46.921875 23.101562 52.332031 30.007812 51.28125 40.761719 C 50.523438 48.496094 42.738281 53.214844 42.660156 53.261719 C 42.417969 53.410156 42.257812 53.660156 42.230469 53.941406 C 42.207031 54.226562 42.3125 54.503906 42.523438 54.691406 C 42.78125 54.917969 48.867188 60.207031 58.210938 56.785156 C 61.882812 55.4375 64.851562 51.675781 67.992188 47.695312 C 72.808594 41.585938 78.269531 34.667969 87.433594 35.277344 C 102.300781 36.28125 106.265625 55.773438 106.265625 67.132812 C 106.265625 71.734375 105.496094 94.730469 90.332031 95.597656 Z M 90.332031 95.597656 "
       fill-opacity="1"
       fill-rule="nonzero"
       id="path4" />
  </g>
  <path
     style="fill:#ff6600;stroke-width:0.0997365"
     d="m 42.591675,146.66294 c -3.375204,-0.44052 -6.277525,-1.2981 -9.307582,-2.75021 -12.640442,-6.05775 -21.932869,-20.96771 -24.2148631,-38.85345 -0.3482525,-2.72952 -0.294398,-2.92984 0.3076923,-1.14451 1.3925998,4.12935 3.5477168,8.79623 5.4774508,11.86135 3.288581,5.22345 7.752767,9.6928 12.238557,12.25271 4.961431,2.83135 10.377069,4.06058 16.186291,3.67393 13.465522,-0.89623 23.073069,-8.0797 25.928667,-19.38661 0.609932,-2.41506 0.787235,-3.87951 0.783185,-6.46878 -0.0057,-3.6693 -0.702895,-6.427993 -2.573463,-10.183346 C 63.851208,88.504118 57.277143,83.19409 50.099108,81.675458 c -1.794221,-0.379597 -5.4342,-0.344896 -7.730426,0.0737 -2.154446,0.392746 -5.256617,1.404611 -7.303815,2.382355 l -1.505994,0.719265 -0.08011,-0.614187 C 33.174077,81.900677 32.14146,71.500766 32.207642,71.434586 c 0.0451,-0.0451 0.844583,-0.01451 1.776626,0.06799 0.932044,0.08249 2.83189,0.149847 4.22188,0.14967 10.583802,-0.0013 17.835814,-3.249 20.741216,-9.288515 1.339585,-2.784619 1.341183,-5.493178 0.0048,-8.176412 -1.566208,-3.144743 -5.219829,-5.913749 -9.670718,-7.329245 -4.943099,-1.572031 -9.647501,-1.571236 -14.56888,0.0025 -4.068625,1.301015 -8.371408,3.6759 -12.182639,6.724106 -0.772553,0.617886 -1.452313,1.073156 -1.510578,1.011715 -0.05826,-0.06144 -1.762907,-3.385639 -3.788095,-7.387107 l -3.682158,-7.275396 2.005842,-1.941651 c 5.579477,-5.400921 11.835685,-9.111443 18.076021,-10.720788 5.793374,-1.494077 10.531631,-1.261414 16.839783,0.826885 8.872105,2.937089 14.421782,7.837628 16.722962,14.766901 1.423943,4.28775 1.680937,9.78223 0.651254,13.923706 -1.131258,4.550032 -4.659606,9.465111 -9.216731,12.839148 -2.280816,1.688688 -2.359665,1.767164 -2.359665,2.348511 0,0.720282 0.288245,1.047919 1.795535,2.04091 4.789938,3.155572 10.940303,4.076763 17.011894,2.548011 3.121918,-0.78606 5.072016,-1.774442 7.496641,-3.799575 2.1542,-1.799265 3.733506,-3.56433 8.147769,-9.106121 6.117895,-7.680578 8.761201,-10.377148 12.748359,-13.005245 3.63564,-2.396395 7.3776,-3.527477 11.66997,-3.527477 5.29585,0 9.71253,1.655314 13.75124,5.153774 9.29365,8.050466 14.37528,27.267848 12.17935,46.059105 -1.21616,10.407044 -4.30706,18.619324 -8.82265,23.441054 -2.80191,2.99186 -6.15739,4.78599 -10.12687,5.4147 -2.16857,0.34345 -6.84346,0.22686 -9.10686,-0.22716 -7.69504,-1.54354 -12.94085,-6.20396 -15.407432,-13.68806 -0.825223,-2.5039 -1.495519,-6.5901 -1.495519,-9.11687 v -0.88882 l 0.990942,1.32346 c 1.573535,2.10155 4.299909,4.71739 6.308319,6.05255 2.88656,1.91894 5.35917,2.81115 8.55645,3.08745 2.0773,0.1795 4.59148,0.005 6.52802,-0.45297 6.7994,-1.60819 11.51466,-7.01074 14.18515,-16.252761 4.79825,-16.605725 0.57611,-34.291908 -9.27128,-38.836578 -3.6522,-1.685531 -7.5669,-1.403638 -10.51003,0.756813 -1.98756,1.459006 -3.52858,3.781552 -6.59514,9.939841 -1.26552,2.541434 -2.7164,5.25632 -3.22418,6.033079 -1.19757,1.831944 -3.414139,4.06673 -4.790013,4.829387 -2.03912,1.1303 -5.78224,2.209655 -9.091023,2.621459 -3.331268,0.414604 -9.129366,0.146566 -12.981131,-0.600098 -1.689899,-0.327587 -2.079636,-0.272111 -2.490181,0.354463 -0.37222,0.568077 -0.212832,0.990639 1.155331,3.062956 3.531052,5.348385 6.430655,11.928226 7.62563,17.304239 1.738742,7.82236 0.703805,15.08641 -3.262179,22.89668 -2.173842,4.28097 -4.439077,7.41008 -7.809331,10.78753 -5.753241,5.76551 -12.278437,9.11226 -20.14696,10.33329 -2.085056,0.32356 -6.742082,0.40247 -8.696729,0.14736 z"
     id="path5"
     transform="scale(0.74999999)" />
  <path
     style="fill:#ff6600;stroke-width:0.0997365"
     d="m 86.149653,39.833447 c -6.55171,-0.713624 -11.402715,-3.668209 -14.927886,-9.092076 -1.857784,-2.858407 -3.519744,-7.012779 -4.403755,-11.007985 -0.239533,-1.08255 -0.436616,-2.113482 -0.437963,-2.29096 -0.0019,-0.247002 0.459564,0.139335 1.967325,1.647133 5.112244,5.112374 10.60647,8.31818 16.219338,9.463762 7.349592,1.500047 15.283596,-0.203166 23.405558,-5.02453 0.75987,-0.451075 1.40207,-0.795168 1.42712,-0.764652 0.0251,0.03052 1.36534,1.817222 2.97843,3.970456 3.39891,4.53706 3.27914,3.84779 0.97106,5.588266 -4.995,3.766617 -11.06877,6.272289 -17.684856,7.295705 -1.856003,0.287098 -7.649976,0.417953 -9.514371,0.214881 z"
     id="path6"
     transform="scale(0.74999999)" />
  <path
     style="fill:#ff6600;stroke-width:0.0997365"
     d="m 83.102081,15.163528 -4.012501,-4.014567 4.013875,-4.0138747 4.013875,-4.0138751 4.012502,4.0145668 4.012501,4.014567 -4.013875,4.013875 -4.013875,4.013875 z"
     id="path7"
     transform="scale(0.74999999)" />
  <path
     style="fill:#ff6600;stroke-width:0.0997365"
     d="M 43.557978,149.15507 C 38.592942,148.72392 32.97799,146.84781 28.914767,144.26236 25.458309,142.063 21.311848,138.32178 18.734994,135.07747 11.546708,126.02727 7.2188626,114.14704 6.3255237,101.01262 6.1323717,98.172784 6.1308304,94.600946 6.3216151,91.95474 6.451412,90.154443 6.5135157,89.835639 6.79221,89.538982 c 0.3973552,-0.422966 1.0581024,-0.444864 1.4547519,-0.04821 0.3412778,0.341279 0.3247304,0.275319 0.8214488,3.274347 0.2099057,1.267343 0.6783373,3.523995 1.0409593,5.01478 3.418948,14.055751 10.401158,24.345931 19.6359,28.938851 5.943087,2.9558 12.578688,3.48317 19.916006,1.58285 7.375999,-1.91034 12.693657,-5.98844 15.612935,-11.97354 1.651952,-3.38683 2.340263,-6.42486 2.340875,-10.33201 5.27e-4,-3.37194 -0.504023,-5.58134 -2.001813,-8.765814 -1.22617,-2.606977 -2.736068,-4.711508 -5.025001,-7.003968 -4.82316,-4.830591 -10.229856,-7.000434 -15.915329,-6.387221 -3.55738,0.383685 -7.459711,1.65922 -10.698444,3.496943 -1.341691,0.761304 -1.746501,0.820434 -2.21351,0.323326 -0.30403,-0.323625 -0.39514,-0.976396 -1.270898,-9.10555 -0.750612,-6.967504 -0.908948,-8.832602 -0.77485,-9.127234 0.292952,-0.643657 0.734215,-0.733091 2.39576,-0.485567 1.979337,0.294867 9.604698,0.340399 11.298315,0.06746 4.481115,-0.722154 7.149217,-1.64453 9.632841,-3.330125 1.765356,-1.198117 3.393434,-3.210896 4.124045,-5.098517 0.476584,-1.231315 0.497584,-3.345472 0.04523,-4.553922 -1.255171,-3.353188 -5.215573,-6.187061 -10.368615,-7.419285 -5.828765,-1.393808 -11.901113,-0.154152 -18.387282,3.753718 -1.983354,1.194956 -4.268543,2.859822 -6.057255,4.412991 -1.37705,1.195716 -1.707913,1.348817 -2.26759,1.049287 -0.177951,-0.09524 -2.020905,-3.615479 -4.749379,-9.071832 -3.699569,-7.398329 -4.441417,-8.98463 -4.35771,-9.318145 0.134867,-0.537353 4.27169,-4.652423 6.369853,-6.336356 4.133423,-3.317382 9.106812,-6.108942 13.379583,-7.509949 7.415425,-2.431459 13.971434,-2.189852 22.027725,0.811784 9.717046,3.620405 15.675096,10.020695 17.427305,18.720856 0.920122,4.568641 0.745309,9.816473 -0.450646,13.528246 -0.594217,1.844217 -2.013426,4.630713 -3.21378,6.309978 -1.21547,1.700413 -3.994253,4.612772 -5.742891,6.01895 -0.704884,0.566837 -1.281608,1.084625 -1.281608,1.150638 0,0.204452 2.639771,1.457919 4.020698,1.909185 2.446581,0.799506 5.771041,1.089177 8.418991,0.733575 1.586438,-0.213048 4.341009,-0.954549 5.502607,-1.481244 1.989092,-0.901897 4.057761,-2.560384 6.533096,-5.23769 0.62393,-0.674838 2.742862,-3.233917 4.708739,-5.686841 4.298768,-5.363789 5.683738,-6.973705 7.874524,-9.153504 4.512323,-4.489697 9.031163,-7.10386 14.040973,-8.122763 1.0193,-0.207309 2.00109,-0.263866 4.49998,-0.259228 3.60245,0.0067 4.89951,0.206615 7.75239,1.194943 5.12636,1.775939 9.71037,5.688969 13.1181,11.197972 5.61293,9.073973 8.68644,23.665688 7.81609,37.107457 -0.89132,13.765656 -4.5811,24.001996 -10.79713,29.953926 -4.0068,3.83656 -8.39689,5.49943 -14.51886,5.49943 -9.6504,0 -16.94034,-3.79888 -21.040333,-10.96437 -2.630021,-4.59645 -3.910989,-10.59168 -3.69404,-17.28899 0.09116,-2.814084 0.204835,-3.293735 0.843303,-3.558196 0.674786,-0.279505 1.044039,0.02585 2.014502,1.665897 3.667908,6.198659 8.627338,10.380869 13.657288,11.517019 1.48714,0.33591 5.40142,0.32591 6.98774,-0.0178 6.59309,-1.42873 10.80077,-6.25733 13.25456,-15.210499 1.20916,-4.41185 1.7265,-8.233679 1.72573,-12.748558 -0.002,-9.06171 -2.49796,-16.670664 -6.80661,-20.7462 -1.65104,-1.561715 -3.05897,-2.329474 -5.0114,-2.732759 -2.79817,-0.577977 -4.85618,-0.02741 -6.81906,1.824277 -1.48071,1.396822 -2.50595,3.050426 -5.1128,8.246408 -3.19676,6.371789 -4.44752,8.307044 -6.65863,10.302654 -2.518958,2.273457 -6.730497,3.902374 -11.90906,4.606122 -2.544318,0.345764 -7.672514,0.348473 -10.467176,0.0055 -1.096391,-0.134543 -2.023094,-0.214969 -2.059338,-0.178723 -0.03625,0.03624 0.367135,0.789346 0.896398,1.673558 3.594162,6.004565 6.04533,12.408088 7.045708,18.40647 0.38238,2.29278 0.37858,7.8268 -0.0068,9.96035 -0.908642,5.02997 -2.724635,9.91114 -5.374882,14.44704 -5.582087,9.55373 -14.59572,16.59748 -24.389396,19.05922 -3.96639,0.997 -8.48641,1.41217 -12.027033,1.10471 z m 7.788828,-2.49537 c 5.062769,-0.73271 10.115069,-2.66619 14.340682,-5.4881 2.466223,-1.64696 3.842328,-2.77965 5.970553,-4.91441 5.960254,-5.97857 9.913256,-13.48888 11.467665,-21.78742 0.42066,-2.24578 0.379664,-7.62598 -0.07759,-10.18335 -0.725989,-4.06032 -2.305392,-8.659755 -4.441277,-12.933596 -1.3895,-2.780346 -1.963637,-3.781188 -3.652103,-6.366373 -1.178954,-1.80508 -1.325712,-2.101729 -1.205997,-2.437738 0.07497,-0.21041 0.303545,-0.505929 0.507955,-0.656708 0.361489,-0.266645 0.410293,-0.266328 1.783945,0.01157 3.970797,0.803315 9.93404,1.034276 13.751239,0.532597 3.762348,-0.494473 7.494917,-1.702004 9.386491,-3.036647 2.697291,-1.903128 4.121351,-3.991522 7.815201,-11.460972 2.74765,-5.556116 4.29098,-7.703325 6.64482,-9.244844 1.60281,-1.049671 2.80523,-1.386249 4.9196,-1.377068 2.64866,0.0115 4.86056,0.771938 7.14532,2.456502 2.5865,1.90705 5.03745,5.504628 6.57571,9.65203 1.66204,4.481153 2.49631,10.627171 2.18382,16.088087 -0.60302,10.538081 -4.16719,19.9152 -9.16029,24.10017 -3.28929,2.75693 -6.83592,3.99335 -11.50176,4.00973 -4.26764,0.015 -7.15017,-0.90229 -10.76552,-3.42576 -1.48948,-1.03964 -4.621852,-4.14883 -5.880166,-5.83665 -0.518138,-0.69499 -1.007191,-1.33052 -1.086785,-1.41229 -0.207966,-0.21363 -0.02888,3.49665 0.265502,5.5005 0.609499,4.14892 1.885705,7.65977 3.863789,10.62933 0.96687,1.45151 3.42018,3.92077 4.83212,4.86354 2.83768,1.89477 6.10547,3.03505 9.94865,3.47155 2.00203,0.22738 6.83957,0.0959 8.23632,-0.22381 3.41947,-0.78278 6.10807,-2.2495 8.57441,-4.67764 5.23673,-5.1556 8.43658,-13.87601 9.6879,-26.401921 0.29482,-2.951317 0.25212,-10.708222 -0.0761,-13.825569 -1.76548,-16.767026 -7.93715,-28.852369 -16.97075,-33.232082 -2.97335,-1.441551 -4.96834,-1.914298 -8.56655,-2.029982 -2.09503,-0.06736 -2.92916,-0.03259 -4.16253,0.173477 -3.92765,0.656225 -7.7188,2.498469 -11.26131,5.47223 -2.768798,2.324264 -4.869959,4.621215 -9.209175,10.067298 -7.701003,9.665407 -10.195541,11.870655 -15.115605,13.362656 -2.596797,0.787475 -3.903471,0.976683 -6.764123,0.979451 -3.738163,0.0036 -5.968158,-0.512526 -9.291377,-2.15053 -2.233645,-1.100957 -3.548424,-2.116387 -3.61429,-2.79139 -0.05573,-0.571148 0.146284,-0.786909 1.911357,-2.041416 1.554305,-1.104704 5.028777,-4.522466 6.128972,-6.028931 2.947708,-4.036216 4.122028,-7.739719 4.122028,-12.99981 0,-11.515617 -6.072734,-19.241906 -18.2111,-23.169831 -3.474413,-1.124306 -5.73379,-1.565597 -8.631526,-1.685869 -7.737931,-0.321167 -15.719944,2.733964 -23.288811,8.913838 -1.882403,1.536956 -5.021692,4.521208 -5.023101,4.775031 -7.3e-4,0.131633 7.354762,14.883299 7.522234,15.086074 0.02454,0.02972 0.733888,-0.500624 1.576323,-1.178532 4.926513,-3.964372 10.429258,-6.668007 15.580262,-7.654968 1.891105,-0.362346 5.615568,-0.370344 7.581765,-0.01628 4.966583,0.894356 9.383716,3.186171 11.760081,6.101682 1.388798,1.703886 2.357649,4.185535 2.357649,6.038966 0,1.068944 -0.397063,2.65328 -0.964315,3.847754 -2.885032,6.075058 -10.136188,9.374856 -20.615585,9.381575 -1.365095,8.76e-4 -3.327641,-0.07067 -4.361211,-0.159001 -1.03357,-0.08833 -1.896656,-0.138501 -1.917969,-0.111497 -0.04267,0.05407 1.408695,13.704782 1.463078,13.760856 0.01859,0.01917 0.858773,-0.338112 1.867073,-0.793955 2.321991,-1.04975 4.43343,-1.741859 6.82159,-2.236052 2.569901,-0.5318 5.883306,-0.559594 8.188264,-0.06869 8.75935,1.865563 16.851227,10.116617 19.042089,19.416668 1.129438,4.79438 0.405232,10.54651 -1.955387,15.53101 -3.220479,6.80013 -9.243201,11.53336 -17.321297,13.61274 -9.086726,2.33902 -17.452528,1.12917 -24.414597,-3.53081 -2.79196,-1.86876 -5.935869,-4.81166 -8.066227,-7.5505 -3.52366,-4.5301 -6.587533,-10.63942 -8.5365741,-17.0218 -0.224721,-0.73588 -0.4380725,-1.25252 -0.4741148,-1.14809 -0.036042,0.10443 0.044779,1.20824 0.1796033,2.45292 1.8031286,16.64626 9.3271676,30.68841 20.4512226,38.1682 3.753379,2.52377 8.563023,4.37398 12.705745,4.88775 0.735877,0.0913 1.538652,0.1933 1.783944,0.22674 0.988452,0.13477 6.052913,-0.0519 7.640166,-0.28164 z"
     id="path8"
     transform="scale(0.74999999)" />
  <path
     style="fill:#ff6600;stroke-width:0.0997365"
     d="M 86.15803,42.213416 C 78.918917,41.518052 73.604191,38.352153 69.569937,32.332148 66.802477,28.202483 64.71192,22.322702 63.847513,16.23759 c -0.460046,-3.238555 -0.388056,-4.054708 0.383528,-4.348063 0.601549,-0.228709 0.991469,0.0498 2.222351,1.587365 1.441132,1.800199 4.456683,4.907528 6.220007,6.409313 2.647348,2.254687 6.300502,4.428876 9.165055,5.454618 7.877687,2.820852 16.739824,1.293254 25.965136,-4.4757 1.44931,-0.906306 1.83652,-1.048462 2.33491,-0.85721 0.12498,0.04796 1.97015,2.412295 4.10037,5.254078 2.98799,3.986082 3.87326,5.265659 3.87374,5.599123 10e-4,0.789952 -2.79887,3.204192 -6.21719,5.360633 -4.60661,2.906074 -9.90524,4.837896 -15.68785,5.719615 -2.253246,0.343569 -7.754592,0.492499 -10.04954,0.272054 z m 9.505993,-2.445458 c 6.528697,-1.003136 12.080877,-3.219441 17.211337,-6.870377 0.7134,-0.507669 1.61335,-1.210098 1.9999,-1.560952 l 0.70282,-0.637918 -3.07603,-4.121299 -3.07603,-4.121301 -0.5257,0.317626 c -5.45089,3.293452 -10.586304,5.283308 -15.317565,5.93521 -1.802701,0.248388 -5.817195,0.249591 -7.358771,0.0022 -5.040039,-0.808805 -9.597625,-2.89728 -14.122477,-6.471505 -0.81787,-0.646045 -2.482508,-2.170396 -3.699193,-3.387448 -1.216686,-1.217052 -2.235681,-2.189297 -2.264434,-2.160544 -0.103818,0.103817 0.41286,2.750447 0.907688,4.649542 0.979456,3.759046 2.458428,7.193592 4.252962,9.876449 1.146764,1.714431 3.43544,4.115051 4.988659,5.232666 2.847023,2.048567 6.416512,3.26741 10.531443,3.596081 1.657668,0.132401 7.334557,-0.04629 8.845391,-0.278434 z"
     id="path9"
     transform="scale(0.74999999)" />
  <path
     style="fill:#ff6600;stroke-width:0.0997365"
     d=""
     id="path10"
     transform="scale(0.74999999)" />
  <path
     style="fill:#ff6600;stroke-width:0.0997365"
     d="m 86.521308,21.876424 c -0.245293,-0.150212 -2.670342,-2.531838 -5.388999,-5.292506 -4.357536,-4.424871 -4.943013,-5.074196 -4.943013,-5.482064 0,-0.409629 0.590759,-1.054318 5.153157,-5.6235867 2.834237,-2.8385046 5.310572,-5.20042578 5.502968,-5.24871398 0.192395,-0.0482882 0.508418,-0.002621 0.702272,0.10148355 0.193854,0.10410415 2.634515,2.50865833 5.423692,5.34345393 3.716676,3.7774635 5.071231,5.2460622 5.071231,5.4981882 0,0.254059 -1.390339,1.734355 -5.316975,5.66099 -2.924336,2.924337 -5.416283,5.316725 -5.537661,5.316419 -0.121377,-3.05e-4 -0.42138,-0.123455 -0.666672,-0.273664 z m 4.830308,-6.650923 4.062683,-4.100564 -4.073827,-4.0758482 c -2.240605,-2.2417164 -4.141637,-4.075848 -4.224516,-4.075848 -0.08288,0 -1.98947,1.8396928 -4.236868,4.0882061 l -4.086179,4.0882061 4.086179,4.088206 c 2.247398,2.248514 4.159003,4.088206 4.248012,4.088206 0.08901,0 1.99004,-1.845254 4.224516,-4.100564 z"
     id="path11"
     transform="scale(0.74999999)" />
</svg>
