<?xml version="1.0" encoding="UTF-8" standalone="no"?>
<!-- Generator: Adobe Illustrator 19.0.0, SVG Export Plug-In  -->

<svg
   version="1.1"
   x="0px"
   y="0px"
   width="150.3px"
   height="150px"
   viewBox="0 0 150.3 150"
   style="enable-background:new 0 0 150.3 150;"
   xml:space="preserve"
   id="svg2"
   sodipodi:docname="html5.svg"
   inkscape:version="1.4 (e7c3feb1, 2024-10-09)"
   xmlns:inkscape="http://www.inkscape.org/namespaces/inkscape"
   xmlns:sodipodi="http://sodipodi.sourceforge.net/DTD/sodipodi-0.dtd"
   xmlns="http://www.w3.org/2000/svg"
   xmlns:svg="http://www.w3.org/2000/svg"><sodipodi:namedview
   id="namedview2"
   pagecolor="#ffffff"
   bordercolor="#000000"
   borderopacity="0.25"
   inkscape:showpageshadow="2"
   inkscape:pageopacity="0.0"
   inkscape:pagecheckerboard="0"
   inkscape:deskcolor="#d1d1d1"
   inkscape:zoom="6.7266667"
   inkscape:cx="75.222993"
   inkscape:cy="73.58771"
   inkscape:window-width="1600"
   inkscape:window-height="1301"
   inkscape:window-x="0"
   inkscape:window-y="25"
   inkscape:window-maximized="0"
   inkscape:current-layer="svg2" />
<style
   type="text/css"
   id="style1">
	.st0{fill:#D8D8D8;}
	.st1{filter:url(#Adobe_OpacityMaskFilter);}
	.st2{fill:#FFFFFF;}
	.st3{mask:url(#mask-2_1_);}
	.st4{fill:#F16529;}
	.st5{display:none;fill-opacity:0.2;stroke:#979797;}
	.st6{filter:url(#Adobe_OpacityMaskFilter_1_);}
	.st7{mask:url(#mask-2_6_);}
</style>
<defs
   id="defs1">
<clipPath
   id="74b23d5c07"><path
     d="m 4,17 h 104.09766 v 95 H 4 Z m 0,0"
     clip-rule="nonzero"
     id="path1" /></clipPath></defs>
<g
   id="Page-1_2_">
	<g
   id="Artboard-1_2_">
		<g
   id="Group_2_">
			<g
   id="Mask_2_">
				<circle
   id="path-1_2_"
   class="st0"
   cx="75"
   cy="75"
   r="75" />
			</g>
			<defs
   id="defs2">
				<filter
   id="Adobe_OpacityMaskFilter"
   filterUnits="userSpaceOnUse"
   x="0"
   y="0"
   width="150.3"
   height="150">
					<feColorMatrix
   type="matrix"
   values="1 0 0 0 0  0 1 0 0 0  0 0 1 0 0  0 0 0 1 0"
   id="feColorMatrix1" />
				</filter>
			</defs>
			<mask
   maskUnits="userSpaceOnUse"
   x="0"
   y="0"
   width="150.3"
   height="150"
   id="mask-2_1_">
				<g
   id="XMLID_17_"
   class="st1">
					<circle
   id="path-1_1_"
   class="st2"
   cx="75"
   cy="75"
   r="75" />
				</g>
			</mask>
			<g
   id="XMLID_15_"
   class="st3"
   mask="url(#mask-2_1_)">
				<path
   id="XMLID_22_"
   class="st4"
   d="M92.3,148.8c3.2-1,6.5-1.7,9.7-2.6c0.8-0.2,1.6-0.5,2.4-0.8c0.4-0.1,0.7-0.3,1.1-0.4      c0,0,0,0,0,0c0-0.1,0.4-0.2,0.4-0.2c0.1,0,0.2-0.1,0.2-0.1c1.5-0.7,3-1.6,4.4-2.6c2.8-2,5.7-4,8.5-5.9c1.5-1,2.9-1.9,4.4-2.8      c0.7-0.4,1.4-0.8,2-1.2c0.3-0.2,0.6-0.4,0.9-0.6c0,0,0,0,0.1-0.1c-0.2,0.1,0.1-0.2,0.3-0.2c1.1-0.9,2.1-1.8,3-2.8      c0.5-0.6,1-1.1,1.5-1.7c0.2-0.3,0.4-0.5,0.6-0.8c0,0,0.1-0.1,0.1-0.1c-0.1,0.1-0.1,0,0.2-0.3c1.7-2.3,3.2-4.6,4.8-7      c0.8-1.2,1.5-2.4,2.3-3.6c0.8-1.3,1.8-2.5,2.7-3.7c0.9-1.3,1.6-2.7,2.3-4.2c0-0.1,0.2-0.3,0.2-0.4c0,0.1-0.1,0.1-0.2,0.3      c0.1-0.2,0.1-0.4,0.2-0.5c0.2-0.4,0.3-0.9,0.5-1.3c0.3-0.8,0.6-1.6,0.8-2.4c0.5-1.6,1-3.2,1.5-4.8c0.2-0.8,0.5-1.6,0.7-2.4      c0.1-0.4,0.2-0.9,0.3-1.3c0-0.2,0.1-0.4,0.1-0.5c0.1-0.7,0,0.1,0,0.2c0.3-1.7,0.7-3.4,1.1-5.1c0.1-0.4,0.2-0.8,0.3-1.2      c0-0.2,0.1-0.3,0.1-0.5c0-0.3,0-0.5,0-0.8c0-0.1,0-0.2,0-0.3c-0.2-0.9-0.1-1.7,0.2-2.4V0H0v150h90.5      C91,149.5,91.6,149,92.3,148.8z" />
				<path
   id="XMLID_18_"
   class="st5"
   d="M92.3,148.8c3.2-1,6.5-1.7,9.7-2.6c0.8-0.2,1.6-0.5,2.4-0.8c0.4-0.1,0.7-0.3,1.1-0.4      c0,0,0,0,0,0c0-0.1,0.4-0.2,0.4-0.2c0.1,0,0.2-0.1,0.2-0.1c1.5-0.7,3-1.6,4.4-2.6c2.8-2,5.7-4,8.5-5.9c1.5-1,2.9-1.9,4.4-2.8      c0.7-0.4,1.4-0.8,2-1.2c0.3-0.2,0.6-0.4,0.9-0.6c0,0,0,0,0.1-0.1c-0.2,0.1,0.1-0.2,0.3-0.2c1.1-0.9,2.1-1.8,3-2.8      c0.5-0.6,1-1.1,1.5-1.7c0.2-0.3,0.4-0.5,0.6-0.8c0,0,0.1-0.1,0.1-0.1c-0.1,0.1-0.1,0,0.2-0.3c1.7-2.3,3.2-4.6,4.8-7      c0.8-1.2,1.5-2.4,2.3-3.6c0.8-1.3,1.8-2.5,2.7-3.7c0.9-1.3,1.6-2.7,2.3-4.2c0-0.1,0.2-0.3,0.2-0.4c0,0.1-0.1,0.1-0.2,0.3      c0.1-0.2,0.1-0.4,0.2-0.5c0.2-0.4,0.3-0.9,0.5-1.3c0.3-0.8,0.6-1.6,0.8-2.4c0.5-1.6,1-3.2,1.5-4.8c0.2-0.7,0.4-1.4,0.6-2.1      c0.1-0.2,0.1-0.5,0.2-0.7c0.1-0.3,0.1-0.6,0.2-0.9c0-0.2,0.1-0.4,0.1-0.5c0.1-0.7,0,0.1,0,0.2c0.3-1.7,0.7-3.4,1.1-5.1      c0.1-0.4,0.2-0.8,0.3-1.2c0-0.2,0.1-0.3,0.1-0.5c0-0.3,0-0.5,0-0.8c0-0.1,0-0.2,0-0.3c-0.1-0.6-0.1-1.2,0-1.7l-42.3-47.1v13.5      l-22.2-5.9l-31.7,5.9L56,68l9.4-1.5L94.6,68v8.8H45.1l1.8,28.4l45.2,43.8C92.1,148.9,92.2,148.9,92.3,148.8z" />
				
			</g>
		</g>
	</g>
</g><path
   fill="#000000"
   d="m 87.383741,22.609055 c 0.233042,0.181688 0.541956,0.283096 0.867128,0.283096 0.330595,0 0.639508,-0.101414 0.872548,-0.283096 L 99.339273,14.61896 c 0.22762,-0.177466 0.357689,-0.422534 0.357689,-0.676054 0,-0.257744 -0.130067,-0.502813 -0.357689,-0.680278 L 89.123417,5.2725339 c -0.460661,-0.3633784 -1.279013,-0.3633784 -1.739676,0 L 77.167887,13.262628 c -0.47692,0.376056 -0.47692,0.980276 0,1.356332 z m 0.872548,-15.299913 8.476179,6.633764 -8.476179,6.629541 -8.481597,-6.629541 z m 0,0"
   fill-opacity="1"
   fill-rule="nonzero"
   id="path2"
   style="stroke-width:1.22504" /><path
   fill="#000000"
   d="m 84.959583,41.391812 c 1.548429,0.133796 3.038425,0.194613 4.47486,0.194613 16.355877,0 25.529577,-8.043995 25.943467,-8.412948 0.3652,-0.32841 0.39441,-0.827104 0.073,-1.183895 l -6.90462,-7.666932 c -0.34572,-0.389227 -0.9982,-0.486532 -1.48513,-0.214886 -7.756747,4.26121 -15.084998,5.911363 -21.789984,4.909919 -6.704984,-1.0055 -13.049643,-4.707197 -18.858682,-10.995622 -0.292156,-0.316246 -0.793691,-0.437878 -1.246534,-0.304082 -0.447972,0.133796 -0.744997,0.49464 -0.730391,0.896029 0.0097,0.210829 0.968986,21.074942 20.523974,22.777804 z m -0.07791,-10.561798 c 7.026358,1.054153 14.593202,-0.535184 22.520377,-4.715306 l 5.69705,6.333025 c -2.55637,1.93802 -12.4069,8.457547 -27.910664,7.10742 C 71.603175,38.375314 67.960962,27.018848 66.991978,21.504819 c 5.521751,5.242381 11.530431,8.372404 17.889698,9.325195 z m 0,0"
   fill-opacity="1"
   fill-rule="nonzero"
   id="path3"
   style="stroke-width:1.13746" /><g
   clip-path="url(#74b23d5c07)"
   id="g4"
   transform="matrix(1.3005258,0,0,1.2744033,1.9243003,-3.0223563)"><path
     fill="#000000"
     d="M 87.550781,33.507812 C 77.453125,32.816406 71.691406,40.140625 66.601562,46.59375 63.621094,50.375 60.808594,53.941406 57.605469,55.117188 51.210938,57.457031 46.570312,55.285156 44.65625,54.0625 47.015625,52.363281 52.371094,47.796875 53.042969,40.933594 53.835938,32.84375 51.457031,22.382812 35.617188,18.511719 20.410156,14.796875 8.851562,28.65625 8.367188,29.25 8.144531,29.523438 8.101562,29.898438 8.261719,30.214844 l 6.453125,12.832031 c 0.125,0.253906 0.367187,0.429687 0.644531,0.476563 0.277344,0.04687 0.566406,-0.04688 0.765625,-0.246094 0.07422,-0.07031 7.382812,-7.195313 15.304688,-7.195313 5.015624,0 9.746093,2.332031 11.25,5.550781 0.894531,1.914063 0.496093,3.972657 -1.148438,5.957032 -5.101562,6.15625 -18.238281,3.945312 -18.367188,3.925781 -0.277343,-0.04687 -0.554687,0.03516 -0.757812,0.226563 -0.203125,0.1875 -0.304688,0.464843 -0.277344,0.742187 l 1.367188,12.816406 c 0.03125,0.308594 0.222656,0.574219 0.5,0.707031 0.28125,0.132813 0.609375,0.109376 0.867187,-0.0625 0.07031,-0.04687 7.027344,-4.589843 13.640625,-2.566406 6.730469,2.0625 12.203125,9.234375 12.203125,15.980469 0,7.660156 -4.65625,16.296875 -17.730469,17.566406 -13.347656,1.285157 -23.75,-10.21875 -26.445312,-29.335937 -0.0625,-0.441406 -0.4375,-0.765625 -0.875,-0.765625 -0.00781,0 -0.015625,0 -0.023438,0 -0.453124,0.01172 -0.820312,0.363281 -0.859374,0.8125 -1.175782,13.574219 2.8125,26.808593 10.664062,35.402341 5.355469,5.85547 11.988281,8.95313 19.1875,8.95313 18.261719,0 28.980469,-16.500002 29.699219,-28.414065 C 64.835938,75.09375 60.316406,66.90625 58.042969,63.363281 61.4375,63.894531 68.199219,64.4375 73.945312,61.78125 77.75,60.027344 79.640625,56.105469 81.46875,52.3125 c 1.976562,-4.101562 3.6875,-7.65625 7.421875,-7.65625 0.07422,0 0.144531,0 0.21875,0.0039 2.257813,0.08203 4.253906,1.183594 5.933594,3.269532 3.546875,4.410156 5.007811,12.574218 3.632812,20.3125 -1.9375,10.90625 -6.554687,15.765624 -14.492187,15.265624 -7.539063,-0.464843 -12.09375,-9.582031 -12.140625,-9.671874 -0.175781,-0.359376 -0.566407,-0.5625 -0.960938,-0.480469 -0.390625,0.07422 -0.683593,0.402343 -0.71875,0.800781 -0.625,7.867188 1.144531,14.179688 5.117188,18.261719 3.511719,3.597656 8.675781,5.3125 14.949219,4.953125 12.980472,-0.742188 17.605472,-16.109375 17.605472,-30.238282 0,-11.976562 -4.3125,-32.539062 -20.484379,-33.625 z m 2.78125,62.089844 C 84.496094,95.929688 79.933594,94.441406 76.75,91.175781 73.636719,87.980469 72.019531,83.195312 72.011719,77.222656 c 2.085937,3.042969 6.203125,7.695313 12.0625,8.054688 8.90625,0.554687 14.246093,-4.917969 16.343751,-16.722656 1.48047,-8.34375 -0.0859,-16.875 -4.000001,-21.738282 -1.984375,-2.472656 -4.492188,-3.832031 -7.246094,-3.933594 -5.070313,-0.1875 -7.207031,4.3125 -9.300781,8.65625 -1.691406,3.511719 -3.441406,7.140626 -6.667969,8.628907 -7.300781,3.375 -16.804687,1.082031 -16.898437,1.054687 -0.363282,-0.08984 -0.746094,0.0625 -0.953126,0.375 -0.203124,0.3125 -0.191406,0.722656 0.03516,1.023438 0.07813,0.105468 7.792969,10.46875 7.167969,20.847656 -0.675782,11.214844 -10.757813,26.74609 -27.933594,26.74609 -6.6875,0 -12.871094,-2.89843 -17.878906,-8.3789 C 10.78125,95.316406 7.148438,85.972656 6.460938,75.863281 10.824219,91.125 20.792969,99.890625 33.148438,98.691406 47.417969,97.308594 52.480469,87.414062 52.480469,79.359375 c 0,-7.472656 -6.035157,-15.40625 -13.457031,-17.679687 C 33.296875,59.921875 27.5625,62.425781 25.109375,63.746094 L 24.011719,53.429688 c 3.515625,0.429687 14.023437,1.15625 18.882812,-4.703126 2.085938,-2.515624 2.578125,-5.304687 1.390625,-7.847656 -1.78125,-3.8125 -7.1875,-6.574218 -12.855468,-6.574218 -7.050782,0 -13.382813,4.90625 -15.660157,6.894531 l -5.660156,-11.25 c 2.070313,-2.289063 12.425781,-12.8125 25.085937,-9.714844 11.726563,2.867187 17.136719,9.773437 16.085938,20.527344 -0.757812,7.734375 -8.542969,12.453125 -8.621094,12.5 -0.242187,0.148437 -0.402344,0.398437 -0.429687,0.679687 -0.02344,0.285156 0.08203,0.5625 0.292969,0.75 0.257812,0.226563 6.34375,5.515625 15.6875,2.09375 3.671874,-1.347656 6.640624,-5.109375 9.78125,-9.089844 4.816406,-6.109374 10.277343,-13.027343 19.441406,-12.417968 14.867186,1.003906 18.832036,20.496094 18.832036,31.855468 0,4.601563 -0.76954,27.597657 -15.933599,28.464844 z m 0,0"
     fill-opacity="1"
     fill-rule="nonzero"
     id="path4" /></g>
</svg>
