<?xml version="1.0" encoding="UTF-8" standalone="no"?>
<!-- Generator: Adobe Illustrator 19.0.0, SVG Export Plug-In  -->

<svg
   version="1.1"
   x="0px"
   y="0px"
   width="150.5px"
   height="151px"
   viewBox="0 0 150.5 151"
   style="enable-background:new 0 0 150.5 151;"
   xml:space="preserve"
   id="svg2"
   sodipodi:docname="jewish star with color.svg"
   inkscape:version="1.4 (e7c3feb1, 2024-10-09)"
   xmlns:inkscape="http://www.inkscape.org/namespaces/inkscape"
   xmlns:sodipodi="http://sodipodi.sourceforge.net/DTD/sodipodi-0.dtd"
   xmlns="http://www.w3.org/2000/svg"
   xmlns:svg="http://www.w3.org/2000/svg"><sodipodi:namedview
   id="namedview2"
   pagecolor="#ffffff"
   bordercolor="#000000"
   borderopacity="0.25"
   inkscape:showpageshadow="2"
   inkscape:pageopacity="0.0"
   inkscape:pagecheckerboard="0"
   inkscape:deskcolor="#d1d1d1"
   inkscape:zoom="6.6821192"
   inkscape:cx="75.27552"
   inkscape:cy="75.5"
   inkscape:window-width="1200"
   inkscape:window-height="1186"
   inkscape:window-x="371"
   inkscape:window-y="140"
   inkscape:window-maximized="0"
   inkscape:current-layer="svg2" />
<style
   type="text/css"
   id="style1">
	.st0{fill:#D8D8D8;}
	.st1{filter:url(#Adobe_OpacityMaskFilter);}
	.st2{fill:#FFFFFF;}
	.st3{mask:url(#mask-2_1_);}
	.st4{fill:#33A9DC;}
	.st5{display:none;fill-opacity:0.2;stroke:#979797;}
	.st6{filter:url(#Adobe_OpacityMaskFilter_1_);}
	.st7{mask:url(#mask-2_6_);}
</style>
<defs
   id="defs1">
<clipPath
   id="4d32bd4c2d"><path
     d="M 11.503906,0 H 100.35938 V 112.00391 H 11.503906 Z m 0,0"
     clip-rule="nonzero"
     id="path1" /></clipPath></defs>
<g
   id="Page-1_1_"
   style="fill:#0038b8;fill-opacity:1"
   transform="translate(-0.01050147,1.3429826)">
	<g
   id="Artboard-1_1_"
   style="fill:#0038b8;fill-opacity:1">
	</g>
	<g
   id="Group_1_"
   style="fill:#0038b8;fill-opacity:1">
		<g
   id="Mask_1_"
   style="fill:#0038b8;fill-opacity:1">
			<circle
   id="path-1_3_"
   class="st0"
   cx="74.099998"
   cy="74.099998"
   r="74.099998"
   style="fill:#0038b8;fill-opacity:1" />
		</g>
		<defs
   id="defs2">
			<filter
   id="Adobe_OpacityMaskFilter"
   filterUnits="userSpaceOnUse"
   x="0"
   y="0"
   width="150.5"
   height="151">
				<feColorMatrix
   type="matrix"
   values="1 0 0 0 0  0 1 0 0 0  0 0 1 0 0  0 0 0 1 0"
   id="feColorMatrix1" />
			</filter>
		</defs>
		<mask
   maskUnits="userSpaceOnUse"
   x="0"
   y="0"
   width="150.5"
   height="151"
   id="mask-2_1_">
			<g
   id="XMLID_17_"
   class="st1">
				<circle
   id="path-1_2_"
   class="st2"
   cx="74.099998"
   cy="74.099998"
   r="74.099998" />
			</g>
		</mask>
		<g
   id="XMLID_15_"
   class="st3"
   mask="url(#mask-2_1_)"
   style="fill:#0038b8;fill-opacity:1">
			<path
   id="XMLID_22_"
   class="st4"
   d="m 94.3,147.2 c 5.4,-1.8 10.8,-3.4 16.1,-5.5 2.4,-1 4.8,-2 7.1,-3.1 1.8,-1.2 3.6,-2.3 5.3,-3.6 4.9,-3.5 8.5,-8.1 11.8,-13.2 3.6,-5.5 6.5,-11.4 8.9,-17.5 1.6,-4.1 3.2,-8.3 4.6,-12.5 V 0 H 0 v 148.2 h 91.6 c 0.9,-0.3 1.8,-0.7 2.7,-1 z"
   style="fill:#0038b8;fill-opacity:1" />
			<path
   id="XMLID_18_"
   class="st5"
   d="m 94.3,147.2 c 5.4,-1.8 10.8,-3.4 16.1,-5.5 2.4,-1 4.8,-2 7.1,-3.1 1.8,-1.2 3.6,-2.3 5.3,-3.6 4.9,-3.5 8.5,-8.1 11.8,-13.2 3.6,-5.5 6.5,-11.4 8.9,-17.5 2.2,-5.5 4.3,-11.1 5.8,-16.8 0.1,-0.4 0.2,-0.8 0.3,-1.1 -0.2,-0.7 -0.3,-1.6 -0.1,-2.5 0.2,-0.7 0.3,-1.3 0.3,-2 0,-0.3 0,-0.6 0,-0.9 0,-0.3 0,-0.6 0.1,-0.9 -0.1,-2.1 -0.5,-4.1 -0.9,-6.2 -0.1,-0.7 -0.1,-1.4 0,-2.1 L 114.5,36.8 99.5,50.4 95.2,73.2 91.7,89.7 66,97.8 48.6,89.7 50,82.2 c 0,0 -6.1,1.7 -9,1.7 h -3 l -4.9,13.9 53.2,52.6 c 2.6,-1.3 5.3,-2.2 8,-3.2 z"
   style="fill:#0038b8;fill-opacity:1" />
			
		</g>
	</g>
</g><path
   fill="#000000"
   d="m 66.068665,41.569013 h 18.119793 c 0.416666,0 0.802082,-0.218751 1.015624,-0.578126 0.213542,-0.354166 0.223958,-0.796874 0.02604,-1.166666 l -9.05729,-16.984376 c -0.411459,-0.765625 -1.677084,-0.765625 -2.088542,0 l -9.0625,16.984376 c -0.192709,0.369792 -0.182292,0.8125 0.03125,1.166666 0.213543,0.359375 0.598959,0.578126 1.015625,0.578126 z m 9.0625,-15.656252 7.083334,13.28646 H 68.042623 Z m 0,0"
   fill-opacity="1"
   fill-rule="nonzero"
   id="path2"
   style="stroke-width:1.33333" /><path
   fill="#000000"
   d="m 50.693664,101.18881 c 0.0052,-0.0521 0.03125,-0.099 0.03125,-0.15625 0,-0.0208 -0.0104,-0.0365 -0.0104,-0.0521 -0.0052,-0.0781 -0.02604,-0.15104 -0.04688,-0.22917 -0.02084,-0.0781 -0.03125,-0.15625 -0.06771,-0.22917 -0.0104,-0.0156 -0.0052,-0.0364 -0.01563,-0.0521 L 42.667637,85.631522 c -0.01563,-0.03125 -0.04688,-0.05208 -0.06771,-0.08333 -0.04688,-0.06249 -0.09375,-0.125 -0.151043,-0.182292 -0.05729,-0.05729 -0.114586,-0.104173 -0.18229,-0.151041 -0.03125,-0.02084 -0.05208,-0.04688 -0.08333,-0.06771 -0.03645,-0.01563 -0.07292,-0.01563 -0.104173,-0.03125 -0.07812,-0.03125 -0.151041,-0.05208 -0.234375,-0.06771 -0.07292,-0.01563 -0.145833,-0.02604 -0.218749,-0.02604 -0.07292,0 -0.145833,0.0104 -0.218751,0.02604 -0.07812,0.01563 -0.156249,0.03645 -0.234374,0.06771 -0.03125,0.01563 -0.06771,0.01563 -0.104174,0.03125 -0.03125,0.02084 -0.05208,0.04688 -0.08333,0.06771 -0.06771,0.04688 -0.125,0.09375 -0.182292,0.151041 -0.05729,0.05729 -0.109373,0.119787 -0.151041,0.182292 -0.02084,0.03125 -0.05208,0.05208 -0.06771,0.08333 l -7.916667,14.838538 c -0.197917,0.3698 -0.1875,0.8125 0.02604,1.17188 0.213541,0.35417 0.598959,0.57292 1.015625,0.57292 h 15.833334 c 0,0 0,0 0.0052,0 0.135418,0 0.270834,-0.0313 0.40625,-0.0833 0.02604,-0.0104 0.05729,-0.0208 0.08333,-0.0312 0.02084,-0.0104 0.04167,-0.0156 0.06251,-0.026 0.05208,-0.026 0.08333,-0.0729 0.125,-0.10417 0.06771,-0.0469 0.135416,-0.0937 0.192708,-0.15625 0.05208,-0.0573 0.08333,-0.11979 0.125,-0.1875 0.03645,-0.0625 0.07812,-0.125 0.104173,-0.19792 0.02604,-0.0729 0.03645,-0.15625 0.04688,-0.23958 z M 41.625955,88.704431 47.568664,99.845057 H 35.683247 Z m 0,0"
   fill-opacity="1"
   fill-rule="nonzero"
   id="path3"
   style="stroke-width:1.33333" /><path
   fill="#000000"
   d="m 109.33429,84.876307 c -0.57812,-0.307292 -1.29687,-0.08855 -1.59896,0.489583 l -0.14062,0.255208 c -0.005,0.0104 -0.0104,0.01563 -0.0104,0.02604 l -7.911461,14.828122 c -0.197916,0.3698 -0.1875,0.8125 0.02604,1.16667 0.213541,0.35938 0.598961,0.57292 1.015621,0.57292 h 15.83334 c 0.41667,0 0.80208,-0.21875 1.01562,-0.57292 0.21355,-0.35937 0.22396,-0.80208 0.026,-1.16667 l -7.65105,-14.338537 c 0.0937,-0.494792 -0.14063,-1.010416 -0.60417,-1.260416 z m 5.24479,14.96875 h -11.89062 l 5.94271,-11.140626 z m 0,0"
   fill-opacity="1"
   fill-rule="nonzero"
   id="path4"
   style="stroke-width:1.33333" /><g
   clip-path="url(#4d32bd4c2d)"
   id="g5"
   transform="matrix(1.3333334,0,0,1.3333334,0.610328,0.76171879)"><path
     fill="#000000"
     d="M 86.277344,56.097656 100.12891,30.136719 c 0.14843,-0.277344 0.14062,-0.609375 -0.0195,-0.878907 -0.160161,-0.265624 -0.449224,-0.429687 -0.761724,-0.429687 H 71.726562 L 56.671875,0.609375 c -0.308594,-0.5742188 -1.257813,-0.5742188 -1.566406,0 L 40.050781,28.828125 H 12.429688 c -0.3125,0 -0.601563,0.164063 -0.761719,0.429687 -0.160157,0.269532 -0.167969,0.601563 -0.01953,0.875 L 25.5,56.097656 11.648438,82.0625 c -0.148438,0.277344 -0.140626,0.609375 0.01953,0.875 0.160156,0.265625 0.449219,0.433594 0.761719,0.433594 H 40.05078 l 15.058594,28.214846 c 0.152344,0.28906 0.453125,0.46875 0.78125,0.46875 0.328125,0 0.628906,-0.17969 0.78125,-0.46875 L 71.726562,83.371094 h 27.621094 c 0.3125,0 0.601563,-0.167969 0.761724,-0.433594 0.16015,-0.265625 0.16796,-0.597656 0.0195,-0.875 z M 71.195312,81.59375 c -0.328124,0 -0.628906,0.179688 -0.78125,0.46875 L 55.890625,109.28125 41.367188,82.0625 c -0.15625,-0.289062 -0.457032,-0.46875 -0.785157,-0.46875 H 13.910156 L 27.289062,56.519531 c 0.01172,-0.02734 0.01172,-0.05469 0.02344,-0.08203 0.02344,-0.05859 0.03906,-0.113281 0.05078,-0.171875 0.01172,-0.05859 0.01563,-0.109375 0.01563,-0.167969 0,-0.05469 -0.0039,-0.109375 -0.01563,-0.164062 -0.01172,-0.05859 -0.02734,-0.117188 -0.05078,-0.171875 -0.01172,-0.02734 -0.01172,-0.05469 -0.02344,-0.08203 L 13.910156,30.605469 h 26.671875 c 0.04687,0 0.08203,-0.01953 0.125,-0.02734 0.0625,-0.0078 0.117188,-0.01563 0.175781,-0.03516 0.05469,-0.01953 0.101563,-0.05078 0.152344,-0.08203 0.04687,-0.02734 0.09375,-0.05078 0.136719,-0.08984 0.04687,-0.04297 0.08203,-0.09375 0.117187,-0.144532 0.02344,-0.03125 0.05859,-0.05469 0.07813,-0.09375 L 55.890625,2.914062 70.414062,30.136719 c 0.152344,0.285156 0.453126,0.46875 0.78125,0.46875 H 97.867188 L 84.488281,55.679688 c -0.136719,0.261718 -0.136719,0.574218 0,0.835937 L 97.867188,81.59375 Z m 0,0"
     fill-opacity="1"
     fill-rule="nonzero"
     id="path5" /></g><path
   fill="#000000"
   d="M 84.188458,109.55339 H 66.068665 c -0.416667,0 -0.802083,0.21875 -1.015626,0.57292 -0.213541,0.35937 -0.223958,0.80208 -0.02604,1.16666 l 9.062501,16.98438 c 0.203125,0.38542 0.604166,0.625 1.041666,0.625 0.4375,0 0.838542,-0.23958 1.041667,-0.625 l 9.062499,-16.98438 c 0.192708,-0.36458 0.182292,-0.8125 -0.03125,-1.16666 -0.213541,-0.35417 -0.598957,-0.57292 -1.015624,-0.57292 z m -9.057293,15.65104 -7.088542,-13.28645 h 14.171876 z m 0,0"
   fill-opacity="1"
   fill-rule="nonzero"
   id="path6"
   style="stroke-width:1.33333" /><path
   fill="#000000"
   d="M 104.00096,75.001307 90.412415,49.527347 c -0.208333,-0.385418 -0.609375,-0.625 -1.046875,-0.625 H 60.891582 c -0.437502,0 -0.838543,0.239582 -1.041667,0.625 l -13.593751,25.47396 c -0.1875,0.348957 -0.1875,0.765624 0,1.114582 l 13.593751,25.473961 c 0.203124,0.38542 0.604165,0.625 1.041667,0.625 H 89.36554 c 0.4375,0 0.838542,-0.23958 1.046875,-0.625 L 104.00096,76.115889 c 0.1875,-0.348958 0.1875,-0.765625 0,-1.114582 z M 88.657207,99.845057 H 61.599915 L 48.641581,75.558597 61.599915,51.272137 h 27.057292 l 12.958333,24.28646 z m 0,0"
   fill-opacity="1"
   fill-rule="nonzero"
   id="path7"
   style="stroke-width:1.33333" /><path
   fill="#000000"
   d="m 107.5895,65.485681 c 0.20313,0.385416 0.60417,0.625 1.04167,0.625 0.4375,0 0.83854,-0.239584 1.04166,-0.625 l 7.92188,-14.838544 c 0.19271,-0.36979 0.18229,-0.812498 -0.0312,-1.166666 -0.21355,-0.359375 -0.59896,-0.578124 -1.01563,-0.578124 H 100.7145 c -0.41667,0 -0.802088,0.223958 -1.01563,0.578124 -0.213541,0.354168 -0.223957,0.796876 -0.02604,1.166666 z m 6.98958,-14.213544 -5.94791,11.140626 -5.94271,-11.140626 z m 0,0"
   fill-opacity="1"
   fill-rule="nonzero"
   id="path8"
   style="stroke-width:1.33333" /><path
   fill="#000000"
   d="m 41.625955,66.110681 c 0.4375,0 0.838542,-0.239584 1.041667,-0.625 l 7.916667,-14.838544 c 0.197916,-0.36979 0.1875,-0.812498 -0.02604,-1.166666 -0.213543,-0.359375 -0.598959,-0.578124 -1.015625,-0.578124 H 33.70929 c -0.416667,0 -0.802084,0.223958 -1.015626,0.578124 -0.213541,0.354168 -0.223958,0.796876 -0.02604,1.166666 l 7.916667,14.838544 c 0.203124,0.385416 0.604167,0.625 1.041667,0.625 z M 47.568664,51.272137 41.625955,62.412763 35.683247,51.272137 Z m 0,0"
   fill-opacity="1"
   fill-rule="nonzero"
   id="path9"
   style="stroke-width:1.33333" />
</svg>
