<?xml version="1.0" encoding="UTF-8" standalone="no"?>
<svg
   width="150"
   zoomAndPan="magnify"
   viewBox="0 0 112.5 112.499997"
   height="150"
   preserveAspectRatio="xMidYMid meet"
   version="1.0"
   id="svg3"
   sodipodi:docname="musilm star.svg"
   inkscape:version="1.4 (e7c3feb1, 2024-10-09)"
   xmlns:inkscape="http://www.inkscape.org/namespaces/inkscape"
   xmlns:sodipodi="http://sodipodi.sourceforge.net/DTD/sodipodi-0.dtd"
   xmlns="http://www.w3.org/2000/svg"
   xmlns:svg="http://www.w3.org/2000/svg">
  <sodipodi:namedview
     id="namedview3"
     pagecolor="#ffffff"
     bordercolor="#000000"
     borderopacity="0.25"
     inkscape:showpageshadow="2"
     inkscape:pageopacity="0.0"
     inkscape:pagecheckerboard="0"
     inkscape:deskcolor="#d1d1d1"
     inkscape:zoom="6.7266667"
     inkscape:cx="75"
     inkscape:cy="27.428147"
     inkscape:window-width="1200"
     inkscape:window-height="1186"
     inkscape:window-x="0"
     inkscape:window-y="25"
     inkscape:window-maximized="0"
     inkscape:current-layer="svg3" />
  <defs
     id="defs1">
    <clipPath
       id="205fe52838">
      <path
         d="M 5.789062 0.65625 L 105.84375 0.65625 L 105.84375 111.164062 L 5.789062 111.164062 Z M 5.789062 0.65625 "
         clip-rule="nonzero"
         id="path1" />
    </clipPath>
  </defs>
  <path
     fill="#020202"
     d="M 78.007812 63.449219 L 85.980469 53.035156 L 99.070312 53.683594 L 91.625 42.875 L 96.304688 30.59375 L 83.746094 34.355469 L 73.535156 26.113281 L 73.214844 39.226562 L 62.246094 46.410156 L 74.597656 50.773438 Z M 78.007812 63.449219 "
     fill-opacity="1"
     fill-rule="nonzero"
     id="path2" />
  <g
     clip-path="url(#205fe52838)"
     id="g3">
    <path
       fill="#020202"
       d="M 73.789062 99.285156 C 46.136719 99.285156 23.714844 76.820312 23.714844 49.109375 C 23.714844 26.066406 39.203125 6.648438 60.308594 0.757812 C 59.917969 0.757812 59.503906 0.78125 59.109375 0.78125 C 29.523438 1.683594 5.789062 26.019531 5.789062 55.898438 C 5.789062 86.355469 30.421875 111.0625 60.839844 111.0625 C 79.203125 111.0625 95.449219 102.054688 105.453125 88.226562 C 105.589844 88.039062 105.707031 87.878906 105.84375 87.695312 C 97.132812 94.921875 85.980469 99.285156 73.789062 99.285156 Z M 73.789062 99.285156 "
       fill-opacity="1"
       fill-rule="nonzero"
       id="path3" />
  </g>
  <path
     style="fill:#668000;stroke-width:0.0997365"
     d="M 77.452924,147.91957 C 52.793746,146.6041 30.755844,133.26395 18.018913,111.94252 15.667821,108.00682 13.011755,102.16837 11.526405,97.670961 7.7643467,86.280028 6.8474643,74.135941 8.8477845,62.192691 11.959251,43.615157 22.252192,26.88765 37.607839,15.453477 48.709901,7.1866225 62.513726,2.0920367 76.040634,1.2690631 76.817393,1.2218053 77.988107,1.1493813 78.64222,1.108121 L 79.831516,1.033102 77.452924,1.8316875 C 73.260238,3.2393344 68.974543,5.1428306 65.300471,7.2292146 62.992415,8.5398822 59.020166,11.253967 56.7889,13.044844 48.994264,19.301035 43.165674,26.483599 38.723159,35.307235 c -3.668702,7.286698 -5.780879,14.3749 -6.791077,22.789987 -0.378008,3.148857 -0.372232,11.666522 0.01005,14.821509 1.927961,15.911537 8.717176,29.744629 19.955439,40.659389 10.82578,10.51416 24.304048,16.81679 39.633674,18.53328 3.517672,0.39388 10.776085,0.35588 14.342035,-0.0751 12.2861,-1.48484 23.5093,-5.96639 32.87169,-13.12603 0.84144,-0.64347 1.5636,-1.16995 1.60479,-1.16995 0.0412,0 -0.34483,0.5519 -0.85783,1.22646 -3.95655,5.20252 -9.45411,10.65851 -14.61582,14.50531 -10.9751,8.17928 -24.2734,13.19955 -37.834486,14.283 -2.805938,0.22417 -7.091448,0.29767 -9.588701,0.16446 z"
     id="path4"
     transform="scale(0.74999999)" />
  <path
     style="fill:#668000;stroke-width:0.0997365"
     d="m 101.82997,76.168664 c -1.21958,-4.544456 -2.286335,-8.346167 -2.370572,-8.448246 -0.08423,-0.102079 -3.747997,-1.44944 -8.141693,-2.994137 -4.393697,-1.544698 -7.988896,-2.84199 -7.989333,-2.882872 -4.36e-4,-0.04088 3.217657,-2.180039 7.151317,-4.753686 3.933661,-2.573644 7.173572,-4.747827 7.199803,-4.831516 0.02623,-0.08369 0.135389,-4.004181 0.242574,-8.712206 l 0.194881,-8.560044 6.758733,5.458449 c 3.7173,3.002147 6.82805,5.434586 6.91278,5.40542 1.16609,-0.401392 16.19757,-4.821968 16.28597,-4.789505 0.067,0.0246 -1.24346,3.623772 -2.91211,7.998153 -1.66866,4.37438 -3.03191,8.020317 -3.02945,8.102081 0.002,0.08176 2.19985,3.326313 4.88307,7.210109 2.68322,3.883796 4.86884,7.075298 4.85693,7.092226 -0.0119,0.01693 -3.89902,-0.16327 -8.63804,-0.400436 -6.66558,-0.333584 -8.65349,-0.391041 -8.78022,-0.253772 -0.123,0.133232 -10.27767,13.420046 -10.38625,13.589827 -0.0115,0.01804 -1.01881,-3.68539 -2.23839,-8.229845 z"
     id="path5"
     transform="scale(0.74999999)" />
</svg>
